<svg version="1.1" id="Layer_1" xmlns="http://www.w3.org/2000/svg" xmlns:xlink="http://www.w3.org/1999/xlink" x="0px" y="0px"
	 width="100%" viewBox="0 0 300 111" enable-background="new 0 0 300 111" xml:space="preserve">
<path fill="#FEFEFF" opacity="1.000000" stroke="none" 
	d="
M185.000000,112.000000 
	C123.333351,112.000000 62.166702,112.000000 1.000041,112.000000 
	C1.000027,75.000031 1.000027,38.000057 1.000014,1.000066 
	C100.999939,1.000044 200.999878,1.000044 300.999878,1.000022 
	C300.999908,37.999928 300.999908,74.999855 300.999939,111.999893 
	C262.500000,112.000000 224.000000,112.000000 185.000000,112.000000 
M62.548958,98.939865 
	C62.739983,98.910355 62.931007,98.880844 64.040581,98.933685 
	C71.764557,98.760406 79.488525,98.587135 87.778030,97.989288 
	C91.530472,91.297531 95.282906,84.605766 99.340828,77.573456 
	C99.340828,77.573456 99.494690,77.142616 99.970390,76.708847 
	C103.670006,69.976837 107.369614,63.244831 111.164703,55.714935 
	C107.148865,48.959099 103.133026,42.203262 99.287025,35.264236 
	C99.287025,35.264236 99.166931,35.045193 99.008408,34.340210 
	C95.267159,27.901522 91.525902,21.462835 87.312950,14.359108 
	C78.902748,14.301913 70.492538,14.244718 61.130550,14.054309 
	C53.666424,14.108767 46.202297,14.163225 38.148636,14.401912 
	C34.395638,20.913624 30.642641,27.425337 26.412548,34.257675 
	C26.234064,34.791740 26.055582,35.325806 25.332520,36.273178 
	C21.603352,42.894005 17.874186,49.514828 14.032272,56.832306 
	C17.972763,63.590710 21.913256,70.349113 25.888859,77.664734 
	C26.183634,78.105789 26.478409,78.546837 27.042253,79.667130 
	C30.692438,85.827827 34.342625,91.988525 38.532356,98.800674 
	C46.346806,98.817963 54.161251,98.835251 62.548958,98.939865 
M158.354523,52.749561 
	C163.410202,59.356548 168.633286,65.844589 173.448959,72.622108 
	C175.759430,75.873840 178.296814,76.619720 181.771637,75.480614 
	C181.771637,62.372875 181.771637,49.478287 181.771637,36.547607 
	C179.364700,36.547607 177.302277,36.547607 174.800507,36.547607 
	C174.800507,44.763477 174.800507,52.654003 174.800507,60.544533 
	C168.508041,53.829910 163.054550,46.812836 157.916397,39.571991 
	C155.656052,36.386627 153.206299,35.253132 149.557587,36.746994 
	C149.557587,49.786591 149.557587,62.688004 149.557587,75.541458 
	C152.114929,75.541458 154.335297,75.541458 156.845291,75.541458 
	C156.845291,71.674515 156.729965,68.192444 156.875046,64.721260 
	C157.049133,60.555569 157.445190,56.399155 158.354523,52.749561 
M253.621445,53.035851 
	C250.997513,60.471317 248.373581,67.906776 245.749664,75.342247 
	C246.140427,75.834915 246.531189,76.327591 246.921951,76.820267 
	C249.277725,75.715500 253.339874,74.999252 253.695129,73.438995 
	C255.268890,66.527023 259.360840,65.393524 265.566437,65.837883 
	C269.011963,66.084595 270.769836,66.969276 271.365021,70.280205 
	C272.330658,75.651634 275.428314,77.299446 280.792816,75.269814 
	C276.504059,63.056366 272.316345,50.819706 267.789642,38.709743 
	C267.325623,37.468479 264.833588,36.337109 263.281006,36.334995 
	C261.757507,36.332924 259.432068,37.472771 258.852661,38.745918 
	C256.866211,43.110874 255.491745,47.754326 253.621445,53.035851 
M225.392746,46.090511 
	C228.861618,50.662399 229.989471,45.404720 232.296249,44.793907 
	C229.057739,37.891987 222.012726,34.661842 214.252869,36.275650 
	C205.663818,38.061901 199.259186,46.278172 199.174225,55.619526 
	C199.092697,64.581581 205.684982,73.787117 213.584351,75.741982 
	C221.350739,77.663933 229.555252,74.017883 233.003723,66.809067 
	C231.265503,65.749847 229.490341,64.668121 227.797150,63.636345 
	C221.740112,69.817604 216.106003,70.844078 211.419708,66.869728 
	C206.274475,62.506130 205.328049,52.997040 209.462677,47.206478 
	C213.052780,42.178520 218.579468,41.581490 225.392746,46.090511 
M129.985397,65.468559 
	C129.985397,55.853722 129.985397,46.238884 129.985397,36.404686 
	C127.362076,36.404686 125.263237,36.404686 122.946831,36.404686 
	C122.946831,49.584728 122.946831,62.615597 122.946831,75.635071 
	C125.424126,75.635071 127.510193,75.635071 129.985397,75.635071 
	C129.985397,72.388107 129.985397,69.420921 129.985397,65.468559 
z"/>
<path fill="#653990" opacity="1.000000" stroke="none" 
	d="
M158.049835,52.494141 
	C157.445190,56.399155 157.049133,60.555569 156.875046,64.721260 
	C156.729965,68.192444 156.845291,71.674515 156.845291,75.541458 
	C154.335297,75.541458 152.114929,75.541458 149.557587,75.541458 
	C149.557587,62.688004 149.557587,49.786591 149.557587,36.746994 
	C153.206299,35.253132 155.656052,36.386627 157.916397,39.571991 
	C163.054550,46.812836 168.508041,53.829910 174.800507,60.544533 
	C174.800507,52.654003 174.800507,44.763477 174.800507,36.547607 
	C177.302277,36.547607 179.364700,36.547607 181.771637,36.547607 
	C181.771637,49.478287 181.771637,62.372875 181.771637,75.480614 
	C178.296814,76.619720 175.759430,75.873840 173.448959,72.622108 
	C168.633286,65.844589 163.410202,59.356548 158.049835,52.494141 
z"/>
<path fill="#4287E5" opacity="1.000000" stroke="none" 
	d="
M253.752686,52.663719 
	C255.491745,47.754326 256.866211,43.110874 258.852661,38.745918 
	C259.432068,37.472771 261.757507,36.332924 263.281006,36.334995 
	C264.833588,36.337109 267.325623,37.468479 267.789642,38.709743 
	C272.316345,50.819706 276.504059,63.056366 280.792816,75.269814 
	C275.428314,77.299446 272.330658,75.651634 271.365021,70.280205 
	C270.769836,66.969276 269.011963,66.084595 265.566437,65.837883 
	C259.360840,65.393524 255.268890,66.527023 253.695129,73.438995 
	C253.339874,74.999252 249.277725,75.715500 246.921951,76.820267 
	C246.531189,76.327591 246.140427,75.834915 245.749664,75.342247 
	C248.373581,67.906776 250.997513,60.471317 253.752686,52.663719 
M258.505127,60.364651 
	C261.566681,60.504860 264.628204,60.645069 268.650818,60.829292 
	C266.822784,55.176311 265.273560,50.385422 263.249969,44.127670 
	C261.241821,50.281879 259.718414,54.950584 258.505127,60.364651 
z"/>
<path fill="#4288E5" opacity="1.000000" stroke="none" 
	d="
M225.121063,45.817413 
	C218.579468,41.581490 213.052780,42.178520 209.462677,47.206478 
	C205.328049,52.997040 206.274475,62.506130 211.419708,66.869728 
	C216.106003,70.844078 221.740112,69.817604 227.797150,63.636345 
	C229.490341,64.668121 231.265503,65.749847 233.003723,66.809067 
	C229.555252,74.017883 221.350739,77.663933 213.584351,75.741982 
	C205.684982,73.787117 199.092697,64.581581 199.174225,55.619526 
	C199.259186,46.278172 205.663818,38.061901 214.252869,36.275650 
	C222.012726,34.661842 229.057739,37.891987 232.296249,44.793907 
	C229.989471,45.404720 228.861618,50.662399 225.121063,45.817413 
z"/>
<path fill="#62348D" opacity="1.000000" stroke="none" 
	d="
M129.985397,65.961151 
	C129.985397,69.420921 129.985397,72.388107 129.985397,75.635071 
	C127.510193,75.635071 125.424126,75.635071 122.946831,75.635071 
	C122.946831,62.615597 122.946831,49.584728 122.946831,36.404686 
	C125.263237,36.404686 127.362076,36.404686 129.985397,36.404686 
	C129.985397,46.238884 129.985397,55.853722 129.985397,65.961151 
z"/>
<path fill="#4081E0" opacity="1.000000" stroke="none" 
	d="
M25.853748,77.107513 
	C21.913256,70.349113 17.972763,63.590710 14.548447,56.480171 
	C22.607983,56.082130 30.151346,56.036232 37.797661,56.042587 
	C37.900612,56.094837 38.129753,56.123310 38.140175,56.291191 
	C38.150600,56.459076 38.121830,56.795723 37.961159,57.116829 
	C33.818241,63.994457 29.835997,70.550987 25.853748,77.107513 
z"/>
<path fill="#7C84E2" opacity="1.000000" stroke="none" 
	d="
M99.166931,35.045193 
	C99.166931,35.045193 99.287025,35.264236 99.113602,35.735031 
	C95.330948,42.611629 91.721718,49.017441 87.949219,55.713020 
	C90.091415,56.032867 91.552612,56.251030 92.689934,56.631886 
	C90.903671,56.848835 89.441284,56.903099 87.730057,56.970303 
	C87.481232,56.983242 86.982948,56.989803 86.943222,56.633087 
	C82.887810,49.502087 78.872131,42.727798 74.848534,35.748833 
	C74.840614,35.544155 74.845291,35.134514 74.957634,35.048164 
	C75.069977,34.961811 75.294212,34.788506 75.729874,34.869583 
	C83.832672,34.982174 91.499802,35.013683 99.166931,35.045193 
z"/>
<path fill="#62318A" opacity="1.000000" stroke="none" 
	d="
M86.982948,56.989803 
	C86.982948,56.989803 87.481232,56.983242 87.775337,57.324242 
	C91.877861,64.157700 95.686272,70.650154 99.494690,77.142616 
	C99.494690,77.142616 99.340828,77.573456 98.715408,77.740448 
	C94.628204,77.907219 91.159317,77.767380 87.706512,77.943268 
	C83.691383,78.147789 79.690361,78.628944 75.452843,78.973236 
	C75.222473,78.956429 74.761620,78.924454 74.803528,78.658386 
	C74.823792,78.213974 74.802139,78.035629 74.887711,77.679451 
	C74.994926,77.501617 75.091721,77.097748 75.364029,76.890305 
	C79.418861,70.114189 83.201370,63.545517 86.987946,56.983025 
	C86.992020,56.989197 86.982948,56.989803 86.982948,56.989803 
z"/>
<path fill="#7A86E4" opacity="1.000000" stroke="none" 
	d="
M25.871304,77.386124 
	C29.835997,70.550987 33.818241,63.994457 38.210155,57.355877 
	C42.527569,64.073944 46.435314,70.874062 50.238171,77.772827 
	C50.133282,77.871468 49.923107,78.068329 49.464115,78.008545 
	C45.568924,77.934471 42.125515,77.774445 38.698418,77.944061 
	C34.715874,78.141159 30.747631,78.627235 26.773182,78.987900 
	C26.478409,78.546837 26.183634,78.105789 25.871304,77.386124 
z"/>
<path fill="#C397F5" opacity="1.000000" stroke="none" 
	d="
M99.732536,76.925735 
	C95.686272,70.650154 91.877861,64.157700 88.024170,57.311302 
	C89.441284,56.903099 90.903671,56.848835 93.156265,56.563622 
	C99.654053,56.392723 105.361641,56.452778 111.069229,56.512825 
	C107.369614,63.244831 103.670006,69.976837 99.732536,76.925735 
z"/>
<path fill="#7A88E5" opacity="1.000000" stroke="none" 
	d="
M25.877102,35.859875 
	C26.055582,35.325806 26.234064,34.791740 26.944527,34.410355 
	C35.003960,34.635078 42.531410,34.707127 50.151993,34.843369 
	C50.245121,34.907566 50.231510,35.133385 50.135002,35.476585 
	C46.068916,42.587624 42.099335,49.355465 38.129753,56.123310 
	C38.129753,56.123310 37.900612,56.094837 37.706009,55.724274 
	C33.633305,48.855766 29.755203,42.357819 25.877102,35.859875 
z"/>
<path fill="#61358E" opacity="1.000000" stroke="none" 
	d="
M74.761620,78.924454 
	C74.761620,78.924454 75.222473,78.956429 75.670555,79.263962 
	C79.816589,85.852287 83.514549,92.133072 87.212502,98.413857 
	C79.488525,98.587135 71.764557,98.760406 63.674713,98.570389 
	C67.126434,91.779541 70.944023,85.351997 74.761620,78.924454 
z"/>
<path fill="#7B88E6" opacity="1.000000" stroke="none" 
	d="
M62.082336,14.187523 
	C70.492538,14.244718 78.902748,14.301913 87.225677,14.763632 
	C83.190331,21.708273 79.242271,28.248388 75.294212,34.788506 
	C75.294212,34.788506 75.069977,34.961811 74.773659,34.999470 
	C74.477341,35.037128 74.116882,34.913380 74.056709,34.560356 
	C70.064346,27.787706 66.132156,21.368076 62.154884,14.760637 
	C62.109806,14.572829 62.082336,14.187523 62.082336,14.187523 
z"/>
<path fill="#633088" opacity="1.000000" stroke="none" 
	d="
M61.606445,14.120916 
	C62.082336,14.187523 62.109806,14.572829 61.989189,15.082351 
	C58.215534,22.043009 54.562496,28.494144 50.742676,35.002056 
	C50.575893,35.058830 50.231510,35.133385 50.231510,35.133385 
	C50.231510,35.133385 50.245121,34.907566 50.006214,34.546104 
	C46.090927,27.528988 42.414551,20.873335 38.738171,14.217683 
	C46.202297,14.163225 53.666424,14.108767 61.606445,14.120916 
z"/>
<path fill="#7B87E5" opacity="1.000000" stroke="none" 
	d="
M61.975700,98.852547 
	C54.161251,98.835251 46.346806,98.817963 38.568199,98.308701 
	C42.377064,91.233925 46.150085,84.651131 49.923107,78.068329 
	C49.923107,78.068329 50.133282,77.871468 50.409096,77.832115 
	C50.684906,77.792763 51.007164,77.958420 51.042320,78.312561 
	C54.710220,85.395317 58.342960,92.123932 61.975700,98.852547 
z"/>
<path fill="#3E84E4" opacity="1.000000" stroke="none" 
	d="
M75.729874,34.869583 
	C79.242271,28.248388 83.190331,21.708273 87.461517,15.096152 
	C91.525902,21.462835 95.267159,27.901522 99.087669,34.692703 
	C91.499802,35.013683 83.832672,34.982174 75.729874,34.869583 
z"/>
<path fill="#61348D" opacity="1.000000" stroke="none" 
	d="
M49.464115,78.008545 
	C46.150085,84.651131 42.377064,91.233925 38.298428,97.982971 
	C34.342625,91.988525 30.692438,85.827827 26.907719,79.327515 
	C30.747631,78.627235 34.715874,78.141159 38.698418,77.944061 
	C42.125515,77.774445 45.568924,77.934471 49.464115,78.008545 
z"/>
<path fill="#C296F5" opacity="1.000000" stroke="none" 
	d="
M62.262329,98.896210 
	C58.342960,92.123932 54.710220,85.395317 51.510468,78.299942 
	C59.555798,77.907883 67.168144,77.882584 74.780487,77.857285 
	C74.802139,78.035629 74.823792,78.213974 74.803528,78.658386 
	C70.944023,85.351997 67.126434,91.779541 63.215435,98.529213 
	C62.931007,98.880844 62.739983,98.910355 62.262329,98.896210 
z"/>
<path fill="#3E83E3" opacity="1.000000" stroke="none" 
	d="
M38.443405,14.309797 
	C42.414551,20.873335 46.090927,27.528988 49.913086,34.481903 
	C42.531410,34.707127 35.003960,34.635078 27.183075,34.250038 
	C30.642641,27.425337 34.395638,20.913624 38.443405,14.309797 
z"/>
<path fill="#3E83E3" opacity="1.000000" stroke="none" 
	d="
M87.495270,98.201569 
	C83.514549,92.133072 79.816589,85.852287 75.900925,79.280769 
	C79.690361,78.628944 83.691383,78.147789 87.706512,77.943268 
	C91.159317,77.767380 94.628204,77.907219 98.562668,77.910728 
	C95.282906,84.605766 91.530472,91.297531 87.495270,98.201569 
z"/>
<path fill="#633188" opacity="1.000000" stroke="none" 
	d="
M25.604811,36.066528 
	C29.755203,42.357819 33.633305,48.855766 37.603058,55.672020 
	C30.151346,56.036232 22.607983,56.082130 14.604819,56.131844 
	C17.874186,49.514828 21.603352,42.894005 25.604811,36.066528 
z"/>
<path fill="#633087" opacity="1.000000" stroke="none" 
	d="
M111.116966,56.113884 
	C105.361641,56.452778 99.654053,56.392723 93.480133,56.400932 
	C91.552612,56.251030 90.091415,56.032867 87.949219,55.713020 
	C91.721718,49.017441 95.330948,42.611629 99.028687,35.826622 
	C103.133026,42.203262 107.148865,48.959099 111.116966,56.113884 
z"/>
<path fill="#EDF3FD" opacity="1.000000" stroke="none" 
	d="
M258.350067,59.991966 
	C259.718414,54.950584 261.241821,50.281879 263.249969,44.127670 
	C265.273560,50.385422 266.822784,55.176311 268.650818,60.829292 
	C264.628204,60.645069 261.566681,60.504860 258.350067,59.991966 
z"/>
<path fill="#FDFCFF" opacity="1.000000" stroke="none" 
	d="
M74.887711,77.679451 
	C67.168144,77.882584 59.555798,77.907883 51.475311,77.945801 
	C51.007164,77.958420 50.684906,77.792763 50.513985,77.733475 
	C46.435314,70.874062 42.527569,64.073944 38.370827,57.034775 
	C38.121830,56.795723 38.150600,56.459076 38.140175,56.291191 
	C42.099335,49.355465 46.068916,42.587624 50.135002,35.476585 
	C50.231510,35.133385 50.575893,35.058830 51.216789,35.046074 
	C59.277416,34.993336 66.697151,34.953358 74.116882,34.913380 
	C74.116882,34.913380 74.477341,35.037128 74.661316,35.085823 
	C74.845291,35.134514 74.840614,35.544155 74.590958,35.959347 
	C70.974266,42.112232 67.514717,47.799183 64.317101,53.629787 
	C63.665760,54.817459 63.999775,56.545521 64.018112,58.348717 
	C67.801682,64.814560 71.446701,70.956154 75.091721,77.097748 
	C75.091721,77.097748 74.994926,77.501617 74.887711,77.679451 
z"/>
<path fill="#C098F5" opacity="1.000000" stroke="none" 
	d="
M63.879559,58.024471 
	C63.999775,56.545521 63.665760,54.817459 64.317101,53.629787 
	C67.514717,47.799183 70.974266,42.112232 74.598877,36.164024 
	C78.872131,42.727798 82.887810,49.502087 86.943222,56.633087 
	C86.982948,56.989803 86.992020,56.989197 86.520882,56.966251 
	C82.622696,56.941071 79.188385,56.797733 75.770493,56.973530 
	C71.799332,57.177780 67.842567,57.661850 63.879559,58.024471 
z"/>
<path fill="#7B87E5" opacity="1.000000" stroke="none" 
	d="
M64.018112,58.348717 
	C67.842567,57.661850 71.799332,57.177780 75.770493,56.973530 
	C79.188385,56.797733 82.622696,56.941071 86.516815,56.960075 
	C83.201370,63.545517 79.418861,70.114189 75.364029,76.890305 
	C71.446701,70.956154 67.801682,64.814560 64.018112,58.348717 
z"/>
<path fill="#C296F5" opacity="1.000000" stroke="none" 
	d="
M74.056709,34.560356 
	C66.697151,34.953358 59.277416,34.993336 51.383568,34.989296 
	C54.562496,28.494144 58.215534,22.043009 62.034271,15.270159 
	C66.132156,21.368076 70.064346,27.787706 74.056709,34.560356 
z"/>
</svg>