<?xml version="1.0" encoding="utf-8"?>
<!-- Generator: Adobe Illustrator 25.2.3, SVG Export Plug-In . SVG Version: 6.00 Build 0)  -->
<svg version="1.1" id="Capa_1" xmlns="http://www.w3.org/2000/svg" xmlns:xlink="http://www.w3.org/1999/xlink" x="0px" y="0px"
	 viewBox="0 0 352 134" style="enable-background:new 0 0 352 134;" xml:space="preserve">
<style type="text/css">
	.st0{enable-background:new    ;}
	.st1{fill:#009CB3;}
	.st2{fill:#0097B3;}
	.st3{fill:#0097B1;}
	.st4{fill:none;}
</style>
<g class="st0">
	<path class="st1" d="M141.1,59.8c0,1.7-0.1,3.4-0.2,5.1c-0.1,1.7-0.4,3.4-0.8,5c-0.4,1.6-1,3.2-1.7,4.8c-0.8,1.5-1.7,2.9-3,4.2
		c-1.6,1.7-3.6,3-5.9,3.9c-2.4,0.9-4.9,1.3-7.7,1.3h-18.9V35.5h18.9c2.8,0,5.4,0.4,7.7,1.3c2.4,0.9,4.3,2.2,5.9,3.9
		c1.2,1.3,2.2,2.7,3,4.2c0.8,1.5,1.3,3.1,1.7,4.7c0.4,1.6,0.7,3.3,0.8,5C141.1,56.4,141.1,58.1,141.1,59.8z M132.1,59.8
		c0-1.1,0-2.3-0.1-3.5c0-1.2-0.2-2.5-0.4-3.7c-0.2-1.2-0.6-2.4-1-3.5c-0.5-1.1-1.1-2.1-2-2.9c-0.8-0.8-1.8-1.5-3-2
		c-1.2-0.5-2.5-0.8-3.9-0.8h-10.1v32.7h10.1c1.4,0,2.7-0.3,3.9-0.8s2.2-1.2,3-2c0.9-0.9,1.5-1.9,2-2.9c0.5-1.1,0.8-2.3,1-3.5
		c0.2-1.2,0.4-2.4,0.4-3.7C132.1,62,132.1,60.9,132.1,59.8z"/>
	<path class="st1" d="M187.3,59.8c0,2-0.1,3.9-0.2,5.7c-0.1,1.8-0.4,3.5-0.9,5.1s-1.1,3.2-1.9,4.7c-0.8,1.5-1.9,2.9-3.2,4.2
		c-1.9,1.9-4,3.3-6.4,4.1c-2.4,0.9-4.9,1.3-7.5,1.3s-5.1-0.4-7.5-1.3c-2.4-0.9-4.6-2.3-6.4-4.1c-1.3-1.3-2.4-2.7-3.2-4.2
		c-0.8-1.5-1.4-3-1.9-4.7c-0.5-1.6-0.8-3.4-0.9-5.1c-0.1-1.8-0.2-3.7-0.2-5.7c0-2,0.1-3.9,0.2-5.7c0.1-1.8,0.4-3.6,0.9-5.2
		c0.5-1.6,1.1-3.2,1.9-4.7c0.8-1.5,1.9-2.9,3.2-4.2c1.9-1.9,4-3.3,6.4-4.1c2.4-0.9,4.9-1.3,7.5-1.3s5.1,0.4,7.5,1.3
		c2.4,0.9,4.6,2.3,6.4,4.1c1.3,1.3,2.4,2.7,3.2,4.2c0.8,1.5,1.4,3,1.9,4.7c0.5,1.6,0.8,3.4,0.9,5.2C187.2,56,187.3,57.9,187.3,59.8z
		 M178.3,59.8c0-1.1,0-2.3-0.1-3.6c0-1.3-0.2-2.5-0.4-3.8c-0.2-1.3-0.6-2.5-1.1-3.6c-0.5-1.1-1.1-2.1-2-3c-1-1.1-2.1-1.9-3.5-2.4
		s-2.8-0.8-4.2-0.8c-1.4,0-2.8,0.3-4.2,0.8s-2.5,1.3-3.5,2.4c-0.8,0.9-1.5,1.9-2,3c-0.5,1.1-0.8,2.3-1.1,3.6
		c-0.2,1.3-0.4,2.5-0.4,3.8c0,1.3-0.1,2.5-0.1,3.6c0,1.1,0,2.3,0.1,3.6c0,1.3,0.2,2.5,0.4,3.8c0.2,1.2,0.6,2.4,1.1,3.6
		c0.5,1.1,1.1,2.1,2,3c1,1.1,2.1,1.9,3.5,2.4c1.4,0.5,2.8,0.8,4.2,0.8c1.4,0,2.8-0.3,4.2-0.8c1.4-0.5,2.5-1.3,3.5-2.4
		c0.8-0.9,1.5-1.9,2-3c0.5-1.1,0.8-2.3,1.1-3.6c0.2-1.2,0.4-2.5,0.4-3.8C178.3,62.1,178.3,60.9,178.3,59.8z"/>
	<path class="st1" d="M233.3,59.8c0,2-0.1,3.9-0.2,5.7c-0.1,1.8-0.4,3.5-0.9,5.1s-1.1,3.2-1.9,4.7c-0.8,1.5-1.9,2.9-3.2,4.2
		c-1.9,1.9-4,3.3-6.4,4.1c-2.4,0.9-4.9,1.3-7.5,1.3s-5.1-0.4-7.5-1.3c-2.4-0.9-4.6-2.3-6.4-4.1c-1.3-1.3-2.4-2.7-3.2-4.2
		c-0.8-1.5-1.4-3-1.9-4.7c-0.5-1.6-0.8-3.4-0.9-5.1c-0.1-1.8-0.2-3.7-0.2-5.7c0-2,0.1-3.9,0.2-5.7c0.1-1.8,0.4-3.6,0.9-5.2
		c0.5-1.6,1.1-3.2,1.9-4.7c0.8-1.5,1.9-2.9,3.2-4.2c1.9-1.9,4-3.3,6.4-4.1c2.4-0.9,4.9-1.3,7.5-1.3s5.1,0.4,7.5,1.3
		c2.4,0.9,4.6,2.3,6.4,4.1c1.3,1.3,2.4,2.7,3.2,4.2c0.8,1.5,1.4,3,1.9,4.7c0.5,1.6,0.8,3.4,0.9,5.2C233.3,56,233.3,57.9,233.3,59.8z
		 M224.4,59.8c0-1.1,0-2.3-0.1-3.6c0-1.3-0.2-2.5-0.4-3.8c-0.2-1.3-0.6-2.5-1.1-3.6c-0.5-1.1-1.1-2.1-2-3c-1-1.1-2.1-1.9-3.5-2.4
		s-2.8-0.8-4.2-0.8c-1.4,0-2.8,0.3-4.2,0.8s-2.5,1.3-3.5,2.4c-0.8,0.9-1.5,1.9-2,3c-0.5,1.1-0.8,2.3-1.1,3.6
		c-0.2,1.3-0.4,2.5-0.4,3.8c0,1.3-0.1,2.5-0.1,3.6c0,1.1,0,2.3,0.1,3.6c0,1.3,0.2,2.5,0.4,3.8c0.2,1.2,0.6,2.4,1.1,3.6
		c0.5,1.1,1.1,2.1,2,3c1,1.1,2.1,1.9,3.5,2.4c1.4,0.5,2.8,0.8,4.2,0.8c1.4,0,2.8-0.3,4.2-0.8c1.4-0.5,2.5-1.3,3.5-2.4
		c0.8-0.9,1.5-1.9,2-3c0.5-1.1,0.8-2.3,1.1-3.6c0.2-1.2,0.4-2.5,0.4-3.8C224.3,62.1,224.4,60.9,224.4,59.8z"/>
	<path class="st1" d="M241.9,84.1V35.5h8.8v40.2h22.6v8.4H241.9z"/>
	<path class="st1" d="M279.6,84.1V35.5h34.6v8h-25.8v11.3h22.7v8h-22.7v13.3h25.8v8H279.6z"/>
</g>
<g class="st0">
	<path class="st2" d="M111.9,102c0,0.4,0,0.8-0.1,1.1s-0.1,0.7-0.2,1.1c-0.1,0.3-0.2,0.7-0.4,1c-0.2,0.3-0.4,0.6-0.7,0.8l0.9,1.2
		l-0.8,0.6l-0.9-1.2c-0.6,0.3-1.2,0.4-1.9,0.4c-0.5,0-1-0.1-1.5-0.3s-0.9-0.4-1.3-0.8c-0.3-0.3-0.5-0.5-0.7-0.9
		c-0.2-0.3-0.3-0.6-0.4-1c-0.1-0.3-0.2-0.7-0.2-1.1c0-0.4-0.1-0.8-0.1-1.1c0-0.4,0-0.8,0.1-1.1c0-0.4,0.1-0.7,0.2-1.1s0.2-0.7,0.4-1
		c0.2-0.3,0.4-0.6,0.7-0.9c0.4-0.4,0.8-0.6,1.3-0.8c0.5-0.2,1-0.3,1.5-0.3c0.5,0,1,0.1,1.5,0.3c0.5,0.2,0.9,0.4,1.3,0.8
		c0.3,0.3,0.5,0.5,0.7,0.9c0.2,0.3,0.3,0.6,0.4,1c0.1,0.3,0.2,0.7,0.2,1.1S111.9,101.6,111.9,102z M110.6,102c0-0.3,0-0.5,0-0.8
		s-0.1-0.6-0.1-0.9s-0.1-0.6-0.3-0.8c-0.1-0.3-0.3-0.5-0.5-0.7c-0.2-0.2-0.5-0.4-0.9-0.5c-0.3-0.1-0.7-0.2-1-0.2
		c-0.3,0-0.7,0.1-1,0.2s-0.6,0.3-0.9,0.5c-0.2,0.2-0.4,0.5-0.5,0.7c-0.1,0.3-0.2,0.5-0.3,0.8c-0.1,0.3-0.1,0.6-0.1,0.9
		c0,0.3,0,0.6,0,0.8s0,0.5,0,0.8c0,0.3,0,0.6,0.1,0.9c0.1,0.3,0.1,0.6,0.3,0.8s0.3,0.5,0.5,0.7c0.2,0.2,0.5,0.4,0.9,0.5
		s0.7,0.2,1,0.2c0.4,0,0.7-0.1,1.1-0.2l-1.2-1.5l0.8-0.6l1.2,1.5c0.2-0.2,0.3-0.4,0.4-0.7c0.1-0.3,0.2-0.5,0.2-0.8s0.1-0.5,0.1-0.8
		C110.6,102.5,110.6,102.2,110.6,102z"/>
	<path class="st2" d="M118.6,106.9l-0.1-1.1c-0.2,0.4-0.5,0.7-0.9,0.9c-0.4,0.2-0.8,0.3-1.3,0.3c-0.8,0-1.5-0.2-1.9-0.7
		c-0.4-0.5-0.6-1.1-0.6-1.9v-4.6h1.2v4.4c0,0.5,0.1,0.9,0.3,1.2c0.2,0.3,0.6,0.4,1.2,0.4c0.2,0,0.5,0,0.7-0.1
		c0.2-0.1,0.4-0.2,0.5-0.4c0.2-0.2,0.4-0.5,0.5-0.9s0.1-0.7,0.1-1.1v-3.7h1.2v7H118.6z"/>
	<path class="st2" d="M128.4,106.8c-0.1,0.1-0.3,0.1-0.4,0.1c-0.1,0-0.3,0-0.4,0c-0.3,0-0.6-0.1-0.8-0.3c-0.2-0.2-0.3-0.5-0.3-0.8h0
		c-0.2,0.4-0.5,0.6-0.9,0.8c-0.4,0.2-0.9,0.3-1.4,0.3c-0.4,0-0.8-0.1-1.1-0.2c-0.3-0.1-0.6-0.3-0.8-0.5c-0.2-0.2-0.4-0.4-0.5-0.7
		c-0.1-0.3-0.2-0.5-0.2-0.8c0-0.2,0-0.5,0.1-0.7c0.1-0.2,0.2-0.5,0.4-0.7s0.5-0.4,0.8-0.5c0.3-0.1,0.7-0.2,1.2-0.3l2.2-0.1v-0.5
		c0-0.2,0-0.4-0.1-0.6c0-0.2-0.1-0.4-0.3-0.5c-0.1-0.1-0.3-0.2-0.5-0.3c-0.2-0.1-0.4-0.1-0.7-0.1c-0.3,0-0.6,0-0.8,0.1
		c-0.2,0.1-0.4,0.2-0.5,0.3c-0.2,0.2-0.4,0.5-0.4,0.8h-1.2c0-0.3,0.1-0.6,0.2-0.8s0.3-0.4,0.5-0.6c0.2-0.2,0.6-0.4,1-0.6
		c0.4-0.1,0.8-0.2,1.3-0.2c0.7,0,1.3,0.1,1.7,0.4c0.4,0.3,0.7,0.6,0.9,1c0.1,0.3,0.2,0.7,0.2,1.1v3.4c0,0.2,0,0.3,0.1,0.4
		c0.1,0.1,0.2,0.1,0.3,0.1c0,0,0.1,0,0.1,0s0.1,0,0.1,0l0.1,0V106.8z M126.5,103.5l-1.9,0.1c-0.2,0-0.4,0-0.6,0.1
		c-0.2,0.1-0.4,0.1-0.5,0.2s-0.3,0.2-0.4,0.4c-0.1,0.2-0.1,0.3-0.1,0.6c0,0.3,0.1,0.6,0.3,0.8c0.2,0.2,0.6,0.4,1.1,0.4
		c0.3,0,0.5,0,0.8-0.1c0.3-0.1,0.5-0.2,0.7-0.4c0.2-0.2,0.4-0.5,0.5-0.7c0.1-0.3,0.1-0.6,0.1-0.9V103.5z"/>
	<path class="st2" d="M132.7,106.9c-0.1,0-0.1,0-0.2,0c-0.1,0-0.4,0-0.6,0c-0.5,0-0.9-0.1-1.2-0.4s-0.4-0.7-0.4-1.3v-8.4h1.2v8.3
		c0,0.2,0,0.4,0.1,0.5c0.1,0.1,0.3,0.2,0.5,0.2h0.4c0,0,0.1,0,0.1,0V106.9z"/>
	<path class="st2" d="M134.4,98.3v-1.4h1.4v1.4H134.4z M134.5,106.9v-7h1.2v7H134.5z"/>
	<path class="st2" d="M142.2,106.8c-0.2,0-0.4,0.1-0.6,0.1c-0.2,0-0.5,0.1-0.9,0.1c-0.4,0-0.7-0.1-1-0.2c-0.3-0.1-0.5-0.3-0.6-0.4
		c-0.1-0.2-0.3-0.4-0.3-0.6c-0.1-0.2-0.1-0.5-0.1-0.7v-4.2h-1.4v-1h1.4v-1.8l1.2-0.3v2.1h2.2v1H140v4.1c0,0.3,0.1,0.6,0.2,0.7
		c0.2,0.1,0.4,0.2,0.7,0.2c0.1,0,0.3,0,0.4,0c0.1,0,0.3,0,0.4,0c0.1,0,0.3,0,0.4-0.1V106.8z"/>
	<path class="st2" d="M146.3,108.4c-0.2,0.5-0.4,0.8-0.7,1.1s-0.7,0.4-1.3,0.4c-0.3,0-0.6,0-0.7-0.1c-0.2,0-0.3-0.1-0.4-0.1v-1
		c0.1,0,0.2,0,0.3,0.1c0.1,0,0.2,0,0.3,0c0.1,0,0.2,0,0.3,0c0.3,0,0.5-0.1,0.7-0.2s0.3-0.3,0.4-0.6l0.5-1.2l-2.9-7h1.4l2.1,5.5
		l2-5.5h1.3L146.3,108.4z"/>
	<path class="st2" d="M160.6,106.9v-4.5h-4.9v4.5h-1.3v-9.9h1.3v4.1h4.9v-4.1h1.3v9.9H160.6z"/>
	<path class="st2" d="M170.5,103c0,0.1,0,0.3,0,0.4s0,0.3,0,0.4h-5.1c0,0.3,0.1,0.6,0.2,1c0.1,0.3,0.3,0.6,0.5,0.8
		c0.3,0.3,0.8,0.5,1.3,0.5c0.6,0,1-0.2,1.3-0.5c0.1-0.1,0.2-0.2,0.3-0.3s0.1-0.3,0.2-0.4h1.2c0,0.4-0.2,0.7-0.4,1s-0.4,0.6-0.7,0.8
		c-0.3,0.2-0.5,0.3-0.9,0.4c-0.3,0.1-0.6,0.1-1,0.1c-0.5,0-1-0.1-1.4-0.3s-0.7-0.4-1-0.8c-0.3-0.3-0.5-0.7-0.7-1.2
		c-0.1-0.4-0.2-0.9-0.2-1.4c0-0.4,0-0.8,0.1-1.2s0.2-0.7,0.4-1c0.3-0.4,0.6-0.8,1.1-1.1c0.5-0.3,1-0.4,1.6-0.4
		c0.5,0,0.9,0.1,1.3,0.2c0.4,0.2,0.7,0.4,1,0.7c0.3,0.3,0.5,0.7,0.7,1.1C170.4,102.1,170.5,102.6,170.5,103z M169.3,102.8
		c0-0.3,0-0.5-0.1-0.8c-0.1-0.2-0.2-0.5-0.3-0.7c-0.2-0.2-0.3-0.3-0.6-0.5c-0.2-0.1-0.5-0.2-0.8-0.2c-0.3,0-0.6,0.1-0.9,0.2
		s-0.4,0.3-0.6,0.5c-0.2,0.2-0.3,0.4-0.4,0.7s-0.1,0.5-0.1,0.8H169.3z"/>
	<path class="st2" d="M178.6,106.8c-0.1,0.1-0.3,0.1-0.4,0.1c-0.1,0-0.3,0-0.4,0c-0.3,0-0.6-0.1-0.8-0.3c-0.2-0.2-0.3-0.5-0.3-0.8h0
		c-0.2,0.4-0.5,0.6-0.9,0.8c-0.4,0.2-0.9,0.3-1.4,0.3c-0.4,0-0.8-0.1-1.1-0.2c-0.3-0.1-0.6-0.3-0.8-0.5c-0.2-0.2-0.4-0.4-0.5-0.7
		c-0.1-0.3-0.2-0.5-0.2-0.8c0-0.2,0-0.5,0.1-0.7c0.1-0.2,0.2-0.5,0.4-0.7s0.5-0.4,0.8-0.5c0.3-0.1,0.7-0.2,1.2-0.3l2.2-0.1v-0.5
		c0-0.2,0-0.4-0.1-0.6c0-0.2-0.1-0.4-0.3-0.5c-0.1-0.1-0.3-0.2-0.5-0.3c-0.2-0.1-0.4-0.1-0.7-0.1c-0.3,0-0.6,0-0.8,0.1
		c-0.2,0.1-0.4,0.2-0.5,0.3c-0.2,0.2-0.4,0.5-0.4,0.8h-1.2c0-0.3,0.1-0.6,0.2-0.8s0.3-0.4,0.5-0.6c0.2-0.2,0.6-0.4,1-0.6
		c0.4-0.1,0.8-0.2,1.3-0.2c0.7,0,1.3,0.1,1.7,0.4s0.7,0.6,0.9,1c0.1,0.3,0.2,0.7,0.2,1.1v3.4c0,0.2,0,0.3,0.1,0.4
		c0.1,0.1,0.2,0.1,0.3,0.1c0,0,0.1,0,0.1,0s0.1,0,0.1,0l0.1,0V106.8z M176.7,103.5l-1.9,0.1c-0.2,0-0.4,0-0.6,0.1
		c-0.2,0.1-0.4,0.1-0.5,0.2s-0.3,0.2-0.4,0.4c-0.1,0.2-0.1,0.3-0.1,0.6c0,0.3,0.1,0.6,0.3,0.8c0.2,0.2,0.6,0.4,1.1,0.4
		c0.3,0,0.5,0,0.8-0.1c0.3-0.1,0.5-0.2,0.7-0.4c0.2-0.2,0.4-0.5,0.5-0.7c0.1-0.3,0.1-0.6,0.1-0.9V103.5z"/>
	<path class="st2" d="M182.9,106.9c-0.1,0-0.1,0-0.2,0c-0.1,0-0.4,0-0.6,0c-0.5,0-0.9-0.1-1.2-0.4c-0.2-0.3-0.4-0.7-0.4-1.3v-8.4
		h1.2v8.3c0,0.2,0,0.4,0.1,0.5c0.1,0.1,0.3,0.2,0.5,0.2h0.4c0,0,0.1,0,0.1,0V106.9z"/>
	<path class="st2" d="M188.5,106.8c-0.2,0-0.4,0.1-0.6,0.1c-0.2,0-0.5,0.1-0.9,0.1c-0.4,0-0.7-0.1-1-0.2c-0.3-0.1-0.5-0.3-0.6-0.4
		c-0.1-0.2-0.3-0.4-0.3-0.6s-0.1-0.5-0.1-0.7v-4.2h-1.4v-1h1.4v-1.8l1.2-0.3v2.1h2.2v1h-2.2v4.1c0,0.3,0.1,0.6,0.2,0.7
		c0.2,0.1,0.4,0.2,0.7,0.2c0.1,0,0.3,0,0.4,0c0.1,0,0.3,0,0.4,0c0.1,0,0.3,0,0.4-0.1V106.8z"/>
	<path class="st2" d="M194.9,106.9v-4.5c0-0.5-0.1-0.9-0.4-1.2c-0.2-0.3-0.7-0.4-1.2-0.4c-0.4,0-0.7,0.1-0.9,0.3s-0.5,0.5-0.6,0.8
		c-0.1,0.3-0.2,0.6-0.2,0.9c0,0.3,0,0.6,0,0.9v3.3h-1.2v-10h1.2v3.9c0.2-0.4,0.5-0.6,0.9-0.8c0.4-0.2,0.8-0.3,1.2-0.3
		c0.8,0,1.5,0.2,1.9,0.7c0.4,0.5,0.6,1.1,0.6,1.9v4.6H194.9z"/>
	<path class="st2" d="M204.3,104.6c0,0.4-0.1,0.7-0.3,1c-0.1,0.3-0.3,0.5-0.6,0.8c-0.3,0.2-0.6,0.4-0.9,0.6
		c-0.3,0.1-0.7,0.2-1.2,0.2c-0.7,0-1.2-0.1-1.6-0.4c-0.4-0.3-0.8-0.6-1-0.9c-0.2-0.3-0.3-0.6-0.4-1c-0.1-0.4-0.2-0.8-0.2-1.4
		s0.1-1,0.2-1.4s0.3-0.7,0.4-1c0.3-0.4,0.6-0.7,1-0.9c0.4-0.3,1-0.4,1.6-0.4c0.4,0,0.8,0.1,1.2,0.2c0.3,0.1,0.6,0.3,0.9,0.6
		c0.2,0.2,0.4,0.5,0.6,0.8c0.1,0.3,0.2,0.6,0.3,1h-1.2c0-0.2-0.1-0.5-0.2-0.6c-0.1-0.2-0.2-0.3-0.3-0.5c-0.1-0.1-0.3-0.2-0.5-0.3
		c-0.2-0.1-0.4-0.1-0.7-0.1c-0.3,0-0.5,0-0.7,0.1s-0.4,0.2-0.5,0.3c-0.3,0.2-0.5,0.6-0.6,1c-0.1,0.4-0.2,0.8-0.2,1.3s0,0.9,0.2,1.3
		c0.1,0.4,0.3,0.7,0.6,1c0.2,0.1,0.3,0.2,0.5,0.3s0.4,0.1,0.7,0.1c0.2,0,0.5,0,0.7-0.1s0.4-0.2,0.5-0.3c0.1-0.1,0.2-0.3,0.3-0.4
		c0.1-0.2,0.1-0.4,0.2-0.6H204.3z"/>
	<path class="st2" d="M212.4,106.8c-0.1,0.1-0.3,0.1-0.4,0.1c-0.1,0-0.3,0-0.4,0c-0.3,0-0.6-0.1-0.8-0.3c-0.2-0.2-0.3-0.5-0.3-0.8h0
		c-0.2,0.4-0.5,0.6-0.9,0.8c-0.4,0.2-0.9,0.3-1.4,0.3c-0.4,0-0.8-0.1-1.1-0.2c-0.3-0.1-0.6-0.3-0.8-0.5c-0.2-0.2-0.4-0.4-0.5-0.7
		c-0.1-0.3-0.2-0.5-0.2-0.8c0-0.2,0-0.5,0.1-0.7c0.1-0.2,0.2-0.5,0.4-0.7c0.2-0.2,0.5-0.4,0.8-0.5s0.7-0.2,1.2-0.3l2.2-0.1v-0.5
		c0-0.2,0-0.4-0.1-0.6s-0.1-0.4-0.3-0.5c-0.1-0.1-0.3-0.2-0.5-0.3c-0.2-0.1-0.4-0.1-0.7-0.1c-0.3,0-0.6,0-0.8,0.1
		c-0.2,0.1-0.4,0.2-0.5,0.3c-0.2,0.2-0.4,0.5-0.4,0.8H206c0-0.3,0.1-0.6,0.2-0.8s0.3-0.4,0.5-0.6c0.2-0.2,0.6-0.4,1-0.6
		c0.4-0.1,0.8-0.2,1.3-0.2c0.7,0,1.3,0.1,1.7,0.4c0.4,0.3,0.7,0.6,0.9,1c0.1,0.3,0.2,0.7,0.2,1.1v3.4c0,0.2,0,0.3,0.1,0.4
		c0.1,0.1,0.2,0.1,0.3,0.1c0,0,0.1,0,0.1,0s0.1,0,0.1,0l0.1,0V106.8z M210.5,103.5l-1.9,0.1c-0.2,0-0.4,0-0.6,0.1
		c-0.2,0.1-0.4,0.1-0.5,0.2s-0.3,0.2-0.4,0.4c-0.1,0.2-0.1,0.3-0.1,0.6c0,0.3,0.1,0.6,0.3,0.8c0.2,0.2,0.6,0.4,1.1,0.4
		c0.3,0,0.5,0,0.8-0.1c0.3-0.1,0.5-0.2,0.7-0.4c0.2-0.2,0.4-0.5,0.5-0.7c0.1-0.3,0.1-0.6,0.1-0.9V103.5z"/>
	<path class="st2" d="M218.2,101c-0.1,0-0.2,0-0.3,0c-0.1,0-0.2,0-0.3,0c-0.3,0-0.5,0.1-0.8,0.2c-0.2,0.1-0.4,0.2-0.6,0.4
		c-0.1,0.1-0.3,0.3-0.4,0.5s-0.2,0.4-0.2,0.6c0,0.2-0.1,0.4-0.1,0.6c0,0.2,0,0.4,0,0.6v3.1h-1.2v-7h1.1l0.1,1.2
		c0.2-0.4,0.5-0.8,0.9-1c0.4-0.2,0.8-0.3,1.3-0.3c0.2,0,0.4,0,0.6,0V101z"/>
	<path class="st2" d="M225.5,103c0,0.1,0,0.3,0,0.4s0,0.3,0,0.4h-5.1c0,0.3,0.1,0.6,0.2,1c0.1,0.3,0.3,0.6,0.5,0.8
		c0.3,0.3,0.8,0.5,1.3,0.5c0.6,0,1-0.2,1.3-0.5c0.1-0.1,0.2-0.2,0.3-0.3c0.1-0.1,0.1-0.3,0.2-0.4h1.2c0,0.4-0.2,0.7-0.4,1
		c-0.2,0.3-0.4,0.6-0.7,0.8c-0.3,0.2-0.5,0.3-0.9,0.4c-0.3,0.1-0.6,0.1-1,0.1c-0.5,0-1-0.1-1.4-0.3s-0.7-0.4-1-0.8
		c-0.3-0.3-0.5-0.7-0.7-1.2s-0.2-0.9-0.2-1.4c0-0.4,0-0.8,0.1-1.2s0.2-0.7,0.4-1c0.3-0.4,0.6-0.8,1.1-1.1c0.5-0.3,1-0.4,1.6-0.4
		c0.5,0,0.9,0.1,1.3,0.2c0.4,0.2,0.7,0.4,1,0.7c0.3,0.3,0.5,0.7,0.7,1.1C225.5,102.1,225.5,102.6,225.5,103z M224.3,102.8
		c0-0.3,0-0.5-0.1-0.8s-0.2-0.5-0.3-0.7c-0.2-0.2-0.3-0.3-0.6-0.5c-0.2-0.1-0.5-0.2-0.8-0.2c-0.3,0-0.6,0.1-0.9,0.2
		s-0.4,0.3-0.6,0.5c-0.2,0.2-0.3,0.4-0.4,0.7s-0.1,0.5-0.1,0.8H224.3z"/>
	<path class="st2" d="M227.2,106.9v-1.7h1.7v1.7H227.2z"/>
	<path class="st2" d="M234.2,106.9v-9.9h6.8v1.1h-5.5v3h4.8v1.2h-4.8v3.4h5.5v1.1H234.2z"/>
	<path class="st2" d="M245.7,106.9h-1.3l-2.7-7h1.3l2.1,5.6l2-5.6h1.2L245.7,106.9z"/>
	<path class="st2" d="M255.7,103c0,0.1,0,0.3,0,0.4s0,0.3,0,0.4h-5.1c0,0.3,0.1,0.6,0.2,1c0.1,0.3,0.3,0.6,0.5,0.8
		c0.3,0.3,0.8,0.5,1.3,0.5c0.6,0,1-0.2,1.3-0.5c0.1-0.1,0.2-0.2,0.3-0.3s0.1-0.3,0.2-0.4h1.2c0,0.4-0.2,0.7-0.4,1s-0.4,0.6-0.7,0.8
		c-0.3,0.2-0.5,0.3-0.9,0.4c-0.3,0.1-0.6,0.1-1,0.1c-0.5,0-1-0.1-1.4-0.3s-0.7-0.4-1-0.8c-0.3-0.3-0.5-0.7-0.7-1.2s-0.2-0.9-0.2-1.4
		c0-0.4,0-0.8,0.1-1.2s0.2-0.7,0.4-1c0.3-0.4,0.6-0.8,1.1-1.1c0.5-0.3,1-0.4,1.6-0.4c0.5,0,0.9,0.1,1.3,0.2c0.4,0.2,0.7,0.4,1,0.7
		c0.3,0.3,0.5,0.7,0.7,1.1C255.6,102.1,255.7,102.6,255.7,103z M254.4,102.8c0-0.3,0-0.5-0.1-0.8s-0.2-0.5-0.3-0.7
		c-0.2-0.2-0.3-0.3-0.6-0.5c-0.2-0.1-0.5-0.2-0.8-0.2c-0.3,0-0.6,0.1-0.9,0.2c-0.2,0.1-0.4,0.3-0.6,0.5s-0.3,0.4-0.4,0.7
		c-0.1,0.2-0.1,0.5-0.1,0.8H254.4z"/>
	<path class="st2" d="M261.6,101c-0.1,0-0.2,0-0.3,0c-0.1,0-0.2,0-0.3,0c-0.3,0-0.5,0.1-0.8,0.2c-0.2,0.1-0.4,0.2-0.6,0.4
		c-0.1,0.1-0.3,0.3-0.4,0.5c-0.1,0.2-0.2,0.4-0.2,0.6c0,0.2-0.1,0.4-0.1,0.6c0,0.2,0,0.4,0,0.6v3.1h-1.2v-7h1.1l0.1,1.2
		c0.2-0.4,0.5-0.8,0.9-1c0.4-0.2,0.8-0.3,1.3-0.3c0.2,0,0.4,0,0.6,0V101z"/>
	<path class="st2" d="M265.6,108.4c-0.2,0.5-0.4,0.8-0.7,1.1c-0.3,0.3-0.7,0.4-1.3,0.4c-0.3,0-0.6,0-0.7-0.1c-0.2,0-0.3-0.1-0.4-0.1
		v-1c0.1,0,0.2,0,0.3,0.1c0.1,0,0.2,0,0.3,0c0.1,0,0.2,0,0.3,0c0.3,0,0.5-0.1,0.7-0.2s0.3-0.3,0.4-0.6l0.5-1.2l-2.9-7h1.4l2.1,5.5
		l2-5.5h1.3L265.6,108.4z"/>
	<path class="st2" d="M277.6,106.9h-1.2l-1.9-5.4l-1.9,5.4h-1.2l-1.9-7h1.2l1.4,5.3l1.8-5.2h1l1.8,5.2l1.4-5.3h1.2L277.6,106.9z"/>
	<path class="st2" d="M286,106.9v-4.5c0-0.5-0.1-0.9-0.4-1.2c-0.2-0.3-0.7-0.4-1.2-0.4c-0.4,0-0.7,0.1-0.9,0.3s-0.5,0.5-0.6,0.8
		c-0.1,0.3-0.2,0.6-0.2,0.9c0,0.3,0,0.6,0,0.9v3.3h-1.2v-10h1.2v3.9c0.2-0.4,0.5-0.6,0.9-0.8c0.4-0.2,0.8-0.3,1.2-0.3
		c0.8,0,1.5,0.2,1.9,0.7c0.4,0.5,0.6,1.1,0.6,1.9v4.6H286z"/>
	<path class="st2" d="M295.6,103c0,0.1,0,0.3,0,0.4s0,0.3,0,0.4h-5.1c0,0.3,0.1,0.6,0.2,1c0.1,0.3,0.3,0.6,0.5,0.8
		c0.3,0.3,0.8,0.5,1.3,0.5c0.6,0,1-0.2,1.3-0.5c0.1-0.1,0.2-0.2,0.3-0.3c0.1-0.1,0.1-0.3,0.2-0.4h1.2c0,0.4-0.2,0.7-0.4,1
		c-0.2,0.3-0.4,0.6-0.7,0.8c-0.3,0.2-0.5,0.3-0.9,0.4c-0.3,0.1-0.6,0.1-1,0.1c-0.5,0-1-0.1-1.4-0.3s-0.7-0.4-1-0.8
		c-0.3-0.3-0.5-0.7-0.7-1.2c-0.1-0.4-0.2-0.9-0.2-1.4c0-0.4,0-0.8,0.1-1.2s0.2-0.7,0.4-1c0.3-0.4,0.6-0.8,1.1-1.1
		c0.5-0.3,1-0.4,1.6-0.4c0.5,0,0.9,0.1,1.3,0.2c0.4,0.2,0.7,0.4,1,0.7c0.3,0.3,0.5,0.7,0.7,1.1C295.5,102.1,295.6,102.6,295.6,103z
		 M294.4,102.8c0-0.3,0-0.5-0.1-0.8c-0.1-0.2-0.2-0.5-0.3-0.7c-0.2-0.2-0.3-0.3-0.6-0.5c-0.2-0.1-0.5-0.2-0.8-0.2
		c-0.3,0-0.6,0.1-0.9,0.2s-0.4,0.3-0.6,0.5c-0.2,0.2-0.3,0.4-0.4,0.7s-0.1,0.5-0.1,0.8H294.4z"/>
	<path class="st2" d="M301.6,101c-0.1,0-0.2,0-0.3,0c-0.1,0-0.2,0-0.3,0c-0.3,0-0.5,0.1-0.8,0.2c-0.2,0.1-0.4,0.2-0.6,0.4
		c-0.1,0.1-0.3,0.3-0.4,0.5c-0.1,0.2-0.2,0.4-0.2,0.6c0,0.2-0.1,0.4-0.1,0.6c0,0.2,0,0.4,0,0.6v3.1h-1.2v-7h1.1l0.1,1.2
		c0.2-0.4,0.5-0.8,0.9-1c0.4-0.2,0.8-0.3,1.3-0.3c0.2,0,0.4,0,0.6,0V101z"/>
	<path class="st2" d="M308.9,103c0,0.1,0,0.3,0,0.4s0,0.3,0,0.4h-5.1c0,0.3,0.1,0.6,0.2,1c0.1,0.3,0.3,0.6,0.5,0.8
		c0.3,0.3,0.8,0.5,1.3,0.5c0.6,0,1-0.2,1.3-0.5c0.1-0.1,0.2-0.2,0.3-0.3s0.1-0.3,0.2-0.4h1.2c0,0.4-0.2,0.7-0.4,1s-0.4,0.6-0.7,0.8
		c-0.3,0.2-0.5,0.3-0.9,0.4c-0.3,0.1-0.6,0.1-1,0.1c-0.5,0-1-0.1-1.4-0.3s-0.7-0.4-1-0.8c-0.3-0.3-0.5-0.7-0.7-1.2
		c-0.1-0.4-0.2-0.9-0.2-1.4c0-0.4,0-0.8,0.1-1.2s0.2-0.7,0.4-1c0.3-0.4,0.6-0.8,1.1-1.1c0.5-0.3,1-0.4,1.6-0.4
		c0.5,0,0.9,0.1,1.3,0.2c0.4,0.2,0.7,0.4,1,0.7c0.3,0.3,0.5,0.7,0.7,1.1C308.8,102.1,308.9,102.6,308.9,103z M307.6,102.8
		c0-0.3,0-0.5-0.1-0.8c-0.1-0.2-0.2-0.5-0.3-0.7c-0.2-0.2-0.3-0.3-0.6-0.5c-0.2-0.1-0.5-0.2-0.8-0.2c-0.3,0-0.6,0.1-0.9,0.2
		c-0.2,0.1-0.4,0.3-0.6,0.5c-0.2,0.2-0.3,0.4-0.4,0.7c-0.1,0.2-0.1,0.5-0.1,0.8H307.6z"/>
	<path class="st2" d="M310.5,106.9v-1.7h1.7v1.7H310.5z"/>
</g>
<polyline class="st3" points="31.1,70.6 31.1,52 49.7,52 49.7,70.6 31.1,70.6 "/>
<polyline class="st3" points="68.2,70.6 68.2,52 86.7,52 86.7,70.6 68.2,70.6 "/>
<rect x="49.7" y="70.6" class="st3" width="18.5" height="18.5"/>
<polyline class="st3" points="49.7,52 49.7,33.5 68.2,33.5 68.2,52 49.7,52 "/>
<polygon class="st4" points="205.5,116.4 181.1,116.4 181.1,116.4 "/>
</svg>
