<svg id="Layer_1" data-name="Layer 1" xmlns="http://www.w3.org/2000/svg" viewBox="0 0 1079.55 971.94"><defs><style>.cls-1{fill:#7a87e6}.cls-1,.cls-2,.cls-3,.cls-4,.cls-5{stroke-width:0}.cls-2{fill:#c497f6}.cls-3{fill:#3b83e4}.cls-4{fill:#612d85}.cls-5{fill:#5f318b}</style></defs><path class="cls-4" d="m89.01 332.86-45.03 77.99 90.05.01-45.02-78z"/><path class="cls-3" d="m134.04 254.87-45.03 77.99 90.06.01-45.03-78z"/><path class="cls-4" d="m224.1 254.88-90.06-.01 45.03 78 45.03-77.99z"/><path class="cls-2" d="m268.66 332.51-45.03 77.99h90.06l-45.03-77.99z"/><path class="cls-1" d="m89 488.85 90.06.01-45.03-78L89 488.85z"/><path class="cls-3" d="m43.98 410.85 45.02 78 45.03-77.99-90.05-.01z"/><path class="cls-1" d="M134.03 566.85h90.06l-45.03-77.99-45.03 77.99z"/><path class="cls-5" d="m89 488.85 45.03 78 45.03-77.99-90.06-.01z"/><path class="cls-4" d="m314.49 410.87-45.04 77.99 90.06.01-45.02-78z"/><path class="cls-5" d="m224.09 566.85 90.05.01-45.02-78-45.03 77.99z"/><path class="cls-2" d="m179.06 488.86 45.03 77.99 45.03-77.99h-90.06z"/><path class="cls-3" d="m269.12 488.86 45.02 78 45.04-77.99-90.06-.01z"/><path class="cls-4" d="m404.21 410.88-45.02-78-45.04 77.99 90.06.01z"/><path class="cls-2" d="m314.15 410.87 45.03 78 45.03-77.99-90.06-.01zM224.1 254.88l-45.03 77.99h90.06l-45.03-77.99z"/><path class="cls-1" d="M314.16 254.88H224.1l45.03 77.99 45.03-77.99z"/><path class="cls-3" d="m359.19 332.88-45.03-78-45.03 77.99 90.06.01z"/><path class="cls-1" d="m88.68 332.7 45.02 78 45.04-77.99-90.06-.01zM224.3 410.71l45.02 77.99 45.04-77.99H224.3z"/><path class="cls-1" d="m269.13 332.87 45.02 78 45.04-77.99-90.06-.01z"/><path class="cls-5" d="M443.46 475.65V330.1h27.03v145.55h-27.03ZM568.62 382.17v93.48h-27.03V330.1h21.74l71.68 95.94V330.3h26.83v145.35h-22.33l-70.9-93.48Z"/><path class="cls-3" d="M724.71 401.64c0-9.02 1.53-17.8 4.6-26.34 3.07-8.54 7.57-16.3 13.51-23.27 5.94-6.97 13.15-12.54 21.64-16.71 8.49-4.17 18.08-6.25 28.79-6.25 12.79 0 23.86 2.94 33.2 8.82 9.33 5.88 16.22 13.53 20.66 22.96l-20.57 14.96c-2.35-5.46-5.42-9.77-9.21-12.92-3.79-3.14-7.87-5.4-12.24-6.77-4.38-1.36-8.59-2.05-12.63-2.05-6.79 0-12.7 1.44-17.73 4.31-5.03 2.87-9.21 6.63-12.53 11.27-3.33 4.65-5.85 9.84-7.54 15.58-1.7 5.74-2.55 11.55-2.55 17.42 0 6.29.98 12.4 2.94 18.35 1.96 5.94 4.73 11.21 8.32 15.78 3.59 4.58 7.9 8.2 12.93 10.87 5.02 2.66 10.54 4 16.55 4 4.18 0 8.49-.75 12.93-2.26 4.44-1.5 8.55-3.89 12.34-7.17 3.79-3.28 6.86-7.59 9.21-12.92l21.94 13.53c-2.87 7.25-7.41 13.4-13.61 18.45-6.2 5.06-13.12 8.89-20.76 11.48-7.64 2.6-15.25 3.9-22.82 3.9-9.92 0-18.97-2.15-27.13-6.46-8.16-4.3-15.25-10.04-21.25-17.22-6.01-7.17-10.67-15.24-14-24.19-3.33-8.95-5-18.01-5-27.16ZM945.44 330.1h27.42l51.12 145.55h-27.81l-11.56-36.29h-51.06l-11.62 36.29h-27.81l51.31-145.55Zm32.85 89.38-19.13-60.06-19.23 60.06h38.36Z"/></svg>