<svg width="19" height="19" viewBox="0 0 19 19" fill="none" xmlns="http://www.w3.org/2000/svg">
<path d="M17.0002 1.49996C16.04 0.540009 14.7379 0.000732422 13.3802 0.000732422C12.0225 0.000732422 10.7203 0.540009 9.76018 1.49996L2.00018 9.25996C1.51333 9.73278 1.12534 10.2977 0.858765 10.9218C0.592193 11.5459 0.452362 12.2168 0.447402 12.8955C0.442443 13.5741 0.572453 14.247 0.829874 14.8749C1.0873 15.5029 1.46699 16.0734 1.94688 16.5533C2.42677 17.0331 2.99727 17.4128 3.62522 17.6703C4.25317 17.9277 4.92604 18.0577 5.60468 18.0527C6.28333 18.0478 6.95422 17.9079 7.57834 17.6414C8.20246 17.3748 8.76736 16.9868 9.24018 16.5L17.0002 8.73996C17.9601 7.7798 18.4994 6.47768 18.4994 5.11996C18.4994 3.76224 17.9601 2.46011 17.0002 1.49996ZM15.5902 7.31996L12.4102 10.5L8.00018 6.08996L11.1802 2.90996C11.7712 2.35628 12.5544 2.05411 13.3641 2.06731C14.1739 2.08052 14.9468 2.40807 15.5194 2.98072C16.0921 3.55338 16.4196 4.32627 16.4328 5.13602C16.446 5.94577 16.1439 6.72893 15.5902 7.31996Z" fill="white"/>
</svg>
