<svg width="25" height="24" viewBox="0 0 25 24" fill="none" xmlns="http://www.w3.org/2000/svg">
<path d="M21.7029 17.1094L15.8473 7.83375C15.6205 7.47389 15.5003 7.05721 15.5004 6.63188V3H16.2298C16.6334 3 16.9798 2.68969 16.9999 2.28609C17.0048 2.18465 16.989 2.08327 16.9536 1.98809C16.9181 1.89292 16.8637 1.80595 16.7936 1.73244C16.7235 1.65894 16.6392 1.60043 16.5459 1.56048C16.4525 1.52052 16.352 1.49995 16.2504 1.5H8.77149C8.3679 1.5 8.02149 1.81031 8.00133 2.21391C7.99645 2.31531 8.0122 2.41666 8.04764 2.5118C8.08308 2.60693 8.13746 2.69389 8.2075 2.76739C8.27754 2.84089 8.36177 2.8994 8.45509 2.93939C8.54841 2.97937 8.64887 2.99999 8.7504 3H9.5004V6.63188C9.50068 7.05715 9.38023 7.47377 9.15305 7.83328L3.2979 17.1094C2.95928 17.6362 2.76959 18.2448 2.74895 18.8707C2.72832 19.4966 2.87752 20.1164 3.18071 20.6644C3.80227 21.8058 5.01727 22.5 6.31899 22.5H18.6818C19.9835 22.5 21.1985 21.8058 21.8201 20.662C22.1228 20.1144 22.2718 19.495 22.2511 18.8696C22.2305 18.2441 22.0411 17.6359 21.7029 17.1094ZM10.422 8.63437C10.8003 8.03501 11.0008 7.34065 11.0004 6.63188V3.1875C11.0004 3.13777 11.0202 3.09008 11.0553 3.05492C11.0905 3.01975 11.1382 3 11.1879 3H13.8129C13.8626 3 13.9103 3.01975 13.9455 3.05492C13.9806 3.09008 14.0004 3.13777 14.0004 3.1875V6.63188C14.0001 7.34069 14.2008 8.03506 14.5793 8.63437L17.2887 12.9248C17.3245 12.9816 17.3444 13.047 17.3464 13.1141C17.3484 13.1812 17.3323 13.2476 17.2998 13.3064C17.2673 13.3651 17.2197 13.4141 17.1618 13.4482C17.1039 13.4822 17.038 13.5001 16.9709 13.5H8.02993C7.96283 13.5 7.89695 13.4821 7.83915 13.448C7.78136 13.4139 7.73378 13.3649 7.70136 13.3062C7.66895 13.2474 7.65289 13.181 7.65486 13.114C7.65684 13.0469 7.67677 12.9816 7.71258 12.9248L10.422 8.63437Z" fill="white"/>
</svg>
