<svg width="40" height="40" viewBox="0 0 40 40" fill="none" xmlns="http://www.w3.org/2000/svg">
<path d="M31.6668 6.66699H30.0002V8.33286C30.0002 9.25333 29.254 9.99953 28.3335 9.99953C27.413 9.99953 26.6668 9.25333 26.6668 8.33286V6.66699H13.3335V8.33286C13.3335 9.25333 12.5873 9.99953 11.6668 9.99953C10.7464 9.99953 10.0002 9.25333 10.0002 8.33286V6.66699H8.3335C5.57208 6.66699 3.3335 8.90558 3.3335 11.667V15.0003H36.6668V11.667C36.6668 8.90558 34.4282 6.66699 31.6668 6.66699Z" fill="#5250da"/>
<path d="M11.6668 23.3333C12.5873 23.3333 13.3335 22.5871 13.3335 21.6666C13.3335 20.7461 12.5873 19.9999 11.6668 19.9999C10.7464 19.9999 10.0002 20.7461 10.0002 21.6666C10.0002 22.5871 10.7464 23.3333 11.6668 23.3333Z" fill="#5250da"/>
<path d="M20.0002 23.3333C20.9206 23.3333 21.6668 22.5871 21.6668 21.6666C21.6668 20.7461 20.9206 19.9999 20.0002 19.9999C19.0797 19.9999 18.3335 20.7461 18.3335 21.6666C18.3335 22.5871 19.0797 23.3333 20.0002 23.3333Z" fill="#5250da"/>
<path d="M11.6668 29.9999C12.5873 29.9999 13.3335 29.2537 13.3335 28.3333C13.3335 27.4128 12.5873 26.6666 11.6668 26.6666C10.7464 26.6666 10.0002 27.4128 10.0002 28.3333C10.0002 29.2537 10.7464 29.9999 11.6668 29.9999Z" fill="#5250da"/>
<path d="M20.0002 29.9999C20.9206 29.9999 21.6668 29.2537 21.6668 28.3333C21.6668 27.4128 20.9206 26.6666 20.0002 26.6666C19.0797 26.6666 18.3335 27.4128 18.3335 28.3333C18.3335 29.2537 19.0797 29.9999 20.0002 29.9999Z" fill="#5250da"/>
<path d="M28.3335 23.3333C29.254 23.3333 30.0002 22.5871 30.0002 21.6666C30.0002 20.7461 29.254 19.9999 28.3335 19.9999C27.413 19.9999 26.6668 20.7461 26.6668 21.6666C26.6668 22.5871 27.413 23.3333 28.3335 23.3333Z" fill="#5250da"/>
<path d="M28.3335 29.9999C29.254 29.9999 30.0002 29.2537 30.0002 28.3333C30.0002 27.4128 29.254 26.6666 28.3335 26.6666C27.413 26.6666 26.6668 27.4128 26.6668 28.3333C26.6668 29.2537 27.413 29.9999 28.3335 29.9999Z" fill="#5250da"/>
<g opacity="0.4">
<path d="M10.0002 8.33491C10.0007 9.25486 10.7469 10.0002 11.6668 9.99967H11.6687C12.5887 9.99916 13.334 9.25296 13.3335 8.33301V4.99967C13.3335 4.07921 12.5873 3.33301 11.6668 3.33301C10.7464 3.33301 10.0002 4.07921 10.0002 4.99967V8.33491Z" fill="#5250da"/>
<path d="M26.6668 8.33491C26.6673 9.25486 27.4135 10.0002 28.3335 9.99967H28.3354C29.2553 9.99916 30.0007 9.25296 30.0002 8.33301V4.99967C30.0002 4.07921 29.254 3.33301 28.3335 3.33301C27.413 3.33301 26.6668 4.07921 26.6668 4.99967V8.33491Z" fill="#5250da"/>
<path fill-rule="evenodd" clip-rule="evenodd" d="M3.3335 31.6672V15.0005H36.6668V31.6672C36.6668 34.4286 34.4282 36.6672 31.6668 36.6672H8.3335C5.57208 36.6672 3.3335 34.4286 3.3335 31.6672ZM10.0002 28.3338C10.0002 29.2543 10.7464 30.0005 11.6668 30.0005C12.5873 30.0005 13.3335 29.2543 13.3335 28.3338C13.3335 27.4134 12.5873 26.6672 11.6668 26.6672C10.7464 26.6672 10.0002 27.4134 10.0002 28.3338ZM10.0002 21.6672C10.0002 22.5876 10.7464 23.3338 11.6668 23.3338C12.5873 23.3338 13.3335 22.5876 13.3335 21.6672C13.3335 20.7467 12.5873 20.0005 11.6668 20.0005C10.7464 20.0005 10.0002 20.7467 10.0002 21.6672ZM18.3335 28.3338C18.3335 29.2543 19.0797 30.0005 20.0002 30.0005C20.9206 30.0005 21.6668 29.2543 21.6668 28.3338C21.6668 27.4134 20.9206 26.6672 20.0002 26.6672C19.0797 26.6672 18.3335 27.4134 18.3335 28.3338ZM18.3335 21.6672C18.3335 22.5876 19.0797 23.3338 20.0002 23.3338C20.9206 23.3338 21.6668 22.5876 21.6668 21.6672C21.6668 20.7467 20.9206 20.0005 20.0002 20.0005C19.0797 20.0005 18.3335 20.7467 18.3335 21.6672ZM26.6668 28.3338C26.6668 29.2543 27.413 30.0005 28.3335 30.0005C29.254 30.0005 30.0002 29.2543 30.0002 28.3338C30.0002 27.4134 29.254 26.6672 28.3335 26.6672C27.413 26.6672 26.6668 27.4134 26.6668 28.3338ZM26.6668 21.6672C26.6668 22.5876 27.413 23.3338 28.3335 23.3338C29.254 23.3338 30.0002 22.5876 30.0002 21.6672C30.0002 20.7467 29.254 20.0005 28.3335 20.0005C27.413 20.0005 26.6668 20.7467 26.6668 21.6672Z" fill="#5250da"/>
</g>
</svg>
