<svg width="86" height="86" viewBox="0 0 86 86" fill="none" xmlns="http://www.w3.org/2000/svg">
<path d="M19.8589 85.3281C9.2791 85.3281 0.671875 76.7209 0.671875 66.1411V19.8589C0.671875 9.2791 9.2791 0.671875 19.8589 0.671875H66.1411C76.7209 0.671875 85.3281 9.2791 85.3281 19.8589V66.1411C85.3281 76.7209 76.7209 85.3281 66.1411 85.3281H19.8589Z" fill="url(#paint0_linear)"/>
<path opacity="0.3" d="M58.6873 63.4184H28.0501C26.7093 63.4184 25.6226 62.3442 25.6226 61.0188V22.1281C25.6226 20.8028 26.7093 19.7285 28.0501 19.7285H58.6873C60.028 19.7285 61.1148 20.8028 61.1148 22.1281V61.0188C61.1148 62.344 60.028 63.4184 58.6873 63.4184Z" fill="#1A1A1A"/>
<path d="M57.9502 62.6899H27.313C25.9723 62.6899 24.8855 61.6156 24.8855 60.2903V21.3996C24.8855 20.0743 25.9723 19 27.313 19H57.9502C59.2909 19 60.3777 20.0743 60.3777 21.3996V60.2903C60.3777 61.6155 59.2909 62.6899 57.9502 62.6899Z" fill="url(#paint1_linear)"/>
<path d="M57.9503 57.8906H27.313C25.9723 57.8906 24.8855 58.9649 24.8855 60.2902C24.8855 61.6155 25.9723 62.6898 27.313 62.6898H57.9502C59.2909 62.6898 60.3777 61.6154 60.3777 60.2902V57.8906V55.491C60.3777 56.8162 59.2909 57.8904 57.9503 57.8906Z" fill="url(#paint2_linear)"/>
<path d="M57.9505 58.3871H26.8945V60.2901C26.8945 60.8386 27.3442 61.2831 27.8991 61.2831H56.9458C57.5006 61.2831 57.9503 60.8386 57.9503 60.2901L57.9505 58.3871Z" fill="url(#paint3_linear)"/>
<path d="M57.9502 62.1935H27.313C26.2514 62.1935 25.3877 61.3399 25.3877 60.2903C25.3877 59.2408 26.2513 58.3871 27.313 58.3871H57.9505C59.7918 58.3871 60.3777 57.0115 60.3777 55.4911C60.3777 56.8163 59.2909 57.8906 57.9503 57.8907H27.313C25.9723 57.8907 24.8855 58.965 24.8855 60.2903C24.8855 61.6157 25.9723 62.69 27.313 62.69H57.9502C59.2909 62.69 60.3777 61.6155 60.3777 60.2903V59.987C60.3777 59.987 60.1684 62.1935 57.9502 62.1935Z" fill="url(#paint4_linear)"/>
<path d="M57.9504 58.3872H26.8948V58.7389H57.9504V58.3872Z" fill="#808080"/>
<path opacity="0.5" d="M57.1958 60.2903H27.8987V60.6591H57.1958V60.2903Z" fill="#B3B3B3"/>
<path opacity="0.5" d="M55.1113 67L50.9397 64.251L46.7683 67V59.8876H55.1113V67Z" fill="#333333"/>
<path d="M54.6855 66.579L50.5141 63.83L46.3425 66.579V59.4666H54.6855V66.579Z" fill="url(#paint5_linear)"/>
<path opacity="0.5" d="M57.1958 59.4669H27.8987V59.8357H57.1958V59.4669Z" fill="#B3B3B3"/>
<path d="M27.313 57.8907H36.1023V19H27.313C25.9723 19 24.8855 20.0744 24.8855 21.3996V60.2903C24.8855 58.965 25.9723 57.8907 27.313 57.8907Z" fill="url(#paint6_linear)"/>
<defs>
<linearGradient id="paint0_linear" x1="43" y1="1.49862" x2="43" y2="85.8304" gradientUnits="userSpaceOnUse">
<stop stop-color="#85D8BD"/>
<stop offset="1" stop-color="#A2AF5F"/>
</linearGradient>
<linearGradient id="paint1_linear" x1="24.4628" y1="40.845" x2="60.2411" y2="40.845" gradientUnits="userSpaceOnUse">
<stop stop-color="#B83138"/>
<stop offset="1" stop-color="#D82F36"/>
</linearGradient>
<linearGradient id="paint2_linear" x1="25.8719" y1="59.0904" x2="61.6473" y2="59.0904" gradientUnits="userSpaceOnUse">
<stop offset="0.006" stop-color="#1A1A1A"/>
<stop offset="0.141" stop-color="#202020"/>
<stop offset="0.607" stop-color="#2E2E2E"/>
<stop offset="1" stop-color="#333333"/>
</linearGradient>
<linearGradient id="paint3_linear" x1="42.4225" y1="58.4149" x2="42.4225" y2="61.2999" gradientUnits="userSpaceOnUse">
<stop stop-color="#E6E6E6"/>
<stop offset="1" stop-color="white"/>
</linearGradient>
<linearGradient id="paint4_linear" x1="24.8855" y1="59.0905" x2="60.3777" y2="59.0905" gradientUnits="userSpaceOnUse">
<stop stop-color="#471316"/>
<stop offset="1" stop-color="#67171A"/>
</linearGradient>
<linearGradient id="paint5_linear" x1="50.514" y1="59.5981" x2="50.514" y2="66.1447" gradientUnits="userSpaceOnUse">
<stop stop-color="#F7601E"/>
<stop offset="0.087" stop-color="#F87425"/>
<stop offset="0.367" stop-color="#FBB03B"/>
<stop offset="1" stop-color="#FBB03B"/>
</linearGradient>
<linearGradient id="paint6_linear" x1="24.7517" y1="39.6452" x2="36.0587" y2="39.6452" gradientUnits="userSpaceOnUse">
<stop offset="0.006" stop-color="#1A1A1A"/>
<stop offset="0.041" stop-color="#202020"/>
<stop offset="0.159" stop-color="#2E2E2E"/>
<stop offset="0.259" stop-color="#333333"/>
<stop offset="1" stop-color="#1A1A1A"/>
</linearGradient>
</defs>
</svg>
