<svg width="40" height="40" viewBox="0 0 40 40" fill="none" xmlns="http://www.w3.org/2000/svg">
<path d="M31.6667 6.66699H30V8.33286C30 9.25333 29.2538 9.99953 28.3334 9.99953C27.4129 9.99953 26.6667 9.25333 26.6667 8.33286V6.66699H13.3334V8.33286C13.3334 9.25333 12.5872 9.99953 11.6667 9.99953C10.7462 9.99953 10 9.25333 10 8.33286V6.66699H8.33337C5.57196 6.66699 3.33337 8.90558 3.33337 11.667V15.0003H36.6667V11.667C36.6667 8.90558 34.4281 6.66699 31.6667 6.66699Z" fill="#3498DB"/>
<path d="M11.6667 23.3333C12.5872 23.3333 13.3334 22.5871 13.3334 21.6666C13.3334 20.7461 12.5872 19.9999 11.6667 19.9999C10.7462 19.9999 10 20.7461 10 21.6666C10 22.5871 10.7462 23.3333 11.6667 23.3333Z" fill="#3498DB"/>
<path d="M20 23.3333C20.9205 23.3333 21.6667 22.5871 21.6667 21.6666C21.6667 20.7461 20.9205 19.9999 20 19.9999C19.0796 19.9999 18.3334 20.7461 18.3334 21.6666C18.3334 22.5871 19.0796 23.3333 20 23.3333Z" fill="#3498DB"/>
<path d="M11.6667 29.9999C12.5872 29.9999 13.3334 29.2537 13.3334 28.3333C13.3334 27.4128 12.5872 26.6666 11.6667 26.6666C10.7462 26.6666 10 27.4128 10 28.3333C10 29.2537 10.7462 29.9999 11.6667 29.9999Z" fill="#3498DB"/>
<path d="M20 29.9999C20.9205 29.9999 21.6667 29.2537 21.6667 28.3333C21.6667 27.4128 20.9205 26.6666 20 26.6666C19.0796 26.6666 18.3334 27.4128 18.3334 28.3333C18.3334 29.2537 19.0796 29.9999 20 29.9999Z" fill="#3498DB"/>
<path d="M28.3334 23.3333C29.2538 23.3333 30 22.5871 30 21.6666C30 20.7461 29.2538 19.9999 28.3334 19.9999C27.4129 19.9999 26.6667 20.7461 26.6667 21.6666C26.6667 22.5871 27.4129 23.3333 28.3334 23.3333Z" fill="#3498DB"/>
<path d="M28.3334 29.9999C29.2538 29.9999 30 29.2537 30 28.3333C30 27.4128 29.2538 26.6666 28.3334 26.6666C27.4129 26.6666 26.6667 27.4128 26.6667 28.3333C26.6667 29.2537 27.4129 29.9999 28.3334 29.9999Z" fill="#3498DB"/>
<g opacity="0.4">
<path d="M10 8.33491C10.0006 9.25486 10.7468 10.0002 11.6667 9.99967H11.6686C12.5886 9.99916 13.3339 9.25296 13.3334 8.33301V4.99967C13.3334 4.07921 12.5872 3.33301 11.6667 3.33301C10.7462 3.33301 10 4.07921 10 4.99967V8.33491Z" fill="#3498DB"/>
<path d="M26.6667 8.33491C26.6672 9.25486 27.4134 10.0002 28.3334 9.99967H28.3353C29.2552 9.99916 30.0006 9.25296 30 8.33301V4.99967C30 4.07921 29.2538 3.33301 28.3334 3.33301C27.4129 3.33301 26.6667 4.07921 26.6667 4.99967V8.33491Z" fill="#3498DB"/>
<path fill-rule="evenodd" clip-rule="evenodd" d="M3.33337 31.6672V15.0005H36.6667V31.6672C36.6667 34.4286 34.4281 36.6672 31.6667 36.6672H8.33337C5.57196 36.6672 3.33337 34.4286 3.33337 31.6672ZM10 28.3338C10 29.2543 10.7462 30.0005 11.6667 30.0005C12.5872 30.0005 13.3334 29.2543 13.3334 28.3338C13.3334 27.4134 12.5872 26.6672 11.6667 26.6672C10.7462 26.6672 10 27.4134 10 28.3338ZM10 21.6672C10 22.5876 10.7462 23.3338 11.6667 23.3338C12.5872 23.3338 13.3334 22.5876 13.3334 21.6672C13.3334 20.7467 12.5872 20.0005 11.6667 20.0005C10.7462 20.0005 10 20.7467 10 21.6672ZM18.3334 28.3338C18.3334 29.2543 19.0796 30.0005 20 30.0005C20.9205 30.0005 21.6667 29.2543 21.6667 28.3338C21.6667 27.4134 20.9205 26.6672 20 26.6672C19.0796 26.6672 18.3334 27.4134 18.3334 28.3338ZM18.3334 21.6672C18.3334 22.5876 19.0796 23.3338 20 23.3338C20.9205 23.3338 21.6667 22.5876 21.6667 21.6672C21.6667 20.7467 20.9205 20.0005 20 20.0005C19.0796 20.0005 18.3334 20.7467 18.3334 21.6672ZM26.6667 28.3338C26.6667 29.2543 27.4129 30.0005 28.3334 30.0005C29.2538 30.0005 30 29.2543 30 28.3338C30 27.4134 29.2538 26.6672 28.3334 26.6672C27.4129 26.6672 26.6667 27.4134 26.6667 28.3338ZM26.6667 21.6672C26.6667 22.5876 27.4129 23.3338 28.3334 23.3338C29.2538 23.3338 30 22.5876 30 21.6672C30 20.7467 29.2538 20.0005 28.3334 20.0005C27.4129 20.0005 26.6667 20.7467 26.6667 21.6672Z" fill="#3498DB"/>
</g>
</svg>
