<svg width="86" height="86" viewBox="0 0 86 86" fill="none" xmlns="http://www.w3.org/2000/svg">
<path d="M19.8589 85.3281C9.2791 85.3281 0.671875 76.7209 0.671875 66.1411V19.8589C0.671875 9.2791 9.2791 0.671875 19.8589 0.671875H66.1411C76.7209 0.671875 85.3281 9.2791 85.3281 19.8589V66.1411C85.3281 76.7209 76.7209 85.3281 66.1411 85.3281H19.8589Z" fill="url(#paint0_linear)"/>
<path d="M64.8677 63.3765H21.1321C19.9546 63.3765 19 62.4219 19 61.2444V25.9445C19 24.767 19.9546 23.8124 21.1321 23.8124H64.8679C66.0454 23.8124 67 24.767 67 25.9445V61.2445C66.9999 62.4219 66.0453 63.3765 64.8677 63.3765Z" fill="url(#paint1_linear)"/>
<path d="M64.8677 61.5642H21.1321C19.9546 61.5642 19 60.6096 19 59.432V24.1321C19 22.9546 19.9546 22 21.1321 22H64.8679C66.0454 22 67 22.9546 67 24.1321V59.4321C66.9999 60.6095 66.0453 61.5642 64.8677 61.5642Z" fill="white"/>
<path d="M66.7207 24.1316V59.4326C66.7207 60.4545 65.8897 61.2854 64.8678 61.2854H21.1319C20.11 61.2854 19.2791 60.4545 19.2791 59.4326V24.1316C19.2791 23.1096 20.11 22.2787 21.1319 22.2787H64.8678C65.8897 22.2787 66.7207 23.1096 66.7207 24.1316Z" fill="url(#paint2_linear)"/>
<path d="M56.4748 51.4021C55.2972 51.4021 54.3428 52.3567 54.3428 53.5342L55.6871 61.5642L65.6555 51.4021H56.4748Z" fill="#CCCCCC"/>
<path d="M66.7208 50.5308V59.4327C66.7208 60.4546 65.8898 61.2856 64.8679 61.2856H55.9659L66.7208 50.5308Z" fill="url(#paint3_linear)"/>
<path d="M66.9999 32.1075V24.1321C66.9999 22.9546 66.0453 22 64.8677 22H21.1321C19.9546 22 19 22.9546 19 24.1321V32.1075H66.9999Z" fill="#ED6E8F"/>
<path d="M30.5804 30.3498C31.5814 30.3498 32.3928 29.5383 32.3928 28.5373C32.3928 27.5363 31.5814 26.7249 30.5804 26.7249C29.5794 26.7249 28.7679 27.5363 28.7679 28.5373C28.7679 29.5383 29.5794 30.3498 30.5804 30.3498Z" fill="#333333"/>
<path d="M30.5804 37.3025C31.5814 37.3025 32.3928 36.4911 32.3928 35.4901C32.3928 34.4891 31.5814 33.6776 30.5804 33.6776C29.5794 33.6776 28.7679 34.4891 28.7679 35.4901C28.7679 36.4911 29.5794 37.3025 30.5804 37.3025Z" fill="#333333"/>
<path d="M30.58 36.369C29.7715 36.369 29.1161 35.7136 29.1161 34.9051V29.1407C29.1161 28.3322 29.7715 27.6768 30.58 27.6768C31.3885 27.6768 32.0439 28.3322 32.0439 29.1407V34.9051C32.0439 35.7136 31.3885 36.369 30.58 36.369Z" fill="url(#paint4_linear)"/>
<path d="M55.4193 30.3498C56.4203 30.3498 57.2317 29.5383 57.2317 28.5373C57.2317 27.5363 56.4203 26.7249 55.4193 26.7249C54.4183 26.7249 53.6068 27.5363 53.6068 28.5373C53.6068 29.5383 54.4183 30.3498 55.4193 30.3498Z" fill="#333333"/>
<path d="M55.4193 37.3025C56.4203 37.3025 57.2317 36.4911 57.2317 35.4901C57.2317 34.4891 56.4203 33.6776 55.4193 33.6776C54.4183 33.6776 53.6068 34.4891 53.6068 35.4901C53.6068 36.4911 54.4183 37.3025 55.4193 37.3025Z" fill="#333333"/>
<path d="M55.4198 36.369C54.6113 36.369 53.9559 35.7136 53.9559 34.9051V29.1407C53.9559 28.3322 54.6113 27.6768 55.4198 27.6768C56.2283 27.6768 56.8837 28.3322 56.8837 29.1407V34.9051C56.8837 35.7136 56.2283 36.369 55.4198 36.369Z" fill="url(#paint5_linear)"/>
<path d="M57.8191 50.2513C56.6416 50.2513 55.6871 51.2059 55.6871 52.3835V61.5641L66.9999 50.2513H57.8191Z" fill="url(#paint6_linear)"/>
<path d="M35.6023 42.2163H35.5596L32.9239 43.4705L32.3925 41.0473L36.0487 39.3468H38.727V53.1637H35.6023V42.2163Z" fill="#4D4D4D"/>
<path d="M52.0982 41.6425C51.7369 41.6213 51.3542 41.6425 50.844 41.685C47.9742 41.9188 46.6989 43.3855 46.3374 45.0011H46.4013C47.0815 44.2997 48.0381 43.8958 49.3347 43.8958C51.6518 43.8958 53.6073 45.5326 53.6073 48.4022C53.6073 51.1443 51.5029 53.3976 48.5057 53.3976C44.8282 53.3976 43.0215 50.6554 43.0215 47.3606C43.0215 44.7673 43.978 42.599 45.4661 41.2174C46.8476 39.9632 48.6333 39.283 50.8014 39.1767C51.3967 39.1342 51.7793 39.1342 52.0982 39.1554V41.6425ZM50.3339 48.5723C50.3339 47.2969 49.6537 46.1916 48.2719 46.1916C47.4002 46.1916 46.6776 46.7229 46.3588 47.4245C46.2736 47.5946 46.2312 47.8497 46.2312 48.2323C46.2951 49.699 46.9966 51.0169 48.4633 51.0169C49.6111 51.0169 50.3339 49.9752 50.3339 48.5723Z" fill="#4D4D4D"/>
<path d="M35.6023 41.6587H35.5596L32.9239 42.9129L32.3925 40.4897L36.0487 38.7892H38.727V52.6061H35.6023V41.6587Z" fill="#60605F"/>
<path d="M52.0982 41.0849C51.7369 41.0637 51.3542 41.0849 50.844 41.1274C47.9742 41.3612 46.6989 42.8279 46.3374 44.4435H46.4013C47.0815 43.7421 48.0381 43.3382 49.3347 43.3382C51.6518 43.3382 53.6073 44.975 53.6073 47.8446C53.6073 50.5867 51.5029 52.84 48.5057 52.84C44.8282 52.84 43.0215 50.0978 43.0215 46.803C43.0215 44.2097 43.978 42.0414 45.4661 40.6598C46.8476 39.4056 48.6333 38.7253 50.8014 38.6191C51.3967 38.5766 51.7793 38.5766 52.0982 38.5978V41.0849ZM50.3339 48.0147C50.3339 46.7393 49.6537 45.634 48.2719 45.634C47.4002 45.634 46.6776 46.1653 46.3588 46.8669C46.2736 47.037 46.2312 47.2921 46.2312 47.6747C46.2951 49.1414 46.9966 50.4593 48.4633 50.4593C49.6111 50.4593 50.3339 49.4176 50.3339 48.0147Z" fill="#60605F"/>
<defs>
<linearGradient id="paint0_linear" x1="43" y1="1.49862" x2="43" y2="85.8304" gradientUnits="userSpaceOnUse">
<stop stop-color="#A8EA7D"/>
<stop offset="0.991" stop-color="#06B587"/>
</linearGradient>
<linearGradient id="paint1_linear" x1="43" y1="62.5555" x2="43" y2="33.6385" gradientUnits="userSpaceOnUse">
<stop stop-color="#CCCCCC"/>
<stop offset="1" stop-color="#9C9C9C"/>
</linearGradient>
<linearGradient id="paint2_linear" x1="37.5095" y1="36.2917" x2="59.8431" y2="58.6253" gradientUnits="userSpaceOnUse">
<stop stop-color="#F2F2F2"/>
<stop offset="0.995" stop-color="#E6E6E6"/>
</linearGradient>
<linearGradient id="paint3_linear" x1="61.229" y1="55.7938" x2="65.986" y2="60.5508" gradientUnits="userSpaceOnUse">
<stop stop-color="white"/>
<stop offset="1" stop-color="#CCCCCC"/>
</linearGradient>
<linearGradient id="paint4_linear" x1="29.1723" y1="32.0229" x2="32.1001" y2="32.0229" gradientUnits="userSpaceOnUse">
<stop stop-color="#666666"/>
<stop offset="0.5" stop-color="#B3B3B3"/>
<stop offset="1" stop-color="#666666"/>
</linearGradient>
<linearGradient id="paint5_linear" x1="54.0127" y1="32.0229" x2="56.9405" y2="32.0229" gradientUnits="userSpaceOnUse">
<stop stop-color="#666666"/>
<stop offset="0.5" stop-color="#B3B3B3"/>
<stop offset="1" stop-color="#666666"/>
</linearGradient>
<linearGradient id="paint6_linear" x1="56.1927" y1="50.7569" x2="61.1449" y2="55.7091" gradientUnits="userSpaceOnUse">
<stop stop-color="white"/>
<stop offset="0.401" stop-color="#FDFDFD"/>
<stop offset="0.589" stop-color="#F6F6F6"/>
<stop offset="0.732" stop-color="#E9E9E9"/>
<stop offset="0.852" stop-color="#D6D6D6"/>
<stop offset="0.957" stop-color="#BFBFBF"/>
<stop offset="0.999" stop-color="#B3B3B3"/>
</linearGradient>
</defs>
</svg>
