<?xml version="1.0" encoding="UTF-8"?>
<svg xmlns="http://www.w3.org/2000/svg" xmlns:xlink="http://www.w3.org/1999/xlink" width="30px" height="30px" viewBox="0 0 30 30" version="1.1">
<g id="surface1">
<path style=" stroke:none;fill-rule:nonzero;fill:rgb(28.235294%,26.27451%,26.27451%);fill-opacity:1;" d="M 24.375 10.363281 L 24.375 7.402344 C 24.375 3.257812 20.25 0 15 0 C 9.75 0 5.625 3.257812 5.625 7.402344 L 5.625 10.363281 C 2.4375 10.363281 0 12.285156 0 14.800781 L 0 25.164062 C 0 27.679688 2.4375 29.605469 5.625 29.605469 L 24.375 29.605469 C 27.5625 29.605469 30 27.679688 30 25.164062 L 30 14.800781 C 30 12.285156 27.5625 10.363281 24.375 10.363281 Z M 9.375 7.402344 C 9.375 4.886719 11.8125 2.960938 15 2.960938 C 18.1875 2.960938 20.625 4.886719 20.625 7.402344 L 20.625 10.363281 L 9.375 10.363281 Z M 17.0625 19.984375 L 16.875 20.132812 L 16.875 22.203125 C 16.875 23.09375 16.125 23.683594 15 23.683594 C 13.875 23.683594 13.125 23.09375 13.125 22.203125 L 13.125 20.132812 C 12 19.242188 11.8125 17.910156 12.9375 17.023438 C 14.0625 16.136719 15.75 15.988281 16.875 16.875 C 18 17.613281 18.1875 19.09375 17.0625 19.984375 Z M 17.0625 19.984375 "/>
</g>
</svg>
