<svg width="30" height="38" viewBox="0 0 30 38" fill="none" xmlns="http://www.w3.org/2000/svg">
<path d="M24.375 13.125V9.375C24.375 4.125 20.25 0 15 0C9.75 0 5.625 4.125 5.625 9.375V13.125C2.4375 13.125 0 15.5625 0 18.75V31.875C0 35.0625 2.4375 37.5 5.625 37.5H24.375C27.5625 37.5 30 35.0625 30 31.875V18.75C30 15.5625 27.5625 13.125 24.375 13.125ZM9.375 9.375C9.375 6.1875 11.8125 3.75 15 3.75C18.1875 3.75 20.625 6.1875 20.625 9.375V13.125H9.375V9.375ZM17.0625 25.3125L16.875 25.5V28.125C16.875 29.25 16.125 30 15 30C13.875 30 13.125 29.25 13.125 28.125V25.5C12 24.375 11.8125 22.6875 12.9375 21.5625C14.0625 20.4375 15.75 20.25 16.875 21.375C18 22.3125 18.1875 24.1875 17.0625 25.3125Z" fill="#484343"/>
</svg>
