<?xml version="1.0" encoding="utf-8"?>
<!-- Generator: Adobe Illustrator 25.4.1, SVG Export Plug-In . SVG Version: 6.00 Build 0)  -->
<svg version="1.1" id="Capa_1" xmlns="http://www.w3.org/2000/svg" xmlns:xlink="http://www.w3.org/1999/xlink" x="0px" y="0px"
	 viewBox="0 0 21 15" style="enable-background:new 0 0 21 15;" xml:space="preserve">
<style type="text/css">
	.st0{fill:#27AE60;}
</style>
<path class="st0" d="M20.4,2.7c-0.1-0.1-0.2-0.2-0.4-0.3c-0.2-0.1-0.3-0.1-0.5-0.1H5.3L5,0.6c0-0.2-0.1-0.3-0.3-0.4
	C4.6,0.1,4.4,0,4.2,0h-3C1.1,0,0.9,0.1,0.7,0.2C0.6,0.4,0.5,0.6,0.5,0.7s0.1,0.4,0.2,0.5s0.3,0.2,0.5,0.2h2.4l2.1,12.1
	c0,0.2,0.1,0.3,0.3,0.4c0.1,0.1,0.3,0.2,0.5,0.2h12c0.2,0,0.4-0.1,0.5-0.2c0.1-0.1,0.2-0.3,0.2-0.5S19.2,13.1,19,13
	c-0.1-0.1-0.3-0.2-0.5-0.2H7.1l-0.3-1.5h11.3c0.3,0,0.5-0.1,0.7-0.3c0.2-0.2,0.3-0.4,0.4-0.6l1.4-6.8c0-0.2,0-0.3,0-0.5
	C20.6,2.9,20.5,2.8,20.4,2.7z"/>
</svg>
