<svg width="16" height="16" viewBox="0 0 16 16" fill="none" xmlns="http://www.w3.org/2000/svg">
<g clip-path="url(#clip0_2_39128)">
<path d="M12.8913 10.6743C13.106 10.4703 13.277 10.2248 13.3939 9.95273C13.5107 9.68061 13.571 9.38756 13.571 9.09141C13.571 8.79526 13.5107 8.50221 13.3939 8.2301C13.277 7.95798 13.106 7.71248 12.8913 7.50855C12.4517 7.09135 11.8688 6.85875 11.2627 6.85875C10.6567 6.85875 10.0737 7.09135 9.63414 7.50855L7.99986 9.14284L6.36557 7.50855C5.92599 7.09135 5.34305 6.85875 4.737 6.85875C4.13095 6.85875 3.54801 7.09135 3.10843 7.50855C2.89368 7.71248 2.72268 7.95798 2.60583 8.2301C2.48897 8.50221 2.42871 8.79526 2.42871 9.09141C2.42871 9.38756 2.48897 9.68061 2.60583 9.95273C2.72268 10.2248 2.89368 10.4703 3.10843 10.6743L7.99986 15.4286L12.8913 10.6743ZM7.99986 5.14284C8.60607 5.14284 9.18745 4.90202 9.6161 4.47337C10.0448 4.04471 10.2856 3.46333 10.2856 2.85713C10.2856 2.25092 10.0448 1.66954 9.6161 1.24088C9.18745 0.812227 8.60607 0.571411 7.99986 0.571411C7.39365 0.571411 6.81227 0.812227 6.38361 1.24088C5.95496 1.66954 5.71414 2.25092 5.71414 2.85713C5.71414 3.46333 5.95496 4.04471 6.38361 4.47337C6.81227 4.90202 7.39365 5.14284 7.99986 5.14284Z" stroke="#2C3E50" stroke-width="1.42857" stroke-linecap="round" stroke-linejoin="round"/>
</g>
<defs>
<clipPath id="clip0_2_39128">
<rect width="16" height="16" fill="white"/>
</clipPath>
</defs>
</svg>
