<svg width="100" height="101" viewBox="0 0 100 101" fill="none" xmlns="http://www.w3.org/2000/svg">
<g clip-path="url(#clip0)">
<rect opacity="0.5" y="0.158203" width="100" height="100" rx="20" fill="#2ECC71"/>
<rect x="16" y="16.1582" width="68" height="68" rx="34" fill="#2ECC71"/>
<path d="M36.0024 67.6582C35.4711 67.6557 34.9624 67.4426 34.5879 67.0657C34.2134 66.6887 34.0037 66.1786 34.0048 65.6473C34.0094 65.4453 34.041 65.2448 34.0985 65.0512L35.5376 59.8457C35.5977 59.6535 35.5298 59.4598 35.4415 59.3066L35.4243 59.2754C35.4181 59.2652 35.3884 59.2238 35.3673 59.1934C35.3462 59.1629 35.322 59.1301 35.3001 59.098L35.2852 59.077C33.4682 56.3229 32.4997 53.096 32.5001 49.7965C32.486 45.2973 34.2462 41.0465 37.4579 37.8215C40.7813 34.4918 45.2266 32.6582 49.986 32.6582C54.0235 32.6562 57.9413 34.0295 61.0938 36.552C64.1759 39.0324 66.318 42.4895 67.1259 46.2926C67.3745 47.4479 67.4997 48.6264 67.4993 49.8082C67.4993 54.4121 65.7305 58.7363 62.518 61.9855C59.2774 65.2668 54.9259 67.0684 50.2657 67.0684C48.6251 67.0684 46.5259 66.6496 45.5181 66.3652C44.3056 66.0262 43.1563 65.584 43.0298 65.5371C42.8958 65.4858 42.7537 65.4593 42.6102 65.459C42.4547 65.458 42.3005 65.4886 42.1571 65.5488L42.0907 65.5746L36.8188 67.4793C36.5599 67.5883 36.2832 67.6489 36.0024 67.6582Z" fill="white"/>
</g>
<defs>
<clipPath id="clip0">
<rect width="100" height="100" fill="white" transform="translate(0 0.158203)"/>
</clipPath>
</defs>
</svg>
