<svg width="17" height="17" viewBox="0 0 17 17" fill="none" xmlns="http://www.w3.org/2000/svg">
<g clip-path="url(#clip0_707_6264)">
<path d="M5.83331 5.46093C5.72798 5.38044 5.5956 5.34382 5.46388 5.35873C5.33216 5.37364 5.21132 5.43893 5.12665 5.54093L4.12665 6.77426L3.51998 6.1676C3.47421 6.11847 3.41901 6.07907 3.35767 6.05174C3.29634 6.02441 3.23013 6.00972 3.163 6.00853C3.09586 6.00735 3.02917 6.0197 2.96692 6.04485C2.90466 6.06999 2.8481 6.10742 2.80062 6.1549C2.75314 6.20238 2.71571 6.25894 2.69057 6.3212C2.66542 6.38346 2.65307 6.45014 2.65425 6.51728C2.65544 6.58441 2.67013 6.65062 2.69746 6.71195C2.72479 6.77329 2.76419 6.82849 2.81331 6.87426L3.83331 7.85426C3.88099 7.90203 3.93763 7.93994 3.99997 7.9658C4.06232 7.99165 4.12915 8.00497 4.19665 8.00497C4.26414 8.00497 4.33098 7.99165 4.39332 7.9658C4.45567 7.93994 4.5123 7.90203 4.55998 7.85426L5.89331 6.1876C5.93737 6.13607 5.97078 6.07633 5.99162 6.01182C6.01246 5.94732 6.02032 5.87932 6.01475 5.81176C6.00917 5.7442 5.99026 5.67841 5.95912 5.6182C5.92798 5.55798 5.88522 5.50453 5.83331 5.46093Z" fill="#E67E22"/>
<path d="M5.10665 9.18677L4.12665 10.4401L3.51998 9.85343C3.48255 9.78759 3.43064 9.73111 3.36818 9.68826C3.30572 9.64541 3.23434 9.61731 3.15944 9.60609C3.08453 9.59486 3.00805 9.6008 2.93577 9.62346C2.8635 9.64611 2.79731 9.68489 2.74222 9.73687C2.68712 9.78885 2.64455 9.85266 2.61773 9.9235C2.59091 9.99433 2.58053 10.0703 2.58737 10.1458C2.59422 10.2212 2.61812 10.2941 2.65726 10.3589C2.6964 10.4238 2.74976 10.4789 2.81332 10.5201L3.83332 11.5401C3.88398 11.5885 3.944 11.626 4.00969 11.6503C4.07538 11.6746 4.14535 11.6852 4.21529 11.6814C4.28524 11.6777 4.35368 11.6597 4.41639 11.6285C4.47911 11.5973 4.53478 11.5536 4.57998 11.5001L5.91332 9.83343C5.99907 9.72646 6.03882 9.58981 6.02382 9.45353C6.00881 9.31726 5.94029 9.19252 5.83332 9.10677C5.72635 9.02101 5.58969 8.98127 5.45342 8.99627C5.31714 9.01127 5.1924 9.0798 5.10665 9.18677Z" fill="#E67E22"/>
<path d="M14.1667 5.85352H11.8333C11.7449 5.85352 11.6601 5.88863 11.5976 5.95115C11.5351 6.01366 11.5 6.09844 11.5 6.18685V12.5202C11.5 12.7854 11.6054 13.0398 11.7929 13.2273C11.9804 13.4148 12.2348 13.5202 12.5 13.5202H13.5C13.7652 13.5202 14.0196 13.4148 14.2071 13.2273C14.3946 13.0398 14.5 12.7854 14.5 12.5202V6.18685C14.5 6.09844 14.4649 6.01366 14.4024 5.95115C14.3399 5.88863 14.2551 5.85352 14.1667 5.85352Z" fill="#E67E22"/>
<path d="M16.5 2.52051C16.5 1.99007 16.2893 1.48137 15.9142 1.10629C15.5391 0.731221 15.0304 0.520508 14.5 0.520508L11.8333 0.520508C11.7449 0.520508 11.6601 0.555627 11.5976 0.618139C11.5351 0.680651 11.5 0.765436 11.5 0.853841V4.85384C11.5 4.94225 11.5351 5.02703 11.5976 5.08954C11.6601 5.15206 11.7449 5.18717 11.8333 5.18717H14.1667C14.2551 5.18717 14.3399 5.15206 14.4024 5.08954C14.4649 5.02703 14.5 4.94225 14.5 4.85384V1.85384C14.6768 1.85384 14.8464 1.92408 14.9714 2.0491C15.0964 2.17413 15.1667 2.3437 15.1667 2.52051V7.85384C15.1667 8.03065 15.2369 8.20022 15.3619 8.32525C15.487 8.45027 15.6565 8.52051 15.8333 8.52051C16.0101 8.52051 16.1797 8.45027 16.3047 8.32525C16.4298 8.20022 16.5 8.03065 16.5 7.85384V2.52051Z" fill="#E67E22"/>
<path d="M10.5 2.52018C10.5 2.34337 10.4298 2.1738 10.3047 2.04878C10.1797 1.92375 10.0101 1.85352 9.83333 1.85352H1.16667C0.989856 1.85352 0.820286 1.92375 0.695262 2.04878C0.570238 2.1738 0.5 2.34337 0.5 2.52018L0.5 14.5202C0.5 14.697 0.570238 14.8666 0.695262 14.9916C0.820286 15.1166 0.989856 15.1868 1.16667 15.1868H9.83333C10.0101 15.1868 10.1797 15.1166 10.3047 14.9916C10.4298 14.8666 10.5 14.697 10.5 14.5202C10.5 14.3434 10.4298 14.1738 10.3047 14.0488C10.1797 13.9238 10.0101 13.8535 9.83333 13.8535H1.83333V3.18685H9.83333C10.0101 3.18685 10.1797 3.11661 10.3047 2.99159C10.4298 2.86656 10.5 2.69699 10.5 2.52018Z" fill="#E67E22"/>
<path d="M8.83329 6.6875H7.16663C7.03402 6.6875 6.90684 6.74018 6.81307 6.83395C6.7193 6.92772 6.66663 7.05489 6.66663 7.1875C6.66663 7.32011 6.7193 7.44728 6.81307 7.54105C6.90684 7.63482 7.03402 7.6875 7.16663 7.6875H8.83329C8.9659 7.6875 9.09308 7.63482 9.18685 7.54105C9.28061 7.44728 9.33329 7.32011 9.33329 7.1875C9.33329 7.05489 9.28061 6.92772 9.18685 6.83395C9.09308 6.74018 8.9659 6.6875 8.83329 6.6875Z" fill="#E67E22"/>
<path d="M8.83329 10.3535H7.16663C7.03402 10.3535 6.90684 10.4062 6.81307 10.5C6.7193 10.5937 6.66663 10.7209 6.66663 10.8535C6.66663 10.9861 6.7193 11.1133 6.81307 11.2071C6.90684 11.3008 7.03402 11.3535 7.16663 11.3535H8.83329C8.9659 11.3535 9.09308 11.3008 9.18685 11.2071C9.28061 11.1133 9.33329 10.9861 9.33329 10.8535C9.33329 10.7209 9.28061 10.5937 9.18685 10.5C9.09308 10.4062 8.9659 10.3535 8.83329 10.3535Z" fill="#E67E22"/>
<path d="M13 14.1875C12.8232 14.1875 12.6537 14.2577 12.5286 14.3828C12.4036 14.5078 12.3334 14.6774 12.3334 14.8542V15.8542C12.3334 16.031 12.4036 16.2005 12.5286 16.3256C12.6537 16.4506 12.8232 16.5208 13 16.5208C13.1769 16.5208 13.3464 16.4506 13.4714 16.3256C13.5965 16.2005 13.6667 16.031 13.6667 15.8542V14.8542C13.6667 14.6774 13.5965 14.5078 13.4714 14.3828C13.3464 14.2577 13.1769 14.1875 13 14.1875Z" fill="#E67E22"/>
</g>
<defs>
<clipPath id="clip0_707_6264">
<rect width="16" height="16" fill="white" transform="translate(0.5 0.520508)"/>
</clipPath>
</defs>
</svg>
