<svg width="100" height="101" viewBox="0 0 100 101" fill="none" xmlns="http://www.w3.org/2000/svg">
<g clip-path="url(#clip0)">
<rect opacity="0.5" y="0.157715" width="100" height="100" rx="20" fill="#F39C12"/>
<rect x="16" y="16.1577" width="68" height="68" rx="34" fill="#F39C12"/>
<path d="M50.0004 32.6577C52.3442 32.6577 54.4676 33.5616 55.988 35.203C57.527 36.8647 58.277 39.1015 58.0997 41.4999C57.7473 46.2741 54.12 50.1577 50.0004 50.1577C45.8809 50.1577 42.2473 46.2733 41.9004 41.4983C41.7254 39.078 42.4707 36.8366 44.0004 35.1874C45.5137 33.5562 47.6442 32.6577 50.0004 32.6577Z" fill="white"/>
<path d="M35.207 67.4364C35.534 67.5868 35.8905 67.6624 36.2504 67.6577H63.7504C64.1105 67.6623 64.467 67.5866 64.794 67.436C65.1211 67.2855 65.4104 67.0639 65.6411 66.7874C66.1489 66.1804 66.3536 65.3515 66.202 64.5132C65.5426 60.8554 63.4848 57.7827 60.2505 55.6265C57.377 53.7124 53.7372 52.6577 50.0004 52.6577C46.2637 52.6577 42.6239 53.7116 39.7504 55.6265C36.5161 57.7835 34.4583 60.8562 33.7989 64.514C33.6473 65.3522 33.852 66.1811 34.3598 66.7882C34.5905 67.0645 34.8799 67.2859 35.207 67.4364Z" fill="white"/>
</g>
<defs>
<clipPath id="clip0">
<rect width="100" height="100" fill="white" transform="translate(0 0.157715)"/>
</clipPath>
</defs>
</svg>
