<svg width="86" height="86" viewBox="0 0 86 86" fill="none" xmlns="http://www.w3.org/2000/svg">
<path d="M19.8589 85.3281C9.2791 85.3281 0.671875 76.7209 0.671875 66.1411V19.8589C0.671875 9.2791 9.2791 0.671875 19.8589 0.671875H66.1411C76.7209 0.671875 85.3281 9.2791 85.3281 19.8589V66.1411C85.3281 76.7209 76.7209 85.3281 66.1411 85.3281H19.8589Z" fill="url(#paint0_linear)"/>
<path d="M69.1448 39.7121L66.3932 39.2329C65.1247 39.012 64.0564 38.1409 63.6144 36.9315C63.4016 36.349 63.1646 35.7779 62.9049 35.2196C62.3607 34.0497 62.4966 32.6759 63.239 31.6205L64.8467 29.335C65.103 28.9705 65.2144 28.543 65.19 28.1243H65.194V25.3506H63.102L60.5798 22.8284C59.9227 22.1713 58.8881 22.0818 58.1279 22.6164L55.8424 24.224C54.787 24.9664 53.4132 25.1023 52.2433 24.5581C51.685 24.2984 51.1139 24.0616 50.5314 23.8486C49.322 23.4067 48.4509 22.3382 48.23 21.0699L47.7508 18.3181C47.5914 17.4025 46.7966 16.7341 45.8674 16.7341H40.1329C39.2036 16.7341 38.4089 17.4025 38.2495 18.3181L37.7703 21.0699C37.5494 22.3384 36.6783 23.4067 35.4689 23.8486C34.8864 24.0614 34.3153 24.2984 33.757 24.5581C32.5871 25.1023 31.2133 24.9664 30.1579 24.224L27.8724 22.6164C27.1122 22.0818 26.0776 22.1711 25.4205 22.8284L22.8953 25.3536H20.8046V28.0806H20.8121C20.777 28.5133 20.8882 28.9579 21.1536 29.335L22.7613 31.6205C23.5037 32.6759 23.6396 34.0497 23.0953 35.2196C22.8357 35.7779 22.5988 36.3489 22.3858 36.9315C21.9439 38.1409 20.8755 39.012 19.6071 39.2329L16.8553 39.7121C15.9397 39.8715 15.2714 40.6663 15.2714 41.5957V47.3301C15.2714 48.2595 15.9397 49.0542 16.8551 49.2137L19.607 49.693C20.8755 49.9138 21.9438 50.7849 22.3857 51.9943C22.5985 52.5768 22.8355 53.1479 23.0952 53.7062C23.6394 54.8761 23.5035 56.25 22.7611 57.3053L22.2718 58.001H20.8046V60.728H20.8069C20.8165 61.2081 21.0048 61.6822 21.3654 62.0427L25.4204 66.0976C26.0775 66.7547 27.112 66.8442 27.8722 66.3094L30.1578 64.7018C31.2131 63.9594 32.5869 63.8235 33.7568 64.3677C34.3152 64.6274 34.8862 64.8642 35.4688 65.0772C36.6781 65.5191 37.5491 66.5876 37.7701 67.8559L38.2493 70.6078C38.4087 71.5234 39.2036 72.1917 40.1329 72.1917H45.8674C46.7967 72.1917 47.5914 71.5234 47.751 70.6078L48.2302 67.8559C48.4511 66.5874 49.3222 65.5191 50.5315 65.0772C51.114 64.8642 51.6851 64.6274 52.2435 64.3677C53.4134 63.8235 54.7872 63.9594 55.8425 64.7018L58.1281 66.3094C58.8883 66.8441 59.9228 66.7547 60.5799 66.0975L64.6349 62.0425C64.9844 61.693 65.1715 61.2366 65.1913 60.7717H65.1942V60.7078C65.1944 60.6968 65.1944 60.6857 65.1942 60.6748V57.998H63.7265L63.2392 57.3053C62.497 56.25 62.3609 54.8761 62.9051 53.7062C63.1648 53.1479 63.4016 52.577 63.6146 51.9943C64.0565 50.7849 65.125 49.9138 66.3933 49.693L69.145 49.2137C70.0606 49.0543 70.7289 48.2595 70.7289 47.3301V41.5957C70.7286 40.6663 70.0604 39.8715 69.1448 39.7121Z" fill="url(#paint1_linear)"/>
<path d="M69.1448 36.7865L66.393 36.3073C65.1245 36.0864 64.0562 35.2153 63.6143 34.0059C63.4015 33.4234 63.1645 32.8523 62.9048 32.294C62.3606 31.1241 62.4965 29.7503 63.2389 28.6949L64.8465 26.4094C65.3812 25.6491 65.2918 24.6146 64.6345 23.9575L60.5796 19.9026C59.9225 19.2455 58.888 19.156 58.1278 19.6906L55.8422 21.2982C54.7869 22.0407 53.413 22.1766 52.2431 21.6323C51.6848 21.3727 51.1139 21.1358 50.5312 20.9228C49.3218 20.4809 48.4507 19.4125 48.2299 18.1441L47.7507 15.3923C47.5913 14.4767 46.7964 13.8083 45.8671 13.8083H40.1326C39.2032 13.8083 38.4086 14.4767 38.249 15.3923L37.7698 18.1441C37.5489 19.4126 36.6778 20.4809 35.4684 20.9228C34.8859 21.1357 34.3148 21.3727 33.7565 21.6323C32.5866 22.1766 31.2128 22.0407 30.1574 21.2982L27.8719 19.6906C27.1117 19.156 26.0771 19.2453 25.42 19.9026L21.3651 23.9575C20.708 24.6146 20.6185 25.6493 21.1531 26.4094L22.7608 28.6949C23.5032 29.7503 23.6391 31.1241 23.0949 32.294C22.8352 32.8523 22.5983 33.4232 22.3854 34.0059C21.9434 35.2153 20.875 36.0864 19.6067 36.3073L16.8548 36.7865C15.9392 36.9459 15.2709 37.7407 15.2709 38.6701V44.4045C15.2709 45.3339 15.9392 46.1286 16.8548 46.2881L19.6067 46.7673C20.8752 46.9882 21.9434 47.8593 22.3854 49.0687C22.5982 49.6512 22.8352 50.2223 23.0949 50.7806C23.6391 51.9505 23.5032 53.3243 22.7608 54.3797L21.1531 56.6652C20.6185 57.4255 20.7079 58.46 21.3649 59.1171L25.4199 63.172C26.077 63.8291 27.1117 63.9186 27.8717 63.384L30.1573 61.7764C31.2128 61.0339 32.5864 60.898 33.7563 61.4423C34.3147 61.702 34.8856 61.9388 35.4683 62.1518C36.6777 62.5937 37.5487 63.6621 37.7696 64.9305L38.2488 67.6823C38.4082 68.5979 39.2031 69.2663 40.1324 69.2663H45.8669C46.7963 69.2663 47.5909 68.5979 47.7505 67.6823L48.2297 64.9305C48.4506 63.662 49.3217 62.5937 50.531 62.1518C51.1136 61.939 51.6847 61.702 52.243 61.4423C53.4129 60.898 54.7867 61.0339 55.842 61.7764L58.1276 63.384C58.8878 63.9186 59.9223 63.8293 60.5794 63.172L64.6344 59.1171C65.2915 58.46 65.381 57.4255 64.8463 56.6652L63.2387 54.3797C62.4963 53.3243 62.3604 51.9505 62.9046 50.7806C63.1643 50.2223 63.4011 49.6514 63.6141 49.0687C64.0561 47.8593 65.1245 46.9882 66.3928 46.7673L69.1447 46.2881C70.0603 46.1287 70.7286 45.3339 70.7286 44.4045V38.6701C70.7286 37.7405 70.0603 36.9459 69.1448 36.7865Z" fill="white"/>
<path d="M40.1328 68.93C39.3648 68.93 38.712 68.3809 38.5801 67.6244L38.1009 64.8726C37.8582 63.4781 36.8935 62.3146 35.584 61.836C35.0146 61.6279 34.4476 61.3929 33.8985 61.1374C33.3808 60.8967 32.8277 60.7746 32.2541 60.7746C31.432 60.7746 30.6402 61.0259 29.9643 61.5014L27.6789 63.1089C27.412 63.2967 27.0986 63.3958 26.7727 63.3958C26.3515 63.3958 25.9554 63.2318 25.6578 62.9342L21.6028 58.8794C21.0599 58.3364 20.9865 57.4865 21.4281 56.8584L23.0358 54.5729C23.8504 53.4147 23.9898 51.9074 23.3998 50.6389C23.1438 50.0886 22.9088 49.5214 22.7012 48.9535C22.2225 47.6437 21.0589 46.6792 19.6645 46.4365L16.9126 45.9573C16.1561 45.8254 15.6072 45.1725 15.6072 44.4047V38.6703C15.6072 37.9025 16.1563 37.2494 16.9128 37.1176L19.6645 36.6384C21.0589 36.3955 22.2225 35.431 22.7012 34.1213C22.9086 33.5534 23.1438 32.9862 23.3998 32.4358C23.9898 31.1673 23.8504 29.6599 23.0358 28.5018L21.4281 26.2162C20.9864 25.5882 21.0599 24.7381 21.6028 24.1951L25.6576 20.1403C25.9552 19.8427 26.3513 19.6787 26.7727 19.6787C27.0986 19.6787 27.4119 19.7778 27.6788 19.9656L29.9641 21.5732C30.6402 22.0488 31.432 22.3 32.2539 22.3C32.8275 22.3 33.3806 22.1779 33.8983 21.9372C34.4477 21.6817 35.0146 21.4468 35.5839 21.2386C36.8935 20.7601 37.858 19.5966 38.1007 18.2019L38.5799 15.4503C38.7118 14.6937 39.3647 14.1447 40.1326 14.1447H45.8671C46.6349 14.1447 47.2878 14.6937 47.4195 15.4503L47.8988 18.2019C48.1417 19.5964 49.1062 20.7601 50.4158 21.2386C50.9846 21.4466 51.5518 21.6816 52.1012 21.9372C52.6189 22.1781 53.1722 22.3 53.7457 22.3C54.5677 22.3 55.3593 22.0486 56.0352 21.5732L58.3208 19.9656C58.5877 19.7778 58.901 19.6787 59.227 19.6787C59.6482 19.6787 60.0442 19.8427 60.342 20.1403L64.3969 24.1952C64.9399 24.7381 65.0135 25.588 64.5716 26.2162L62.9641 28.502C62.1495 29.6599 62.0101 31.1674 62.6001 32.4359C62.8556 32.9854 63.0908 33.5524 63.2985 34.1213C63.7773 35.431 64.9408 36.3955 66.3354 36.6384L69.0871 37.1176C69.8436 37.2494 70.3925 37.9023 70.3925 38.6703V44.4047C70.3925 45.1725 69.8434 45.8254 69.0871 45.9573L66.3354 46.4365C64.9408 46.6794 63.7773 47.6438 63.2985 48.9533C63.0908 49.5221 62.8558 50.0893 62.6001 50.6389C62.0101 51.9074 62.1495 53.4147 62.9641 54.5729L64.5716 56.8583C65.0133 57.4865 64.9398 58.3364 64.3969 58.8793L60.342 62.9342C60.0443 63.2318 59.6482 63.3958 59.227 63.3958C59.2268 63.3958 59.227 63.3958 59.2268 63.3958C58.9011 63.3958 58.5877 63.2965 58.3208 63.1089L56.0354 61.5013C55.3595 61.0257 54.5677 60.7745 53.7457 60.7745C53.172 60.7745 52.6189 60.8966 52.1012 61.1373C51.5518 61.3929 50.9848 61.6279 50.4157 61.8359C49.1062 62.3144 48.1417 63.4779 47.8988 64.8724L47.4195 67.6242C47.2878 68.3808 46.6349 68.9298 45.8671 68.9298L40.1328 68.93Z" fill="url(#paint2_linear)"/>
<path d="M58.1565 42.4912C57.6636 34.5473 51.068 28.2559 43 28.2559C34.9317 28.2559 28.3363 34.5473 27.8435 42.4912C27.824 42.1754 27.8105 41.0494 27.8105 42.4912C27.8105 50.8801 34.6111 56.7266 43 56.7266C51.3878 56.7266 58.1875 49.9279 58.1894 41.5403C58.1892 41.86 58.1759 42.1764 58.1565 42.4912Z" fill="#8F8F8F"/>
<path d="M43 28.2558C51.0682 28.2558 57.6636 34.5472 58.1565 42.4911C58.1761 42.1754 58.1894 41.8579 58.1894 41.5371C58.1894 33.1482 51.3888 26.3477 43 26.3477C34.6111 26.3477 27.8105 33.1482 27.8105 41.5371C27.8105 41.8577 27.8238 42.1754 27.8435 42.4911C28.3363 34.5471 34.9319 28.2558 43 28.2558Z" fill="#5C5C5C"/>
<path d="M43 52.6665C48.3034 52.6665 52.6028 48.3672 52.6028 43.0637C52.6028 37.7602 48.3034 33.4609 43 33.4609C37.6965 33.4609 33.3972 37.7602 33.3972 43.0637C33.3972 48.3672 37.6965 52.6665 43 52.6665Z" fill="#5C5C5C"/>
<path d="M43 51.1396C48.3034 51.1396 52.6028 46.8403 52.6028 41.5369C52.6028 36.2334 48.3034 31.9341 43 31.9341C37.6965 31.9341 33.3972 36.2334 33.3972 41.5369C33.3972 46.8403 37.6965 51.1396 43 51.1396Z" fill="url(#paint3_linear)"/>
<path d="M42.9999 45.5438C45.2129 45.5438 47.0068 43.7499 47.0068 41.5369C47.0068 39.324 45.2129 37.53 42.9999 37.53C40.787 37.53 38.993 39.324 38.993 41.5369C38.993 43.7499 40.787 45.5438 42.9999 45.5438Z" fill="#5C5C5C"/>
<defs>
<linearGradient id="paint0_linear" x1="43" y1="1.49862" x2="43" y2="85.8304" gradientUnits="userSpaceOnUse">
<stop stop-color="#FFD985"/>
<stop offset="1" stop-color="#FF9230"/>
</linearGradient>
<linearGradient id="paint1_linear" x1="43.0002" y1="17.19" x2="43.0002" y2="70.6931" gradientUnits="userSpaceOnUse">
<stop stop-color="#9C9C9C"/>
<stop offset="1" stop-color="#CCCCCC"/>
</linearGradient>
<linearGradient id="paint2_linear" x1="42.9999" y1="14.5948" x2="42.9999" y2="67.4512" gradientUnits="userSpaceOnUse">
<stop offset="0.005" stop-color="#F2F2F2"/>
<stop offset="1" stop-color="#E6E6E6"/>
</linearGradient>
<linearGradient id="paint3_linear" x1="43" y1="31.9341" x2="43" y2="51.1396" gradientUnits="userSpaceOnUse">
<stop offset="0.005" stop-color="#F2F2F2"/>
<stop offset="1" stop-color="#E6E6E6"/>
</linearGradient>
</defs>
</svg>
