<svg width="13" height="13" viewBox="0 0 13 13" fill="none" xmlns="http://www.w3.org/2000/svg">
<path d="M6.50035 12.1577C6.29963 12.1575 6.10363 12.0968 5.93785 11.9837C3.48191 10.3165 2.41847 9.17334 1.83191 8.45865C0.58191 6.93521 -0.016528 5.37115 0.000347005 3.6774C0.0200345 1.73646 1.57722 0.157715 3.4716 0.157715C4.8491 0.157715 5.80316 0.933652 6.35878 1.5799C6.37639 1.60017 6.39813 1.61642 6.42255 1.62755C6.44698 1.63869 6.47351 1.64445 6.50035 1.64445C6.52719 1.64445 6.55372 1.63869 6.57814 1.62755C6.60256 1.61642 6.62431 1.60017 6.64191 1.5799C7.19753 0.933027 8.1516 0.157715 9.5291 0.157715C11.4235 0.157715 12.9807 1.73646 13.0003 3.67771C13.0172 5.37178 12.4182 6.93584 11.1688 8.45897C10.5822 9.17365 9.51878 10.3168 7.06285 11.984C6.89703 12.097 6.70103 12.1576 6.50035 12.1577Z" fill="#E74C3C"/>
</svg>
