<svg width="86" height="86" viewBox="0 0 86 86" fill="none" xmlns="http://www.w3.org/2000/svg">
<path d="M19.8583 85.3281C9.27893 85.3281 0.671875 76.7211 0.671875 66.1416V19.8584C0.671875 9.27893 9.27893 0.671875 19.8583 0.671875H66.1416C76.7211 0.671875 85.3281 9.27893 85.3281 19.8584V66.1417C85.3281 76.7211 76.7211 85.3281 66.1416 85.3281H19.8583Z" fill="url(#paint0_linear)"/>
<path d="M43.1462 30.4731C36.2191 31.0842 31.1117 25.9754 31.7214 19.0497C38.6485 18.4385 43.7559 23.5474 43.1462 30.4731Z" fill="#7FB241"/>
<path d="M43.4118 35.2984C42.8143 35.149 42.3449 34.643 42.2732 33.9953C41.9455 31.0278 42.7945 28.1121 44.66 25.7833C46.5271 23.4544 49.1897 21.9912 52.1557 21.6651C52.9879 21.5751 53.7347 22.1741 53.8246 23.0048C53.9161 23.8354 53.3171 24.5822 52.4864 24.6752C50.3237 24.913 48.3835 25.9784 47.0224 27.6762C45.6614 29.3741 45.0441 31.4988 45.2819 33.6615C45.3733 34.4937 44.7743 35.2405 43.9421 35.3335C43.7593 35.3548 43.5809 35.3411 43.4118 35.2984Z" fill="#8E6D53"/>
<path d="M54.6339 30.4547C52.9817 30.0143 51.2732 30.1057 49.5966 30.6453C45.2894 32.0337 40.7094 32.0337 36.4022 30.6453C34.7257 30.1057 33.0171 30.0143 31.365 30.4547C24.7685 32.2121 21.5862 41.7546 24.2549 51.7697C26.9237 61.7848 34.433 68.4772 41.0295 66.7199C41.0371 66.7184 41.0432 66.7168 41.0508 66.7138C42.3326 66.3678 43.6677 66.3678 44.9495 66.7138C44.9572 66.7153 44.9633 66.7168 44.9709 66.7199C51.5658 68.4772 59.0767 61.7832 61.7455 51.7697C64.4127 41.7546 61.2288 32.2121 54.6339 30.4547Z" fill="#E14B4B"/>
<path d="M61.744 51.7682C59.0768 61.7817 51.5628 68.4726 44.9633 66.7199H44.9481C43.6678 66.3693 42.3266 66.3693 41.0463 66.7199H41.0311C38.5467 67.3753 35.9405 66.8418 33.5171 65.3939C46.457 60.3948 56.1504 47.775 58.1775 32.3965C62.2774 36.0696 63.8778 43.7665 61.744 51.7682Z" fill="#D03F3F"/>
<defs>
<linearGradient id="paint0_linear" x1="43" y1="1.49862" x2="43" y2="85.8304" gradientUnits="userSpaceOnUse">
<stop stop-color="#FFB3E5"/>
<stop offset="1" stop-color="#FF9C9C"/>
</linearGradient>
</defs>
</svg>
