<svg width="16" height="17" viewBox="0 0 16 17" fill="none" xmlns="http://www.w3.org/2000/svg">
<g clip-path="url(#clip0)">
<path d="M14.375 7.90771H10C9.60218 7.90771 9.22064 7.74968 8.93934 7.46838C8.65804 7.18707 8.5 6.80554 8.5 6.40771V2.03271C8.5 1.99956 8.48683 1.96777 8.46339 1.94433C8.43995 1.92088 8.40815 1.90771 8.375 1.90771H6.71094C6.65258 1.79963 6.58459 1.69703 6.50781 1.60115C6.1475 1.15396 5.61219 0.907715 5 0.907715C3.8225 0.907715 3 1.83303 3 3.15771V7.65771C3 8.43896 3.63562 8.90771 4.25 8.90771C4.41465 8.90951 4.57801 8.87841 4.73047 8.81623C4.88294 8.75405 5.02146 8.66204 5.13789 8.54561C5.25433 8.42917 5.34633 8.29066 5.40851 8.13819C5.4707 7.98572 5.5018 7.82237 5.5 7.65771V2.90771C5.5 2.77511 5.44732 2.64793 5.35355 2.55416C5.25979 2.46039 5.13261 2.40771 5 2.40771C4.86739 2.40771 4.74021 2.46039 4.64645 2.55416C4.55268 2.64793 4.5 2.77511 4.5 2.90771V7.65771C4.50109 7.69084 4.49536 7.72383 4.48318 7.75466C4.47101 7.78548 4.45263 7.81348 4.4292 7.83691C4.40576 7.86035 4.37776 7.87872 4.34694 7.8909C4.31612 7.90308 4.28312 7.9088 4.25 7.90771C4.18031 7.90771 4 7.86271 4 7.65771V3.15771C4 2.55334 4.26281 1.90771 5 1.90771C5.92781 1.90771 6 2.8499 6 3.13834V7.47428C6 8.01959 5.82906 8.51271 5.51844 8.86365C5.20312 9.22021 4.76469 9.40771 4.25 9.40771C3.73531 9.40771 3.29688 9.22021 2.98156 8.86365C2.67094 8.51271 2.5 8.01959 2.5 7.47428V4.90771C2.5 4.77511 2.44732 4.64793 2.35355 4.55416C2.25979 4.46039 2.13261 4.40771 2 4.40771C1.86739 4.40771 1.74021 4.46039 1.64645 4.55416C1.55268 4.64793 1.5 4.77511 1.5 4.90771V7.47428C1.5 9.08397 2.53719 10.2752 4 10.3971V13.9077C4 14.4381 4.21071 14.9469 4.58579 15.3219C4.96086 15.697 5.46957 15.9077 6 15.9077H12.5C13.0304 15.9077 13.5391 15.697 13.9142 15.3219C14.2893 14.9469 14.5 14.4381 14.5 13.9077V8.03271C14.5 7.99956 14.4868 7.96777 14.4634 7.94433C14.4399 7.92088 14.4082 7.90771 14.375 7.90771Z" fill="#2ECC71"/>
<path d="M10 6.90786H14.0566C14.0689 6.90781 14.0809 6.90412 14.0911 6.89725C14.1014 6.89037 14.1093 6.88063 14.114 6.86924C14.1188 6.85786 14.12 6.84533 14.1176 6.83324C14.1152 6.82115 14.1093 6.81004 14.1006 6.8013L9.60656 2.30724C9.59782 2.29855 9.58671 2.29264 9.57462 2.29025C9.56253 2.28786 9.55001 2.2891 9.53862 2.29381C9.52723 2.29851 9.51749 2.30648 9.51062 2.31671C9.50375 2.32694 9.50005 2.33898 9.5 2.3513V6.40786C9.5 6.54047 9.55268 6.66765 9.64645 6.76142C9.74021 6.85518 9.86739 6.90786 10 6.90786Z" fill="#2ECC71"/>
</g>
<defs>
<clipPath id="clip0">
<rect width="16" height="16" fill="white" transform="translate(0 0.407715)"/>
</clipPath>
</defs>
</svg>
