<svg width="17" height="17" viewBox="0 0 17 17" fill="none" xmlns="http://www.w3.org/2000/svg">
<path d="M13.875 7.65771H9.5C9.10218 7.65771 8.72064 7.49968 8.43934 7.21838C8.15804 6.93707 8 6.55554 8 6.15771V1.78271C8 1.74956 7.98683 1.71777 7.96339 1.69433C7.93995 1.67088 7.90815 1.65771 7.875 1.65771H5C4.46957 1.65771 3.96086 1.86843 3.58579 2.2435C3.21071 2.61857 3 3.12728 3 3.65771V13.6577C3 14.1881 3.21071 14.6969 3.58579 15.0719C3.96086 15.447 4.46957 15.6577 5 15.6577H12C12.5304 15.6577 13.0391 15.447 13.4142 15.0719C13.7893 14.6969 14 14.1881 14 13.6577V7.78271C14 7.74956 13.9868 7.71777 13.9634 7.69433C13.9399 7.67088 13.9082 7.65771 13.875 7.65771ZM11 12.6577H6C5.86739 12.6577 5.74021 12.605 5.64645 12.5113C5.55268 12.4175 5.5 12.2903 5.5 12.1577C5.5 12.0251 5.55268 11.8979 5.64645 11.8042C5.74021 11.7104 5.86739 11.6577 6 11.6577H11C11.1326 11.6577 11.2598 11.7104 11.3536 11.8042C11.4473 11.8979 11.5 12.0251 11.5 12.1577C11.5 12.2903 11.4473 12.4175 11.3536 12.5113C11.2598 12.605 11.1326 12.6577 11 12.6577ZM11 10.1577H6C5.86739 10.1577 5.74021 10.105 5.64645 10.0113C5.55268 9.9175 5.5 9.79032 5.5 9.65771C5.5 9.52511 5.55268 9.39793 5.64645 9.30416C5.74021 9.21039 5.86739 9.15771 6 9.15771H11C11.1326 9.15771 11.2598 9.21039 11.3536 9.30416C11.4473 9.39793 11.5 9.52511 11.5 9.65771C11.5 9.79032 11.4473 9.9175 11.3536 10.0113C11.2598 10.105 11.1326 10.1577 11 10.1577Z" fill="#9B59B6"/>
<path d="M13.6006 6.5513L9.10656 2.05724C9.09782 2.04855 9.08671 2.04264 9.07462 2.04025C9.06253 2.03786 9.05001 2.0391 9.03862 2.04381C9.02723 2.04851 9.01749 2.05648 9.01062 2.06671C9.00375 2.07694 9.00005 2.08898 9 2.1013V6.15786C9 6.29047 9.05268 6.41765 9.14645 6.51142C9.24021 6.60518 9.36739 6.65786 9.5 6.65786H13.5566C13.5689 6.65781 13.5809 6.65412 13.5911 6.64725C13.6014 6.64038 13.6093 6.63063 13.614 6.61925C13.6188 6.60786 13.62 6.59533 13.6176 6.58324C13.6152 6.57115 13.6093 6.56004 13.6006 6.5513Z" fill="#9B59B6"/>
</svg>
