<svg width="14" height="14" viewBox="0 0 14 14" fill="none" xmlns="http://www.w3.org/2000/svg">
<g id="icons / ellipsis orange">
<circle id="Ellipse 1" cx="7" cy="7" r="5" fill="#FF8412"/>
<path id="Vector" d="M7 7.71094C7.39264 7.71094 7.71094 7.39264 7.71094 7C7.71094 6.60736 7.39264 6.28906 7 6.28906C6.60736 6.28906 6.28906 6.60736 6.28906 7C6.28906 7.39264 6.60736 7.71094 7 7.71094Z" fill="white"/>
<path id="Vector_2" d="M9.46094 7.71094C9.85358 7.71094 10.1719 7.39264 10.1719 7C10.1719 6.60736 9.85358 6.28906 9.46094 6.28906C9.0683 6.28906 8.75 6.60736 8.75 7C8.75 7.39264 9.0683 7.71094 9.46094 7.71094Z" fill="white"/>
<path id="Vector_3" d="M4.53906 7.71094C4.9317 7.71094 5.25 7.39264 5.25 7C5.25 6.60736 4.9317 6.28906 4.53906 6.28906C4.14642 6.28906 3.82812 6.60736 3.82812 7C3.82812 7.39264 4.14642 7.71094 4.53906 7.71094Z" fill="white"/>
<path id="Vector (Stroke)" fill-rule="evenodd" clip-rule="evenodd" d="M1.3125 7C1.3125 3.85994 3.85994 1.3125 7 1.3125C10.1401 1.3125 12.6875 3.85994 12.6875 7C12.6875 10.1401 10.1401 12.6875 7 12.6875C3.85994 12.6875 1.3125 10.1401 1.3125 7ZM7 2.1875C4.34319 2.1875 2.1875 4.34319 2.1875 7C2.1875 9.65681 4.34319 11.8125 7 11.8125C9.65681 11.8125 11.8125 9.65681 11.8125 7C11.8125 4.34319 9.65681 2.1875 7 2.1875Z" fill="#FF8412"/>
</g>
</svg>
