<svg width="28" height="28" viewBox="0 0 28 28" fill="none" xmlns="http://www.w3.org/2000/svg">
<path opacity="0.3" d="M13.6137 23.7886L6.89922 27.278C6.15512 27.6647 5.28553 27.0402 5.42767 26.2212L6.70999 18.8304C6.76644 18.5051 6.65734 18.1733 6.41828 17.943L0.986103 12.7088C0.384138 12.1288 0.716328 11.1183 1.54817 10.9988L9.05518 9.92049C9.38555 9.87303 9.67106 9.66797 9.81882 9.37208L13.1761 2.6477C13.5481 1.90259 14.623 1.90259 14.995 2.6477L18.3523 9.37208C18.5 9.66797 18.7855 9.87311 19.1159 9.92049L26.623 10.9988C27.4549 11.1183 27.787 12.1288 27.1851 12.7088L21.7529 17.943C21.5138 18.1733 21.4048 18.5051 21.4612 18.8304L22.7435 26.2212C22.8856 27.0402 22.016 27.6647 21.272 27.278L14.5575 23.7886C14.2621 23.6351 13.9091 23.6351 13.6137 23.7886Z" fill="#1A1A1A"/>
<path d="M26.8607 10.54L18.4842 9.49666C18.1538 9.4492 17.8682 9.24414 17.7206 8.94825L14.3633 2.22388C13.9913 1.47876 12.9164 1.47876 12.5444 2.22388L9.18711 8.94825C9.03935 9.24414 8.75384 9.44928 8.42347 9.49666L1.15925 10.54H0.046875V11.659H0.0507653C0.0703838 11.8828 0.167152 12.1047 0.354231 12.285L5.7864 17.5191C6.02547 17.7495 6.13449 18.0813 6.07811 18.4066L4.95531 24.8779H4.78048V25.9969H4.78122C4.79794 26.713 5.58508 27.2088 6.26734 26.8542L12.9818 23.3648C13.2773 23.2112 13.6302 23.2112 13.9258 23.3648L20.6403 26.8542C21.3406 27.2182 22.1519 26.6862 22.1264 25.9395V24.8778H21.9523L20.8295 18.4065C20.773 18.0813 20.8821 17.7494 21.1212 17.5191L26.5534 12.2849C26.7404 12.1046 26.8607 11.921 26.8607 11.6589V10.54Z" fill="url(#paint0_linear)"/>
<path d="M12.9819 22.3045L6.26738 25.7939C5.52328 26.1806 4.6537 25.556 4.79583 24.737L6.07815 17.3462C6.1346 17.021 6.0255 16.6892 5.78644 16.4588L0.354267 11.2247C-0.247698 10.6447 0.0844923 9.63414 0.916333 9.51467L8.42334 8.43635C8.75371 8.38889 9.03922 8.18384 9.18698 7.88795L12.5442 1.16357C12.9162 0.418457 13.9912 0.418457 14.3632 1.16357L17.7204 7.88795C17.8682 8.18384 18.1537 8.38898 18.4841 8.43635L25.9912 9.51467C26.823 9.63414 27.1552 10.6447 26.5532 11.2247L21.1211 16.4588C20.882 16.6892 20.773 17.021 20.8294 17.3462L22.1117 24.737C22.2538 25.556 21.3841 26.1806 20.6401 25.7939L13.9256 22.3045C13.6304 22.1509 13.2774 22.1509 12.9819 22.3045Z" fill="url(#paint1_linear)"/>
<path d="M21.1123 25.7346C20.9781 25.7346 20.8473 25.702 20.7233 25.6376L14.0088 22.1482C13.8383 22.0595 13.6463 22.0126 13.4536 22.0126C13.261 22.0126 13.069 22.0595 12.8985 22.1482L6.18396 25.6376C6.06004 25.702 5.92917 25.7346 5.79499 25.7346C5.55253 25.7347 5.31239 25.6229 5.15254 25.4355C4.99353 25.249 4.92929 25.0116 4.97176 24.7669L6.25408 17.3762C6.32047 16.9936 6.19216 16.6034 5.91104 16.3324L0.478873 11.0982C0.245934 10.8739 0.166881 10.5574 0.267374 10.2517C0.367867 9.94595 0.62001 9.73582 0.94177 9.68959L8.44886 8.61127C8.83751 8.55547 9.17334 8.31432 9.34709 7.96623L12.7043 1.24185C12.8483 0.953576 13.1283 0.781494 13.4536 0.781494C13.7788 0.781494 14.0589 0.953576 14.2027 1.24185L17.56 7.96623C17.7338 8.31441 18.0696 8.55555 18.4583 8.61127L25.9654 9.68959C26.2871 9.73582 26.5393 9.94595 26.6398 10.2517C26.7403 10.5574 26.6612 10.8739 26.4283 11.0982L20.9961 16.3324C20.715 16.6035 20.5867 16.9936 20.6531 17.3763L21.9354 24.7669C21.9779 25.0115 21.9136 25.249 21.7546 25.4354C21.5949 25.6228 21.3548 25.7346 21.1123 25.7346Z" fill="url(#paint2_linear)"/>
<defs>
<linearGradient id="paint0_linear" x1="13.4538" y1="1.03288" x2="13.4538" y2="26.7511" gradientUnits="userSpaceOnUse">
<stop offset="0.005" stop-color="#ECC02A"/>
<stop offset="1" stop-color="#D1893E"/>
</linearGradient>
<linearGradient id="paint1_linear" x1="13.4538" y1="-0.0276634" x2="13.4538" y2="25.6906" gradientUnits="userSpaceOnUse">
<stop offset="0.005" stop-color="#FCF255"/>
<stop offset="1" stop-color="#FBC46E"/>
</linearGradient>
<linearGradient id="paint2_linear" x1="13.4536" y1="0.158136" x2="13.4536" y2="25.5171" gradientUnits="userSpaceOnUse">
<stop offset="0.005" stop-color="#FDE97E"/>
<stop offset="1" stop-color="#FBB728"/>
</linearGradient>
</defs>
</svg>
