<svg width="86" height="86" viewBox="0 0 86 86" fill="none" xmlns="http://www.w3.org/2000/svg">
<path d="M19.8583 85.3281C9.27893 85.3281 0.671875 76.7211 0.671875 66.1416V19.8584C0.671875 9.27893 9.27893 0.671875 19.8583 0.671875H66.1416C76.7211 0.671875 85.3281 9.27893 85.3281 19.8584V66.1417C85.3281 76.7211 76.7211 85.3281 66.1416 85.3281H19.8583Z" fill="url(#paint0_linear)"/>
<path opacity="0.3" d="M42.3067 60.5376L30.2765 66.7895C28.9434 67.4824 27.3854 66.3633 27.64 64.896L29.9375 51.6542C30.0387 51.0714 29.8432 50.4769 29.4149 50.0642L19.6822 40.6864C18.6037 39.6472 19.1989 37.8366 20.6892 37.6226L34.1393 35.6906C34.7312 35.6056 35.2428 35.2382 35.5075 34.708L41.5226 22.6602C42.1891 21.3252 44.115 21.3252 44.7815 22.6602L50.7966 34.708C51.0613 35.2382 51.5729 35.6057 52.1648 35.6906L65.615 37.6226C67.1054 37.8366 67.7006 39.6472 66.622 40.6864L56.8894 50.0642C56.4611 50.4769 56.2657 51.0714 56.3667 51.6542L58.6642 64.896C58.9189 66.3633 57.3607 67.4824 56.0277 66.7895L43.9976 60.5376C43.4684 60.2626 42.836 60.2626 42.3067 60.5376Z" fill="#1A1A1A"/>
<path d="M66.0415 36.8008L51.0335 34.9314C50.4416 34.8464 49.93 34.479 49.6654 33.9489L43.6503 21.901C42.9838 20.566 41.0578 20.566 40.3913 21.901L34.3762 33.9489C34.1115 34.479 33.6 34.8465 33.0081 34.9314L19.993 36.8008H18V38.8057H18.007C18.0421 39.2066 18.2155 39.6042 18.5507 39.9272L28.2833 49.305C28.7116 49.7177 28.907 50.3122 28.806 50.895L26.7943 62.4895H26.481V64.4944H26.4824C26.5123 65.7773 27.9226 66.6656 29.145 66.0304L41.1751 59.7785C41.7045 59.5033 42.3369 59.5033 42.8663 59.7785L54.8965 66.0304C56.1512 66.6825 57.6048 65.7294 57.5591 64.3915V62.4894H57.2472L55.2355 50.8949C55.1344 50.3122 55.3298 49.7176 55.7582 49.3049L65.4908 39.9271C65.826 39.6041 66.0415 39.2751 66.0415 38.8055V36.8008Z" fill="url(#paint1_linear)"/>
<path d="M41.1752 57.8787L29.1451 64.1306C27.8119 64.8235 26.2539 63.7044 26.5085 62.237L28.806 48.9952C28.9072 48.4124 28.7117 47.818 28.2834 47.4053L18.5507 38.0274C17.4722 36.9883 18.0674 35.1777 19.5578 34.9636L33.0078 33.0317C33.5998 32.9466 34.1113 32.5792 34.376 32.0491L40.3911 20.0013C41.0576 18.6662 42.9836 18.6662 43.6501 20.0013L49.6651 32.0491C49.9299 32.5792 50.4414 32.9468 51.0333 33.0317L64.4835 34.9636C65.9739 35.1777 66.5691 36.9883 65.4906 38.0274L55.7579 47.4053C55.3296 47.818 55.1343 48.4124 55.2353 48.9952L57.5328 62.237C57.7874 63.7044 56.2293 64.8235 54.8962 64.1306L42.8661 57.8787C42.3371 57.6035 41.7047 57.6035 41.1752 57.8787Z" fill="url(#paint2_linear)"/>
<path d="M55.7425 64.0244C55.5021 64.0244 55.2678 63.9659 55.0456 63.8505L43.0153 57.5986C42.71 57.4398 42.3659 57.3558 42.0208 57.3558C41.6756 57.3558 41.3316 57.4398 41.0262 57.5986L28.9959 63.8505C28.7739 63.9659 28.5394 64.0244 28.299 64.0244C27.8646 64.0245 27.4343 63.8241 27.1479 63.4884C26.863 63.1542 26.7479 62.7289 26.824 62.2906L29.1215 49.0488C29.2405 48.3634 29.0106 47.6642 28.5069 47.1787L18.7743 37.8008C18.3569 37.3988 18.2153 36.8317 18.3953 36.284C18.5754 35.7363 19.0272 35.3598 19.6036 35.277L33.0538 33.345C33.7502 33.245 34.3519 32.813 34.6632 32.1893L40.6782 20.1415C40.9362 19.625 41.4379 19.3167 42.0206 19.3167C42.6033 19.3167 43.1052 19.625 43.3628 20.1415L49.3779 32.1893C49.6893 32.8131 50.291 33.2452 50.9874 33.345L64.4376 35.277C65.0141 35.3598 65.4658 35.7363 65.6459 36.284C65.8259 36.8317 65.6843 37.3988 65.2671 37.8008L55.5343 47.1787C55.0306 47.6644 54.8008 48.3634 54.9198 49.0489L57.2172 62.2906C57.2934 62.7288 57.1782 63.1542 56.8933 63.4882C56.6072 63.8239 56.1769 64.0244 55.7425 64.0244Z" fill="url(#paint3_linear)"/>
<defs>
<linearGradient id="paint0_linear" x1="43" y1="1.49862" x2="43" y2="85.8774" gradientUnits="userSpaceOnUse">
<stop stop-color="#70B1FF"/>
<stop offset="1" stop-color="#193291"/>
</linearGradient>
<linearGradient id="paint1_linear" x1="42.0207" y1="19.7672" x2="42.0207" y2="65.8456" gradientUnits="userSpaceOnUse">
<stop offset="0.005" stop-color="#ECC02A"/>
<stop offset="1" stop-color="#D1893E"/>
</linearGradient>
<linearGradient id="paint2_linear" x1="42.0207" y1="17.867" x2="42.0207" y2="63.9454" gradientUnits="userSpaceOnUse">
<stop offset="0.005" stop-color="#FCF255"/>
<stop offset="1" stop-color="#FBC46E"/>
</linearGradient>
<linearGradient id="paint3_linear" x1="42.0206" y1="18.1998" x2="42.0206" y2="63.6347" gradientUnits="userSpaceOnUse">
<stop offset="0.005" stop-color="#FDE97E"/>
<stop offset="1" stop-color="#FBB728"/>
</linearGradient>
</defs>
</svg>
