<svg width="16" height="17" viewBox="0 0 16 17" fill="none" xmlns="http://www.w3.org/2000/svg">
<g id="Group">
<path id="Vector" d="M14.9133 6.62685C14.7163 6.3974 14.4745 6.2105 14.2029 6.07754C13.9313 5.94458 13.6354 5.86836 13.3333 5.85352C13.3248 6.10665 13.2648 6.3554 13.1571 6.58462C13.0493 6.81384 12.8961 7.01874 12.7066 7.18685H13.18C13.3102 7.18313 13.4397 7.20672 13.5603 7.25609C13.6809 7.30546 13.7898 7.37953 13.88 7.47352C13.943 7.55976 13.9844 7.65989 14.0006 7.76547C14.0168 7.87105 14.0075 7.97898 13.9733 8.08018C13.8666 8.61352 13.12 8.53352 13.0333 8.52018C12.8995 8.50484 12.7642 8.53039 12.6452 8.59346C12.5262 8.65653 12.4291 8.75417 12.3666 8.87352L10.6133 12.2068C9.75177 11.4712 8.79684 10.8525 7.7733 10.3668L5.7733 14.0202C5.61159 14.3154 5.37332 14.5616 5.08356 14.7329C4.79379 14.9041 4.46323 14.9942 4.12663 14.9935C3.81483 14.9919 3.50816 14.9141 3.2333 14.7668C2.79725 14.5275 2.47384 14.1251 2.33389 13.6478C2.19394 13.1704 2.24887 12.6571 2.48663 12.2202L3.5733 10.2202L2.96663 9.97352C2.67309 9.86943 2.40172 9.71113 2.16663 9.50685C1.40031 9.84988 0.774922 10.4455 0.394976 11.1942C0.0150309 11.9429 -0.0964566 12.7994 0.0791437 13.6204C0.254744 14.4414 0.706794 15.1773 1.35976 15.7051C2.01272 16.2329 2.82703 16.5206 3.66663 16.5202H9.99996C10.2714 16.5578 10.5479 16.532 10.8077 16.4448C11.0675 16.3576 11.3036 16.2114 11.4974 16.0176C11.6911 15.8238 11.8374 15.5877 11.9246 15.3279C12.0118 15.0681 12.0376 14.7916 12 14.5202C11.9738 14.0754 11.816 13.6484 11.5466 13.2935L13.3333 9.85352C13.7854 9.87233 14.2294 9.72977 14.586 9.45131C14.9426 9.17285 15.1886 8.77665 15.28 8.33352C15.3518 8.03983 15.3562 7.73367 15.2927 7.43807C15.2291 7.14246 15.0994 6.8651 14.9133 6.62685ZM9.99996 13.5202C10.1977 13.5202 10.3911 13.5788 10.5555 13.6887C10.72 13.7986 10.8482 13.9548 10.9238 14.1375C10.9995 14.3202 11.0193 14.5213 10.9808 14.7153C10.9422 14.9093 10.8469 15.0874 10.7071 15.2273C10.5672 15.3671 10.389 15.4624 10.1951 15.501C10.0011 15.5396 9.80001 15.5197 9.61728 15.4441C9.43456 15.3684 9.27838 15.2402 9.16849 15.0758C9.05861 14.9113 8.99996 14.718 8.99996 14.5202C8.99996 14.255 9.10532 14.0006 9.29286 13.8131C9.48039 13.6255 9.73475 13.5202 9.99996 13.5202Z" fill="#BA0186"/>
<path id="Vector_2" d="M4.98001 9.74057L3.34668 12.7272C3.23738 12.9317 3.21319 13.171 3.27935 13.3932C3.34551 13.6154 3.49668 13.8025 3.70001 13.9139C3.82642 13.9842 3.96872 14.0209 4.11335 14.0206C4.2709 14.0205 4.4256 13.9785 4.56152 13.8988C4.69744 13.8192 4.80968 13.7047 4.88668 13.5672L6.98668 9.71391C7.04624 9.6058 7.08183 9.48613 7.09103 9.36305C7.10023 9.23996 7.08283 9.11634 7.04001 9.00057C6.9974 8.8839 6.93093 8.77739 6.84484 8.68786C6.75874 8.59832 6.65493 8.52772 6.54001 8.48057L4.20668 7.54724L5.94668 5.61391L7.74668 7.18724C7.90582 7.32515 8.10943 7.40091 8.32001 7.40057C8.38185 7.41031 8.44484 7.41031 8.50668 7.40057L11.6533 6.70057C11.7659 6.6769 11.8725 6.63107 11.9671 6.56577C12.0618 6.50046 12.1424 6.41698 12.2045 6.32019C12.2665 6.22341 12.3087 6.11524 12.3285 6.00199C12.3484 5.88875 12.3455 5.77269 12.32 5.66057C12.2733 5.46853 12.1627 5.29803 12.0065 5.17693C11.8503 5.05584 11.6576 4.99131 11.46 4.99391H11.2733L8.55335 5.60057L6.43335 3.73391C6.27789 3.59426 6.07564 3.51812 5.86668 3.52057C5.74106 3.51905 5.61657 3.54443 5.50157 3.59503C5.38658 3.64563 5.28376 3.72026 5.20001 3.81391L2.74001 6.56724C2.56903 6.75503 2.44627 6.98157 2.3823 7.22735C2.31833 7.47313 2.31507 7.73077 2.3728 7.97809C2.43053 8.22541 2.54752 8.45499 2.71369 8.64705C2.87986 8.8391 3.09023 8.98788 3.32668 9.08057L4.98001 9.74057Z" fill="#BA0186"/>
<path id="Vector_3" d="M7.86661 3.64059C8.11042 3.77951 8.38601 3.853 8.66661 3.85392C9.08132 3.85998 9.48393 3.71423 9.79866 3.44411C10.1134 3.17398 10.3185 2.79813 10.3754 2.3873C10.4323 1.97647 10.337 1.55902 10.1076 1.21353C9.87808 0.868048 9.53023 0.618369 9.12948 0.511504C8.72874 0.404639 8.30275 0.44796 7.93172 0.633312C7.5607 0.818663 7.27023 1.13326 7.115 1.51786C6.95978 1.90247 6.95051 2.33055 7.08894 2.72152C7.22738 3.11248 7.50396 3.43935 7.86661 3.64059Z" fill="#BA0186"/>
</g>
</svg>
