<svg width="17" height="17" viewBox="0 0 17 17" fill="none" xmlns="http://www.w3.org/2000/svg">
<path d="M12.8197 6.69426C12.4325 5.66642 11.868 4.71448 11.1519 3.88176C9.9125 2.44707 8.28281 1.52051 7 1.52051C6.92372 1.52056 6.84847 1.53807 6.78 1.57169C6.71153 1.60531 6.65166 1.65415 6.60497 1.71447C6.55829 1.77479 6.52602 1.84499 6.51064 1.9197C6.49526 1.99441 6.49718 2.07165 6.51625 2.14551C6.94969 3.80176 6.05125 5.17895 5.10031 6.63676C4.3125 7.84426 3.5 9.09145 3.5 10.5205C3.5 13.2774 5.74312 15.5205 8.5 15.5205C11.2569 15.5205 13.5 13.2774 13.5 10.5205C13.5 9.16738 13.2713 7.8802 12.8197 6.69426ZM9.51031 13.6046C9.1875 13.9483 8.78281 14.0205 8.5 14.0205C8.21719 14.0205 7.8125 13.9483 7.48969 13.6046C7.16687 13.2608 7 12.7155 7 12.0205C7 11.2349 7.27562 10.6368 7.54187 10.0586C7.69656 9.72301 7.85437 9.38145 7.94812 9.01582C7.95808 8.97605 7.97766 8.93934 8.00515 8.90892C8.03263 8.8785 8.06718 8.8553 8.10574 8.84138C8.1443 8.82746 8.18569 8.82323 8.22627 8.82907C8.26685 8.83491 8.30537 8.85065 8.33844 8.87488C8.62425 9.09602 8.87839 9.35531 9.09375 9.64551C9.66156 10.3955 10 11.2836 10 12.0205C10 12.7155 9.83062 13.2633 9.51031 13.6046Z" fill="#BA0186"/>
</svg>
