<svg width="25" height="24" viewBox="0 0 25 24" fill="#7F8C8D" xmlns="http://www.w3.org/2000/svg">
<g id="Icon">
<path id="Union" fill-rule="evenodd" clip-rule="evenodd" d="M19.875 2H5.875C5.07962 2.00087 4.31706 2.31722 3.75464 2.87964C3.19222 3.44206 2.87587 4.20462 2.875 5V19C2.87587 19.7954 3.19222 20.5579 3.75464 21.1204C4.31706 21.6828 5.07962 21.9991 5.875 22H19.875C20.6704 21.9991 21.4329 21.6828 21.9954 21.1204C22.5578 20.5579 22.8741 19.7954 22.875 19V5C22.8741 4.20462 22.5578 3.44206 21.9954 2.87964C21.4329 2.31722 20.6704 2.00087 19.875 2ZM8.3491 9.92747C8.41818 9.97462 8.49984 9.99989 8.58348 10C8.6671 9.99993 8.74876 9.97471 8.81785 9.9276C9.84116 9.23294 10.2843 8.75664 10.5287 8.45885C11.0492 7.82422 11.2988 7.17253 11.2918 6.46667C11.2836 5.65781 10.6348 5 9.84546 5C9.2715 5 8.87397 5.32305 8.64246 5.59258C8.63513 5.60102 8.62607 5.60779 8.61589 5.61243C8.60572 5.61707 8.59466 5.61947 8.58348 5.61947C8.57229 5.61947 8.56124 5.61707 8.55106 5.61243C8.54089 5.60779 8.53183 5.60102 8.52449 5.59258C8.29298 5.32331 7.89546 5 7.3215 5C6.53218 5 5.88335 5.65781 5.87514 6.46654C5.86811 7.17227 6.11746 7.82396 6.6383 8.45872C6.8827 8.75651 7.3258 9.23281 8.3491 9.92747ZM19.125 15.5H6.625C6.42609 15.5 6.23532 15.421 6.09467 15.2803C5.95402 15.1397 5.875 14.9489 5.875 14.75C5.875 14.5511 5.95402 14.3603 6.09467 14.2197C6.23532 14.079 6.42609 14 6.625 14H19.125C19.3239 14 19.5147 14.079 19.6553 14.2197C19.796 14.3603 19.875 14.5511 19.875 14.75C19.875 14.9489 19.796 15.1397 19.6553 15.2803C19.5147 15.421 19.3239 15.5 19.125 15.5ZM6.625 19.25H15.125C15.3239 19.25 15.5147 19.171 15.6553 19.0303C15.796 18.8897 15.875 18.6989 15.875 18.5C15.875 18.3011 15.796 18.1103 15.6553 17.9697C15.5147 17.829 15.3239 17.75 15.125 17.75H6.625C6.42609 17.75 6.23532 17.829 6.09467 17.9697C5.95402 18.1103 5.875 18.3011 5.875 18.5C5.875 18.6989 5.95402 18.8897 6.09467 19.0303C6.23532 19.171 6.42609 19.25 6.625 19.25Z" fill="currentColor"/>
</g>
</svg>
