<svg width="17" height="17" viewBox="0 0 17 17" fill="none" xmlns="http://www.w3.org/2000/svg">
<path d="M10.4546 2.98734C10.3333 3.3523 10.1412 3.6897 9.88914 3.98018C9.65696 4.27777 9.35942 4.51793 9.01954 4.68209C8.67966 4.84625 8.30657 4.92999 7.92914 4.92685C7.89682 4.55634 7.93917 4.18312 8.05368 3.82928C8.16819 3.47544 8.35254 3.14817 8.59581 2.86685C9.10381 2.27989 9.82206 1.91597 10.5958 1.85352C10.6239 2.23707 10.5759 2.62238 10.4546 2.98734Z" fill="#BA0186"/>
<path d="M8.21552 14.6403C8.72837 14.6438 9.06144 14.7862 9.37926 14.9221C9.60607 15.0191 9.8251 15.1127 10.0962 15.1502C10.1956 15.1694 10.3025 15.1824 10.42 15.1869C11.3 15.2202 11.9666 14.3069 12.5 13.5002C13.6733 11.8535 14.5466 8.8202 13.3733 6.7802C13.0982 6.28452 12.6994 5.86859 12.2157 5.57299C11.9983 5.44012 11.767 5.33361 11.5269 5.2549C11.2205 5.14247 10.8973 5.07871 10.5691 5.06685C9.93872 5.00219 9.3377 5.23884 8.83883 5.43526C8.60601 5.52693 8.39545 5.60984 8.21453 5.64927C8.03363 5.60983 7.82308 5.52693 7.59029 5.43528C7.09142 5.23885 6.4904 5.0022 5.85998 5.06686C5.53208 5.07871 5.20912 5.14239 4.90286 5.25467C4.66249 5.3334 4.43105 5.43999 4.21344 5.57297C3.72972 5.86858 3.33088 6.2845 3.05581 6.78018C1.88247 8.82018 2.75581 11.8535 3.92914 13.5002C4.46247 14.3068 5.12914 15.2202 6.00914 15.1868C6.12641 15.1824 6.23315 15.1694 6.33249 15.1503C6.60377 15.1129 6.82292 15.0191 7.04986 14.9221C7.36807 14.7861 7.70158 14.6435 8.21552 14.6403Z" fill="#BA0186"/>
</svg>
