<svg width="16" height="12" viewBox="0 0 16 12" fill="none" xmlns="http://www.w3.org/2000/svg">
<path d="M15.0977 5.16816C14.4349 2.1716 13.4374 0.572223 11.9577 0.135349C11.6467 0.0441136 11.324 -0.0014663 10.9999 3.59553e-05C10.5715 3.59553e-05 10.1983 0.104411 9.80366 0.215036C9.32803 0.348473 8.78772 0.500036 7.9999 0.500036C7.21209 0.500036 6.67147 0.348786 6.1949 0.215348C5.7999 0.104411 5.42709 3.59553e-05 4.9999 3.59553e-05C4.66472 -0.00112626 4.33101 0.0443085 4.00834 0.135036C2.53647 0.570036 1.53959 2.16879 0.867089 5.16629C0.143964 8.39191 0.499901 10.4285 1.86521 10.901C2.05236 10.9669 2.24928 11.001 2.44771 11.0016C3.38303 11.0016 4.13303 10.2225 4.64553 9.58472C5.22459 8.86285 5.9024 8.4966 7.9999 8.4966C9.87334 8.4966 10.6487 8.75066 11.3183 9.58472C11.7393 10.1091 12.1371 10.476 12.534 10.7069C13.0618 11.0138 13.5893 11.0819 14.1015 10.906C14.9083 10.6307 15.3708 9.90285 15.4765 8.74222C15.5568 7.85222 15.433 6.68316 15.0977 5.16816ZM6.4999 5.00004H5.4999V6.00004C5.4999 6.13264 5.44723 6.25982 5.35346 6.35359C5.25969 6.44736 5.13251 6.50004 4.9999 6.50004C4.8673 6.50004 4.74012 6.44736 4.64635 6.35359C4.55258 6.25982 4.4999 6.13264 4.4999 6.00004V5.00004H3.4999C3.36729 5.00004 3.24012 4.94736 3.14635 4.85359C3.05258 4.75982 2.9999 4.63264 2.9999 4.50004C2.9999 4.36743 3.05258 4.24025 3.14635 4.14648C3.24012 4.05271 3.36729 4.00004 3.4999 4.00004H4.4999V3.00004C4.4999 2.86743 4.55258 2.74025 4.64635 2.64648C4.74012 2.55271 4.8673 2.50004 4.9999 2.50004C5.13251 2.50004 5.25969 2.55271 5.35346 2.64648C5.44723 2.74025 5.4999 2.86743 5.4999 3.00004V4.00004H6.4999C6.63251 4.00004 6.75969 4.05271 6.85346 4.14648C6.94723 4.24025 6.9999 4.36743 6.9999 4.50004C6.9999 4.63264 6.94723 4.75982 6.85346 4.85359C6.75969 4.94736 6.63251 5.00004 6.4999 5.00004ZM9.12491 5.12504C9.00129 5.12504 8.88046 5.08838 8.77767 5.0197C8.67489 4.95103 8.59479 4.85342 8.54748 4.73921C8.50018 4.62501 8.4878 4.49934 8.51192 4.3781C8.53603 4.25687 8.59556 4.1455 8.68296 4.05809C8.77037 3.97069 8.88174 3.91116 9.00297 3.88705C9.12421 3.86293 9.24988 3.87531 9.36408 3.92261C9.47829 3.96992 9.5759 4.05002 9.64458 4.1528C9.71325 4.25559 9.74991 4.37642 9.74991 4.50004C9.74991 4.6658 9.68406 4.82477 9.56685 4.94198C9.44964 5.05919 9.29067 5.12504 9.12491 5.12504ZM10.4999 6.50004C10.3762 6.50004 10.2553 6.46334 10.1525 6.39459C10.0497 6.32585 9.96959 6.22815 9.92233 6.11385C9.87508 5.99956 9.86279 5.87381 9.88703 5.75253C9.91127 5.63125 9.97096 5.51989 10.0585 5.43254C10.1461 5.3452 10.2576 5.28579 10.3789 5.26186C10.5003 5.23792 10.626 5.25052 10.7402 5.29806C10.8543 5.34561 10.9518 5.42596 11.0203 5.52894C11.0888 5.63193 11.1252 5.75292 11.1249 5.8766C11.1245 6.04209 11.0585 6.20066 10.9413 6.31753C10.8241 6.4344 10.6654 6.50004 10.4999 6.50004ZM10.4999 3.75004C10.3763 3.75004 10.2555 3.71338 10.1527 3.6447C10.0499 3.57603 9.96979 3.47842 9.92248 3.36421C9.87518 3.25001 9.8628 3.12434 9.88692 3.0031C9.91103 2.88187 9.97056 2.7705 10.058 2.68309C10.1454 2.59569 10.2567 2.53616 10.378 2.51205C10.4992 2.48793 10.6249 2.50031 10.7391 2.54761C10.8533 2.59492 10.9509 2.67502 11.0196 2.7778C11.0883 2.88059 11.1249 3.00142 11.1249 3.12504C11.1249 3.2908 11.0591 3.44977 10.9418 3.56698C10.8246 3.68419 10.6657 3.75004 10.4999 3.75004ZM11.8749 5.12504C11.7513 5.12504 11.6305 5.08838 11.5277 5.0197C11.4249 4.95103 11.3448 4.85342 11.2975 4.73921C11.2502 4.62501 11.2378 4.49934 11.2619 4.3781C11.286 4.25687 11.3456 4.1455 11.433 4.05809C11.5204 3.97069 11.6317 3.91116 11.753 3.88705C11.8742 3.86293 11.9999 3.87531 12.1141 3.92261C12.2283 3.96992 12.3259 4.05002 12.3946 4.1528C12.4633 4.25559 12.4999 4.37642 12.4999 4.50004C12.4999 4.6658 12.4341 4.82477 12.3168 4.94198C12.1996 5.05919 12.0407 5.12504 11.8749 5.12504Z" fill="#9B59B6"/>
</svg>
