<svg width="17" height="17" viewBox="0 0 17 17" fill="none" xmlns="http://www.w3.org/2000/svg">
<path d="M15.5978 8.32636C14.935 5.3298 13.9375 3.73043 12.4578 3.29355C12.1468 3.20232 11.8241 3.15674 11.5 3.15824C11.0716 3.15824 10.6984 3.26261 10.3037 3.37324C9.82812 3.50668 9.28781 3.65824 8.5 3.65824C7.71218 3.65824 7.17156 3.50699 6.695 3.37355C6.3 3.26261 5.92718 3.15824 5.49999 3.15824C5.16482 3.15708 4.8311 3.20251 4.50843 3.29324C3.03656 3.72824 2.03968 5.32699 1.36718 8.32449C0.644055 11.5501 0.999993 13.5867 2.36531 14.0592C2.55246 14.1251 2.74937 14.1592 2.94781 14.1598C3.88312 14.1598 4.63312 13.3807 5.14562 12.7429C5.72468 12.0211 6.4025 11.6548 8.5 11.6548C10.3734 11.6548 11.1487 11.9089 11.8184 12.7429C12.2394 13.2673 12.6372 13.6342 13.0341 13.8651C13.5619 14.172 14.0894 14.2401 14.6016 14.0642C15.4084 13.7889 15.8709 13.0611 15.9766 11.9004C16.0569 11.0104 15.9331 9.84136 15.5978 8.32636ZM7 8.15824H6V9.15824C6 9.29085 5.94732 9.41802 5.85355 9.51179C5.75978 9.60556 5.6326 9.65824 5.49999 9.65824C5.36739 9.65824 5.24021 9.60556 5.14644 9.51179C5.05267 9.41802 4.99999 9.29085 4.99999 9.15824V8.15824H3.99999C3.86739 8.15824 3.74021 8.10556 3.64644 8.01179C3.55267 7.91802 3.49999 7.79085 3.49999 7.65824C3.49999 7.52563 3.55267 7.39845 3.64644 7.30469C3.74021 7.21092 3.86739 7.15824 3.99999 7.15824H4.99999V6.15824C4.99999 6.02563 5.05267 5.89845 5.14644 5.80469C5.24021 5.71092 5.36739 5.65824 5.49999 5.65824C5.6326 5.65824 5.75978 5.71092 5.85355 5.80469C5.94732 5.89845 6 6.02563 6 6.15824V7.15824H7C7.1326 7.15824 7.25978 7.21092 7.35355 7.30469C7.44732 7.39845 7.5 7.52563 7.5 7.65824C7.5 7.79085 7.44732 7.91802 7.35355 8.01179C7.25978 8.10556 7.1326 8.15824 7 8.15824ZM9.625 8.28324C9.50138 8.28324 9.38055 8.24658 9.27777 8.17791C9.17498 8.10923 9.09488 8.01162 9.04757 7.89742C9.00027 7.78321 8.98789 7.65755 9.01201 7.53631C9.03612 7.41507 9.09565 7.3037 9.18305 7.2163C9.27046 7.12889 9.38183 7.06936 9.50307 7.04525C9.6243 7.02113 9.74997 7.03351 9.86417 7.08081C9.97838 7.12812 10.076 7.20823 10.1447 7.31101C10.2133 7.41379 10.25 7.53463 10.25 7.65824C10.25 7.824 10.1841 7.98297 10.0669 8.10018C9.94973 8.21739 9.79076 8.28324 9.625 8.28324ZM11 9.65824C10.8763 9.65824 10.7554 9.62154 10.6526 9.5528C10.5498 9.48405 10.4697 9.38635 10.4224 9.27205C10.3752 9.15776 10.3629 9.03201 10.3871 8.91073C10.4114 8.78945 10.471 8.67809 10.5586 8.59074C10.6462 8.5034 10.7577 8.444 10.879 8.42006C11.0004 8.39612 11.1261 8.40872 11.2403 8.45626C11.3544 8.50381 11.4519 8.58416 11.5204 8.68715C11.5889 8.79013 11.6253 8.91112 11.625 9.0348C11.6246 9.20029 11.5586 9.35886 11.4414 9.47573C11.3242 9.59261 11.1655 9.65824 11 9.65824ZM11 6.90824C10.8764 6.90824 10.7555 6.87158 10.6528 6.80291C10.55 6.73423 10.4699 6.63662 10.4226 6.52242C10.3753 6.40821 10.3629 6.28255 10.387 6.16131C10.4111 6.04007 10.4706 5.92871 10.5581 5.8413C10.6455 5.75389 10.7568 5.69436 10.8781 5.67025C10.9993 5.64613 11.125 5.65851 11.2392 5.70581C11.3534 5.75312 11.451 5.83323 11.5197 5.93601C11.5883 6.03879 11.625 6.15963 11.625 6.28324C11.625 6.449 11.5592 6.60797 11.4419 6.72518C11.3247 6.84239 11.1658 6.90824 11 6.90824ZM12.375 8.28324C12.2514 8.28324 12.1305 8.24658 12.0278 8.17791C11.925 8.10923 11.8449 8.01162 11.7976 7.89742C11.7503 7.78321 11.7379 7.65755 11.762 7.53631C11.7861 7.41507 11.8456 7.3037 11.9331 7.2163C12.0205 7.12889 12.1318 7.06936 12.2531 7.04525C12.3743 7.02113 12.5 7.03351 12.6142 7.08081C12.7284 7.12812 12.826 7.20823 12.8947 7.31101C12.9633 7.41379 13 7.53463 13 7.65824C13 7.824 12.9342 7.98297 12.8169 8.10018C12.6997 8.21739 12.5408 8.28324 12.375 8.28324Z" fill="#9B59B6"/>
</svg>
