<svg width="17" height="17" viewBox="0 0 17 17" fill="none" xmlns="http://www.w3.org/2000/svg">
<path d="M15.5978 8.18867C14.935 5.19211 13.9375 3.59273 12.4578 3.15586C12.1468 3.06462 11.8242 3.01904 11.5 3.02054C11.0716 3.02054 10.6985 3.12492 10.3038 3.23554C9.82815 3.36898 9.28784 3.52054 8.50003 3.52054C7.71221 3.52054 7.17159 3.36929 6.69503 3.23586C6.30003 3.12492 5.92721 3.02054 5.50003 3.02054C5.16485 3.01938 4.83113 3.06482 4.50846 3.15554C3.03659 3.59054 2.03971 5.18929 1.36721 8.18679C0.644086 11.4124 1.00002 13.449 2.36534 13.9215C2.55249 13.9874 2.7494 14.0215 2.94784 14.0221C3.88315 14.0221 4.63315 13.243 5.14565 12.6052C5.72471 11.8834 6.40253 11.5171 8.50003 11.5171C10.3735 11.5171 11.1488 11.7712 11.8185 12.6052C12.2394 13.1296 12.6372 13.4965 13.0341 13.7274C13.5619 14.0343 14.0894 14.1024 14.6016 13.9265C15.4085 13.6512 15.871 12.9234 15.9766 11.7627C16.0569 10.8727 15.9332 9.70367 15.5978 8.18867ZM7.00003 8.02054H6.00003V9.02054C6.00003 9.15315 5.94735 9.28033 5.85358 9.3741C5.75981 9.46787 5.63263 9.52054 5.50003 9.52054C5.36742 9.52054 5.24024 9.46787 5.14647 9.3741C5.0527 9.28033 5.00003 9.15315 5.00003 9.02054V8.02054H4.00003C3.86742 8.02054 3.74024 7.96786 3.64647 7.8741C3.5527 7.78033 3.50003 7.65315 3.50003 7.52054C3.50003 7.38794 3.5527 7.26076 3.64647 7.16699C3.74024 7.07322 3.86742 7.02054 4.00003 7.02054H5.00003V6.02054C5.00003 5.88794 5.0527 5.76076 5.14647 5.66699C5.24024 5.57322 5.36742 5.52054 5.50003 5.52054C5.63263 5.52054 5.75981 5.57322 5.85358 5.66699C5.94735 5.76076 6.00003 5.88794 6.00003 6.02054V7.02054H7.00003C7.13264 7.02054 7.25981 7.07322 7.35358 7.16699C7.44735 7.26076 7.50003 7.38794 7.50003 7.52054C7.50003 7.65315 7.44735 7.78033 7.35358 7.8741C7.25981 7.96786 7.13264 8.02054 7.00003 8.02054ZM9.62503 8.14554C9.50142 8.14554 9.38058 8.10889 9.2778 8.04021C9.17502 7.97154 9.09491 7.87392 9.0476 7.75972C9.0003 7.64552 8.98792 7.51985 9.01204 7.39861C9.03615 7.27737 9.09568 7.16601 9.18309 7.0786C9.27049 6.99119 9.38186 6.93167 9.5031 6.90755C9.62434 6.88344 9.75 6.89581 9.86421 6.94312C9.97841 6.99042 10.076 7.07053 10.1447 7.17331C10.2134 7.27609 10.25 7.39693 10.25 7.52054C10.25 7.6863 10.1842 7.84527 10.067 7.96249C9.94976 8.0797 9.79079 8.14554 9.62503 8.14554ZM11 9.52054C10.8764 9.52054 10.7555 9.48385 10.6526 9.4151C10.5498 9.34636 10.4697 9.24865 10.4225 9.13436C10.3752 9.02006 10.3629 8.89432 10.3872 8.77304C10.4114 8.65176 10.4711 8.54039 10.5586 8.45305C10.6462 8.3657 10.7577 8.3063 10.8791 8.28236C11.0004 8.25842 11.1261 8.27102 11.2403 8.31857C11.3545 8.36611 11.452 8.44646 11.5205 8.54945C11.5889 8.65244 11.6253 8.77343 11.625 8.89711C11.6246 9.06259 11.5586 9.22117 11.4414 9.33804C11.3243 9.45491 11.1655 9.52054 11 9.52054ZM11 6.77054C10.8764 6.77054 10.7556 6.73389 10.6528 6.66521C10.55 6.59654 10.4699 6.49892 10.4226 6.38472C10.3753 6.27052 10.3629 6.14485 10.387 6.02361C10.4112 5.90237 10.4707 5.79101 10.5581 5.7036C10.6455 5.61619 10.7569 5.55667 10.8781 5.53255C10.9993 5.50844 11.125 5.52081 11.2392 5.56812C11.3534 5.61542 11.451 5.69553 11.5197 5.79831C11.5884 5.90109 11.625 6.02193 11.625 6.14554C11.625 6.3113 11.5592 6.47028 11.442 6.58749C11.3248 6.7047 11.1658 6.77054 11 6.77054ZM12.375 8.14554C12.2514 8.14554 12.1306 8.10889 12.0278 8.04021C11.925 7.97154 11.8449 7.87392 11.7976 7.75972C11.7503 7.64552 11.7379 7.51985 11.762 7.39861C11.7862 7.27737 11.8457 7.16601 11.9331 7.0786C12.0205 6.99119 12.1319 6.93167 12.2531 6.90755C12.3743 6.88344 12.5 6.89581 12.6142 6.94312C12.7284 6.99042 12.826 7.07053 12.8947 7.17331C12.9634 7.27609 13 7.39693 13 7.52054C13 7.6863 12.9342 7.84527 12.817 7.96249C12.6998 8.0797 12.5408 8.14554 12.375 8.14554Z" fill="#BA0186"/>
</svg>
