<svg width="12" height="15" viewBox="0 0 12 15" fill="none" xmlns="http://www.w3.org/2000/svg">
<path d="M0.5 14.5C0.367392 14.5 0.240215 14.4473 0.146447 14.3536C0.0526785 14.2598 0 14.1326 0 14V1.62906C3.57728e-05 1.49806 0.0343858 1.36935 0.0996304 1.25574C0.164875 1.14214 0.258738 1.04761 0.371875 0.981562C0.75 0.761875 1.51188 0.5 3 0.5C4.16281 0.5 5.46344 0.959688 6.61094 1.365C7.535 1.69156 8.40781 2 9 2C9.76232 1.99766 10.5166 1.84363 11.2188 1.54688C11.3043 1.51078 11.3974 1.49641 11.4898 1.50503C11.5822 1.51366 11.671 1.54502 11.7484 1.59632C11.8257 1.64762 11.8892 1.71726 11.9331 1.79904C11.977 1.88082 12 1.97218 12 2.065V8.92C11.9999 9.0415 11.9643 9.16033 11.8977 9.26196C11.8311 9.36358 11.7364 9.44359 11.625 9.49219C11.3528 9.61125 10.3591 10 9 10C8.24562 10 7.30062 9.77688 6.30031 9.54031C5.17594 9.27469 4.01344 9 3 9C1.84781 9 1.25813 9.17437 1 9.28469V14C1 14.1326 0.947321 14.2598 0.853553 14.3536C0.759785 14.4473 0.632608 14.5 0.5 14.5Z" fill="#F39C12"/>
</svg>
