<svg xmlns="http://www.w3.org/2000/svg" width="25.137" height="25.137" viewBox="0 0 25.137 25.137">
  <path id="Icon_ionic-ios-alert" data-name="Icon ionic-ios-alert" d="M15.944,3.375A12.569,12.569,0,1,0,28.512,15.944,12.567,12.567,0,0,0,15.944,3.375ZM16.983,10,16.8,16.953a.865.865,0,0,1-.852.894h0a.865.865,0,0,1-.852-.894L14.9,10a1.041,1.041,0,0,1,1.039-1.063h0A1.041,1.041,0,0,1,16.983,10ZM15.944,21.865A1.113,1.113,0,1,1,17.1,20.753,1.123,1.123,0,0,1,15.944,21.865Z" transform="translate(-3.375 -3.375)" fill="#e43a3f"/>
</svg>
