<svg width="40" height="41" viewBox="0 0 40 41" fill="none" xmlns="http://www.w3.org/2000/svg">
<g opacity="0.5">
<path d="M20.0208 20.4312C18.7846 20.4312 17.5762 20.0646 16.5484 19.3778C15.5206 18.6911 14.7196 17.715 14.2465 16.5729C13.7735 15.4309 13.6497 14.1742 13.8908 12.9618C14.132 11.7495 14.7273 10.6358 15.6013 9.76174C16.4754 8.88766 17.5891 8.29241 18.8014 8.05125C20.0138 7.81009 21.2705 7.93386 22.4125 8.40691C23.5546 8.87996 24.5307 9.68103 25.2174 10.7088C25.9042 11.7366 26.2708 12.945 26.2708 14.1812C26.2687 15.8381 25.6095 17.4266 24.4379 18.5983C23.2662 19.7699 21.6777 20.4291 20.0208 20.4312Z"/>
<path d="M37.3161 32.2974L31.7278 22.206C31.702 22.1602 31.665 22.1217 31.6204 22.0939C31.5757 22.0662 31.5247 22.0502 31.4722 22.0474C31.4197 22.0446 31.3674 22.0551 31.32 22.0779C31.2726 22.1007 31.2318 22.1351 31.2012 22.1779C29.6644 24.3311 27.5407 25.9968 25.0833 26.9763C24.7815 27.0952 24.5375 27.3262 24.402 27.6208L21.5223 33.9568C21.4853 34.0377 21.4661 34.1256 21.4661 34.2146C21.4661 34.3036 21.4853 34.3915 21.5223 34.4724L23.8872 39.6747C24.0786 40.0974 24.5583 40.406 25.0216 40.4318C25.2393 40.4264 25.4521 40.3653 25.6395 40.2542C25.8268 40.1431 25.9826 39.9858 26.0919 39.7974L29.102 34.7521C29.3278 34.3732 29.7372 34.1794 30.1786 34.1818H36.3325C36.8536 34.1818 37.2481 33.9099 37.4262 33.4005C37.4888 33.2196 37.5114 33.0273 37.4924 32.8369C37.4734 32.6464 37.4132 32.4623 37.3161 32.2974Z" fill="#4b850c"/>
<path d="M21.016 27.9007C20.6863 27.9252 20.3535 27.9374 20.0176 27.9374C19.609 27.9374 19.2051 27.9187 18.8059 27.8835C16.8309 27.7084 14.9171 27.1086 13.1956 26.125C11.4741 25.1415 9.98543 23.7975 8.83166 22.1851C8.80127 22.1417 8.76037 22.1068 8.71279 22.0836C8.66521 22.0604 8.61251 22.0496 8.55964 22.0524C8.50677 22.0551 8.45546 22.0712 8.41053 22.0992C8.36559 22.1272 8.32851 22.1662 8.30275 22.2124L2.67775 32.3218C2.46369 32.7124 2.4301 33.1812 2.65588 33.5624C2.77341 33.7514 2.93714 33.9074 3.13164 34.0157C3.32614 34.1239 3.545 34.1809 3.7676 34.1812H9.86135C10.0736 34.1733 10.2841 34.2222 10.4712 34.3229C10.6582 34.4236 10.815 34.5723 10.9254 34.7538L13.9457 39.8062C14.0562 39.9936 14.2131 40.1496 14.4012 40.259C14.5893 40.3684 14.8023 40.4277 15.0199 40.4312C15.484 40.4054 15.9645 40.1038 16.1574 39.6812L21.3223 28.3413C21.3446 28.292 21.3537 28.2378 21.3488 28.184C21.3439 28.1301 21.3251 28.0785 21.2942 28.0341C21.2633 27.9897 21.2215 27.9541 21.1727 27.9307C21.124 27.9073 21.07 27.897 21.016 27.9007Z" fill="#4b850c"/>
</g>
<path fill-rule="evenodd" clip-rule="evenodd" d="M6.27075 14.1812C6.27075 6.59665 12.4352 0.431152 20.0208 0.431152C27.6055 0.431152 33.7708 6.59743 33.7708 14.1812C33.7708 21.7651 27.6037 27.9312 20.0208 27.9312C12.4379 27.9312 6.27075 21.766 6.27075 14.1812ZM16.942 19.6203C17.8788 20.1505 18.9391 20.4312 20.0208 20.4312C20.1243 20.431 20.2276 20.4283 20.3305 20.4231C21.8747 20.3447 23.3395 19.6967 24.4379 18.5983C25.6095 17.4266 26.2687 15.8381 26.2708 14.1812C26.2708 12.945 25.9042 11.7366 25.2174 10.7088C24.5307 9.68103 23.5546 8.87995 22.4125 8.40691C21.2705 7.93386 20.0138 7.81009 18.8014 8.05124C17.5891 8.2924 16.4754 8.88766 15.6013 9.76173C15.4921 9.87099 15.3872 9.984 15.2868 10.1005C14.584 10.9158 14.1019 11.901 13.8908 12.9618C13.8607 13.1134 13.8363 13.2656 13.8175 13.4182C13.6861 14.4866 13.8326 15.5736 14.2465 16.5729C14.2761 16.6443 14.3069 16.715 14.339 16.7851C14.8206 17.8358 15.5849 18.734 16.5484 19.3778C16.6769 19.4637 16.8082 19.5445 16.942 19.6203Z" fill="#4b850c"/>
</svg>
