<svg width="24" height="28" viewBox="0 0 24 28" fill="none" xmlns="http://www.w3.org/2000/svg">
<path opacity="0.3" d="M20.3729 1.01953H3.94797C2.45902 1.01953 1.25195 2.2266 1.25195 3.71555V21.5344C1.25195 23.0233 2.45902 24.2304 3.94797 24.2304H10.1904L12.1605 27.3955L14.1305 24.2304H20.3729C21.8619 24.2304 23.069 23.0233 23.069 21.5344V3.71555C23.069 2.2266 21.8619 1.01953 20.3729 1.01953Z" fill="#1A1A1A"/>
<path d="M19.9579 1.99854H3.53293C2.04398 1.99854 0.836914 3.2056 0.836914 4.69455V21.1195C0.836914 22.6085 2.04398 23.8155 3.53293 23.8155H9.77533L11.7454 26.9806L13.7155 23.8155H19.9579C21.4469 23.8155 22.6539 22.6085 22.6539 21.1195V4.69455C22.6539 3.2056 21.4469 1.99854 19.9579 1.99854Z" fill="url(#paint0_linear)"/>
<path d="M19.9579 0.604736H3.53293C2.04398 0.604736 0.836914 1.81181 0.836914 3.30075V19.7257C0.836914 21.2147 2.04398 22.4217 3.53293 22.4217H9.77533L11.7454 25.5868L13.7155 22.4217H19.9579C21.4469 22.4217 22.6539 21.2147 22.6539 19.7257V3.30075C22.6539 1.81181 21.4469 0.604736 19.9579 0.604736Z" fill="white"/>
<path d="M9.82159 22.3388H3.53299C2.09215 22.3388 0.919922 21.1666 0.919922 19.7258V3.30081C0.919922 1.85997 2.09215 0.687744 3.53299 0.687744H19.958C21.3988 0.687744 22.571 1.85997 22.571 3.30081V19.7258C22.571 21.1666 21.3988 22.3388 19.958 22.3388H13.6693L11.7455 25.4298L9.82159 22.3388Z" fill="url(#paint1_linear)"/>
<path d="M19.8097 5.98682H6.99902V8.15026H19.8097V5.98682Z" fill="url(#paint2_linear)"/>
<path d="M19.8095 10.1079H3.68066V12.2714H19.8095V10.1079Z" fill="url(#paint3_linear)"/>
<path d="M19.8095 14.2283H3.68066V16.3917H19.8095V14.2283Z" fill="url(#paint4_linear)"/>
<defs>
<linearGradient id="paint0_linear" x1="0.836914" y1="14.4896" x2="22.6539" y2="14.4896" gradientUnits="userSpaceOnUse">
<stop stop-color="#E6E6E6"/>
<stop offset="0.055" stop-color="#CCCCCC"/>
<stop offset="0.344" stop-color="#CCCCCC"/>
<stop offset="0.409" stop-color="#B3B3B3"/>
<stop offset="0.458" stop-color="#E6E6E6"/>
<stop offset="0.498" stop-color="#E6E6E6"/>
<stop offset="0.542" stop-color="#E6E6E6"/>
<stop offset="0.589" stop-color="#B3B3B3"/>
<stop offset="0.622" stop-color="#CCCCCC"/>
<stop offset="0.884" stop-color="#CCCCCC"/>
<stop offset="1" stop-color="#CCCCCC"/>
</linearGradient>
<linearGradient id="paint1_linear" x1="11.7455" y1="24.2053" x2="11.7455" y2="0.616403" gradientUnits="userSpaceOnUse">
<stop offset="0.001" stop-color="#F2F2F2"/>
<stop offset="0.998" stop-color="white"/>
</linearGradient>
<linearGradient id="paint2_linear" x1="13.4043" y1="4.79393" x2="13.4043" y2="19.4544" gradientUnits="userSpaceOnUse">
<stop offset="0.006" stop-color="#5FCEE2"/>
<stop offset="1" stop-color="#29ABE2"/>
</linearGradient>
<linearGradient id="paint3_linear" x1="11.7451" y1="4.79384" x2="11.7451" y2="19.4544" gradientUnits="userSpaceOnUse">
<stop offset="0.006" stop-color="#5FCEE2"/>
<stop offset="1" stop-color="#29ABE2"/>
</linearGradient>
<linearGradient id="paint4_linear" x1="11.7451" y1="4.79389" x2="11.7451" y2="19.4544" gradientUnits="userSpaceOnUse">
<stop offset="0.006" stop-color="#5FCEE2"/>
<stop offset="1" stop-color="#29ABE2"/>
</linearGradient>
</defs>
</svg>
