<svg width="17" height="17" viewBox="0 0 17 17" fill="none" xmlns="http://www.w3.org/2000/svg">
<path fill-rule="evenodd" clip-rule="evenodd" d="M4.75 4.6582C4.75 4.24399 5.08579 3.9082 5.5 3.9082H14.5C14.9142 3.9082 15.25 4.24399 15.25 4.6582C15.25 5.07242 14.9142 5.4082 14.5 5.4082H5.5C5.08579 5.4082 4.75 5.07242 4.75 4.6582Z" fill="#5250da"/>
<path fill-rule="evenodd" clip-rule="evenodd" d="M4.75 8.1582C4.75 7.74399 5.08579 7.4082 5.5 7.4082H14.5C14.9142 7.4082 15.25 7.74399 15.25 8.1582C15.25 8.57242 14.9142 8.9082 14.5 8.9082H5.5C5.08579 8.9082 4.75 8.57242 4.75 8.1582Z" fill="#5250da"/>
<path fill-rule="evenodd" clip-rule="evenodd" d="M4.75 11.6582C4.75 11.244 5.08579 10.9082 5.5 10.9082H14.5C14.9142 10.9082 15.25 11.244 15.25 11.6582C15.25 12.0724 14.9142 12.4082 14.5 12.4082H5.5C5.08579 12.4082 4.75 12.0724 4.75 11.6582Z" fill="#5250da"/>
<path fill-rule="evenodd" clip-rule="evenodd" d="M2 4.6582C2 4.10592 2.44772 3.6582 3 3.6582C3.55228 3.6582 4 4.10592 4 4.6582C4 5.21049 3.55228 5.6582 3 5.6582C2.44772 5.6582 2 5.21049 2 4.6582Z" fill="#5250da"/>
<path fill-rule="evenodd" clip-rule="evenodd" d="M2 8.1582C2 7.60592 2.44772 7.1582 3 7.1582C3.55228 7.1582 4 7.60592 4 8.1582C4 8.71049 3.55228 9.1582 3 9.1582C2.44772 9.1582 2 8.71049 2 8.1582Z" fill="#5250da"/>
<path fill-rule="evenodd" clip-rule="evenodd" d="M2 11.6582C2 11.1059 2.44772 10.6582 3 10.6582C3.55228 10.6582 4 11.1059 4 11.6582C4 12.2105 3.55228 12.6582 3 12.6582C2.44772 12.6582 2 12.2105 2 11.6582Z" fill="#5250da"/>
</svg>
