<?xml version="1.0" encoding="utf-8"?>
<!-- Generator: Adobe Illustrator 25.4.1, SVG Export Plug-In . SVG Version: 6.00 Build 0)  -->
<svg version="1.1" id="Capa_1" xmlns="http://www.w3.org/2000/svg" xmlns:xlink="http://www.w3.org/1999/xlink" x="0px" y="0px"
	 viewBox="0 0 16 22" style="enable-background:new 0 0 16 22;" xml:space="preserve">
<style type="text/css">
	.st0{fill:#3498DB;}
</style>
<path class="st0" d="M8,0.5c-4.1,0-7.5,3.2-7.5,7.2c0,1.9,0.9,4.4,2.6,7.4c1.4,2.5,2.9,4.7,3.8,5.8c0.1,0.2,0.3,0.3,0.5,0.4
	c0.2,0.1,0.4,0.2,0.7,0.2c0.2,0,0.5-0.1,0.7-0.2c0.2-0.1,0.4-0.3,0.5-0.4c0.8-1.1,2.4-3.3,3.8-5.8c1.7-3.1,2.5-5.6,2.5-7.4
	C15.5,3.7,12.1,0.5,8,0.5z M8,11c-0.6,0-1.2-0.2-1.7-0.5c-0.5-0.3-0.9-0.8-1.1-1.3C5,8.6,4.9,8,5.1,7.4c0.1-0.6,0.4-1.1,0.8-1.5
	c0.4-0.4,1-0.7,1.5-0.8C8,4.9,8.6,5,9.1,5.2c0.5,0.2,1,0.6,1.3,1.1C10.8,6.8,11,7.4,11,8c0,0.8-0.3,1.6-0.9,2.1
	C9.6,10.7,8.8,11,8,11z"/>
</svg>
