<svg width="17" height="17" viewBox="0 0 17 17" fill="none" xmlns="http://www.w3.org/2000/svg">
<g id="icons / medicina">
<path id="Vector" d="M13.5 3.52097C12.8599 2.881 11.9918 2.52148 11.0867 2.52148C10.1815 2.52148 9.31343 2.881 8.67333 3.52097L3.5 8.6943C3.17543 9.00952 2.91677 9.38611 2.73905 9.80219C2.56134 10.2183 2.46812 10.6655 2.46481 11.118C2.46151 11.5704 2.54818 12.019 2.71979 12.4376C2.89141 12.8562 3.14454 13.2366 3.46446 13.5565C3.78439 13.8764 4.16473 14.1296 4.58336 14.3012C5.00199 14.4728 5.45057 14.5595 5.903 14.5562C6.35543 14.5528 6.80269 14.4596 7.21877 14.2819C7.63485 14.1042 8.01145 13.8455 8.32666 13.521L13.5 8.34763C14.14 7.70753 14.4995 6.83945 14.4995 5.9343C14.4995 5.02916 14.14 4.16107 13.5 3.52097ZM12.56 7.40097L10.44 9.52097L7.5 6.58097L9.62 4.46097C10.014 4.09185 10.5361 3.8904 11.076 3.8992C11.6158 3.90801 12.1311 4.12637 12.5128 4.50814C12.8946 4.88992 13.113 5.40518 13.1218 5.94501C13.1306 6.48485 12.9291 7.00695 12.56 7.40097Z" fill="#612D85"/>
</g>
</svg>
