<svg width="24" height="24" viewBox="0 0 24 24" fill="none" xmlns="http://www.w3.org/2000/svg">
<path d="M22.1719 1.82942C22.0185 1.67608 21.8241 1.57034 21.612 1.52493C21.3999 1.47953 21.1793 1.49638 20.9765 1.57348L2.22514 8.67082H2.22139C2.00519 8.75398 1.81992 8.90185 1.6909 9.09424C1.56188 9.28662 1.49539 9.51415 1.50052 9.74574C1.50565 9.97733 1.58214 10.2017 1.71955 10.3882C1.85696 10.5747 2.04859 10.7142 2.26827 10.7877L2.28749 10.7938L8.72342 13.5421C8.84895 13.5802 8.98229 13.5847 9.11011 13.5552C9.23793 13.5256 9.35577 13.4631 9.45186 13.3738L19.7812 3.74895C19.812 3.71817 19.8486 3.69375 19.8888 3.6771C19.929 3.66044 19.9721 3.65187 20.0156 3.65187C20.0591 3.65187 20.1022 3.66044 20.1425 3.6771C20.1827 3.69375 20.2192 3.71817 20.25 3.74895C20.2808 3.77973 20.3052 3.81626 20.3218 3.85648C20.3385 3.89669 20.3471 3.93979 20.3471 3.98332C20.3471 4.02685 20.3385 4.06995 20.3218 4.11016C20.3052 4.15038 20.2808 4.18692 20.25 4.2177L10.6247 14.5424C10.5354 14.6385 10.4728 14.7563 10.4433 14.8841C10.4138 15.012 10.4183 15.1453 10.4564 15.2708L13.2056 21.7105C13.2084 21.7199 13.2112 21.7283 13.2145 21.7372C13.3645 22.1718 13.7442 22.4783 14.2031 22.4989C14.2233 22.4989 14.2303 22.4989 14.25 22.4989C14.4817 22.5003 14.7084 22.4319 14.9006 22.3026C15.0929 22.1734 15.2419 21.9893 15.3281 21.7743L22.4245 3.02801C22.5027 2.82517 22.5205 2.60402 22.4756 2.39131C22.4308 2.1786 22.3253 1.98343 22.1719 1.82942Z" fill="white"/>
</svg>
