<svg width="86" height="86" viewBox="0 0 86 86" fill="none" xmlns="http://www.w3.org/2000/svg">
<path d="M19.8589 85.3281C9.2791 85.3281 0.671875 76.7209 0.671875 66.1411V19.8589C0.671875 9.2791 9.2791 0.671875 19.8589 0.671875H66.1411C76.7209 0.671875 85.3281 9.2791 85.3281 19.8589V66.1411C85.3281 76.7209 76.7209 85.3281 66.1411 85.3281H19.8589Z" fill="url(#paint0_linear)"/>
<path d="M43 65.3053C42.2589 65.3044 41.5353 65.0805 40.9232 64.6627C31.8556 58.5072 27.9293 54.2867 25.7636 51.648C21.1485 46.0233 18.939 40.2486 19.0013 33.9951C19.074 26.8289 24.8233 21 31.8175 21C36.9034 21 40.4259 23.8648 42.4773 26.2509C42.5423 26.3257 42.6226 26.3857 42.7128 26.4268C42.803 26.4679 42.9009 26.4892 43 26.4892C43.0991 26.4892 43.1971 26.4679 43.2872 26.4268C43.3774 26.3857 43.4577 26.3257 43.5227 26.2509C45.5741 23.8625 49.0966 21 54.1825 21C61.1767 21 66.926 26.8289 66.9987 33.9962C67.061 40.2509 64.8492 46.0256 60.2364 51.6491C58.0707 54.2878 54.1444 58.5084 45.0768 64.6638C44.4646 65.0812 43.741 65.3047 43 65.3053Z" fill="url(#paint1_linear)"/>
<defs>
<linearGradient id="paint0_linear" x1="43" y1="0.671875" x2="43" y2="85.3281" gradientUnits="userSpaceOnUse">
<stop stop-color="#F488D6"/>
<stop offset="1" stop-color="#FB6881"/>
</linearGradient>
<linearGradient id="paint1_linear" x1="43" y1="21" x2="43" y2="65.3053" gradientUnits="userSpaceOnUse">
<stop stop-color="white"/>
<stop offset="0.994792" stop-color="#FFD5D2"/>
</linearGradient>
</defs>
</svg>
