<svg width="86" height="86" viewBox="0 0 86 86" fill="none" xmlns="http://www.w3.org/2000/svg">
<path d="M19.8583 85.3281C9.27893 85.3281 0.671875 76.7211 0.671875 66.1416V19.8584C0.671875 9.27893 9.27893 0.671875 19.8583 0.671875H66.1416C76.7211 0.671875 85.3281 9.27893 85.3281 19.8584V66.1417C85.3281 76.7211 76.7211 85.3281 66.1416 85.3281H19.8583Z" fill="url(#paint0_linear)"/>
<path d="M42.7187 38.8591H42.7397L52.5402 35.5202C52.5792 35.3402 52.5792 35.1602 52.5792 35.0013C52.5792 34.8213 52.5582 34.6623 52.4982 34.5003C52.3392 34.0413 52.0392 33.5403 51.6193 33.1803V28.8005C51.6193 25.5607 50.4583 24.2798 49.2584 23.5418C48.6374 21.6609 46.0575 19 40.9968 19C34.997 19 30.4762 24.9397 30.4762 28.8005C30.4762 30.3995 30.4163 31.6594 30.3563 32.6194C30.3563 32.8204 30.3353 33.0004 30.3353 33.1593C29.8943 33.5583 29.5943 34.0983 29.4563 34.6203C29.4353 34.7403 29.4173 34.8603 29.4173 35.0013C29.4173 36.5612 30.2963 38.8201 30.4162 39.0811C30.5362 39.4201 30.7972 39.702 31.1362 39.861C31.1572 39.942 31.1752 40.062 31.1752 40.302C31.1752 42.4229 32.9961 44.4208 33.9951 45.3808C33.8961 47.5797 33.2751 49.1006 32.3962 49.4816L24.5575 52.0825C22.3376 52.8234 20.6787 54.6233 20.0967 56.9032L19.0378 61.142C18.9388 61.583 19.0378 62.063 19.3168 62.423C19.5958 62.783 20.0367 63.002 20.4957 63.002H42.9167C42.3167 62.243 41.7557 61.403 41.2367 60.5031C39.9168 58.1632 38.9959 55.3223 38.9959 52.1035V44.0788C38.9989 41.7179 40.4988 39.639 42.7187 38.8591Z" fill="url(#paint1_linear)"/>
<path d="M65.9797 42.6508L55.4802 39.081C55.1682 38.973 54.8293 38.973 54.5143 39.081L44.0148 42.6508C43.4058 42.8578 42.9978 43.4278 42.9978 44.0698V52.1064C42.9978 61.9159 53.9443 66.6797 54.4123 66.8807C54.7903 67.0397 55.2072 67.0397 55.5852 66.8807C56.0532 66.6827 66.9997 61.9159 66.9997 52.1064V44.0698C66.9997 43.4278 66.5887 42.8578 65.9797 42.6508ZM61.5699 50.2345L56.0712 57.2332C55.3692 58.1271 54.0583 58.2561 53.1973 57.5151L49.6965 54.5153C48.8565 53.7953 48.7575 52.5354 49.4805 51.6954C50.2005 50.8584 51.4634 50.7595 52.2974 51.4794L54.2143 53.1203L58.4261 47.7626C59.1071 46.8956 60.364 46.7426 61.234 47.4266C62.1009 48.1076 62.2539 49.3645 61.5699 50.2345Z" fill="#FFEDC9"/>
<defs>
<linearGradient id="paint0_linear" x1="43" y1="1.49862" x2="43" y2="85.8304" gradientUnits="userSpaceOnUse">
<stop stop-color="#FFD985"/>
<stop offset="1" stop-color="#FF9230"/>
</linearGradient>
<linearGradient id="paint1_linear" x1="35.7898" y1="19" x2="35.7898" y2="63.002" gradientUnits="userSpaceOnUse">
<stop stop-color="white"/>
<stop offset="1" stop-color="#FAEDD2"/>
</linearGradient>
</defs>
</svg>
