<svg width="16" height="19" viewBox="0 0 16 19" fill="none" xmlns="http://www.w3.org/2000/svg">
<path d="M6.33333 16.4998H9.66667C9.66667 17.4165 8.91667 18.1665 8 18.1665C7.08333 18.1665 6.33333 17.4165 6.33333 16.4998ZM15.5 14.8332V15.6665H0.5V14.8332L2.16667 13.1665V8.1665C2.16667 5.58317 3.83333 3.33317 6.33333 2.58317V2.33317C6.33333 1.4165 7.08333 0.666504 8 0.666504C8.91667 0.666504 9.66667 1.4165 9.66667 2.33317V2.58317C12.1667 3.33317 13.8333 5.58317 13.8333 8.1665V13.1665L15.5 14.8332ZM12.1667 8.1665C12.1667 5.83317 10.3333 3.99984 8 3.99984C5.66667 3.99984 3.83333 5.83317 3.83333 8.1665V13.9998H12.1667V8.1665Z" fill="#8E44AD"/>
</svg>
