<svg width="13" height="14" viewBox="0 0 13 14" fill="none" xmlns="http://www.w3.org/2000/svg">
<path d="M6.5 0.657715C2.91594 0.657715 0 3.57365 0 7.15771C0 10.7418 2.91594 13.6577 6.5 13.6577C10.0841 13.6577 13 10.7418 13 7.15771C13 3.57365 10.0841 0.657715 6.5 0.657715ZM9 7.65771H7V9.65771C7 9.79032 6.94732 9.9175 6.85355 10.0113C6.75979 10.105 6.63261 10.1577 6.5 10.1577C6.36739 10.1577 6.24021 10.105 6.14645 10.0113C6.05268 9.9175 6 9.79032 6 9.65771V7.65771H4C3.86739 7.65771 3.74021 7.60504 3.64645 7.51127C3.55268 7.4175 3.5 7.29032 3.5 7.15771C3.5 7.02511 3.55268 6.89793 3.64645 6.80416C3.74021 6.71039 3.86739 6.65771 4 6.65771H6V4.65771C6 4.52511 6.05268 4.39793 6.14645 4.30416C6.24021 4.21039 6.36739 4.15771 6.5 4.15771C6.63261 4.15771 6.75979 4.21039 6.85355 4.30416C6.94732 4.39793 7 4.52511 7 4.65771V6.65771H9C9.13261 6.65771 9.25979 6.71039 9.35355 6.80416C9.44732 6.89793 9.5 7.02511 9.5 7.15771C9.5 7.29032 9.44732 7.4175 9.35355 7.51127C9.25979 7.60504 9.13261 7.65771 9 7.65771Z" fill="#5250da"/>
</svg>
