<?xml version="1.0" encoding="utf-8"?>
<!-- Generator: Adobe Illustrator 25.3.1, SVG Export Plug-In . SVG Version: 6.00 Build 0)  -->
<svg version="1.1" id="Capa_1" xmlns="http://www.w3.org/2000/svg" xmlns:xlink="http://www.w3.org/1999/xlink" x="0px" y="0px"
	 viewBox="0 0 13 13" style="enable-background:new 0 0 13 13;" xml:space="preserve">
<style type="text/css">
	.st0{fill:#0498DB;}
</style>
<path class="st0" d="M11.5,1.7c-0.6-0.6-1.5-1-2.4-1c-0.9,0-1.8,0.4-2.4,1L1.5,6.8C1.2,7.1,0.9,7.5,0.7,7.9C0.6,8.4,0.5,8.8,0.5,9.3
	c0,0.5,0.1,0.9,0.3,1.3c0.2,0.4,0.4,0.8,0.7,1.1c0.3,0.3,0.7,0.6,1.1,0.7c0.4,0.2,0.9,0.3,1.3,0.3c0.5,0,0.9-0.1,1.3-0.3
	S6,12,6.3,11.7l5.2-5.2c0.6-0.6,1-1.5,1-2.4S12.1,2.3,11.5,1.7z M10.6,5.5L8.4,7.7L5.5,4.7l2.1-2.1C8,2.2,8.5,2,9.1,2
	c0.5,0,1.1,0.2,1.4,0.6c0.4,0.4,0.6,0.9,0.6,1.4C11.1,4.6,10.9,5.1,10.6,5.5z"/>
</svg>
