<svg width="13" height="13" viewBox="0 0 13 13" fill="none" xmlns="http://www.w3.org/2000/svg">
<path d="M11.5 1.65769C10.8599 1.01772 9.99178 0.658203 9.08663 0.658203C8.18149 0.658203 7.3134 1.01772 6.6733 1.65769L1.49997 6.83102C1.1754 7.14624 0.916739 7.52283 0.739024 7.93891C0.56131 8.35499 0.468089 8.80225 0.464782 9.25469C0.461476 9.70712 0.54815 10.1557 0.719764 10.5743C0.891378 10.993 1.14451 11.3733 1.46443 11.6932C1.78436 12.0131 2.1647 12.2663 2.58333 12.4379C3.00196 12.6095 3.45054 12.6962 3.90297 12.6929C4.3554 12.6896 4.80266 12.5963 5.21874 12.4186C5.63482 12.2409 6.01142 11.9823 6.32663 11.6577L11.5 6.48435C12.1399 5.84425 12.4995 4.97617 12.4995 4.07102C12.4995 3.16587 12.1399 2.29779 11.5 1.65769ZM10.56 5.53769L8.43997 7.65769L5.49997 4.71769L7.61997 2.59769C8.01399 2.22857 8.53609 2.02712 9.07593 2.03592C9.61576 2.04473 10.131 2.26309 10.5128 2.64486C10.8946 3.02664 11.1129 3.54189 11.1217 4.08173C11.1305 4.62156 10.9291 5.14367 10.56 5.53769Z" fill="#2ECC71"/>
</svg>
