<svg width="86" height="86" viewBox="0 0 86 86" fill="none" xmlns="http://www.w3.org/2000/svg">
<path d="M19.8583 85.3281C9.27893 85.3281 0.671875 76.7211 0.671875 66.1416V19.8584C0.671875 9.27893 9.27893 0.671875 19.8583 0.671875H66.1416C76.7211 0.671875 85.3281 9.27893 85.3281 19.8584V66.1417C85.3281 76.7211 76.7211 85.3281 66.1416 85.3281H19.8583Z" fill="url(#paint0_linear)"/>
<path d="M25.0234 31.2418V48.9843C25.0234 50.5468 25.9338 51.9721 27.3593 52.6118C37.4474 57.1393 48.5524 57.1393 58.6405 52.6118C60.066 51.9721 60.9764 50.5468 60.9764 48.9843V31.2418H25.0234Z" fill="url(#paint1_linear)"/>
<path d="M25.0234 47.1927V48.9843C25.0234 50.5468 25.9338 51.9721 27.3593 52.6119C37.4474 57.1393 48.5524 57.1393 58.6405 52.6119C60.066 51.9721 60.9764 50.5468 60.9764 48.9843V47.1927H25.0234Z" fill="url(#paint2_linear)"/>
<path d="M30.4823 53.8573C39.7069 57.0912 49.5835 56.6766 58.6406 52.6118C60.0661 51.972 60.9765 50.5468 60.9765 48.9843V31.2418H30.4823V53.8573Z" fill="url(#paint3_linear)"/>
<path d="M25.0234 31.2418V38.0162L43.0145 56.0073C48.3079 56.0053 53.6011 54.8735 58.6405 52.6118C60.066 51.972 60.9764 50.5468 60.9764 48.9843V31.2418H25.0234Z" fill="url(#paint4_linear)"/>
<path d="M39.8876 23.7835L20.021 32.6453C18.6597 33.2525 18.6597 35.1849 20.021 35.7921L39.8875 44.6538C41.8684 45.5374 44.1315 45.5374 46.1125 44.6538L65.979 35.7921C67.3403 35.1849 67.3403 33.2525 65.979 32.6453L46.1126 23.7835C44.1316 22.9 41.8685 22.9 39.8876 23.7835Z" fill="url(#paint5_linear)"/>
<path d="M50.4392 42.7237L46.1129 44.6541C44.1318 45.5372 41.868 45.5372 39.8869 44.6541L20.0216 35.7919C18.6595 35.1849 18.6595 33.2519 20.0216 32.6449L23.9276 30.9026C23.9275 30.9026 50.3444 42.6836 50.4392 42.7237Z" fill="url(#paint6_linear)"/>
<path d="M35.5608 42.7237L39.8871 44.6541C41.8682 45.5372 44.132 45.5372 46.1131 44.6541L65.9785 35.7919C67.3405 35.1849 67.3405 33.2519 65.9785 32.6449L62.0724 30.9026C62.0725 30.9026 35.6556 42.6836 35.5608 42.7237Z" fill="url(#paint7_linear)"/>
<path d="M44.0745 33.7723L29.5765 40.0544L39.8876 44.6538C41.8685 45.5374 44.1317 45.5374 46.1127 44.6538L52.2282 41.9259L44.0745 33.7723Z" fill="url(#paint8_linear)"/>
<path d="M29.7812 52.228C29.1315 52.228 28.6047 51.7013 28.6047 51.0516V41.7889C28.6047 40.3283 29.4667 39.0001 30.8005 38.4051L42.5209 33.1772C43.1142 32.9125 43.8098 33.1789 44.0746 33.7724C44.3393 34.3658 44.0727 35.0614 43.4794 35.3261L31.7591 40.554C31.2723 40.7712 30.9577 41.256 30.9577 41.789V51.0516C30.9577 51.7013 30.4309 52.228 29.7812 52.228Z" fill="url(#paint9_linear)"/>
<path d="M30.2343 62.8791H29.2246C28.4638 62.8791 27.847 62.2623 27.847 61.5015V56.5417H31.6118V61.5015C31.6119 62.2623 30.9951 62.8791 30.2343 62.8791Z" fill="url(#paint10_linear)"/>
<path d="M31.6119 61.5015V56.5417H27.8472V58.2516L31.5384 61.9428C31.5853 61.8041 31.6119 61.656 31.6119 61.5015Z" fill="url(#paint11_linear)"/>
<path d="M29.7295 58.7353C32.0333 58.7353 33.9008 56.8678 33.9008 54.564C33.9008 52.2603 32.0333 50.3927 29.7295 50.3927C27.4258 50.3927 25.5582 52.2603 25.5582 54.564C25.5582 56.8678 27.4258 58.7353 29.7295 58.7353Z" fill="url(#paint12_linear)"/>
<path d="M32.0355 52.337C32.0355 52.9442 31.6023 53.465 31.0052 53.5754L30.2425 53.7164C30.1752 53.729 30.126 53.7878 30.126 53.8565V55.5639H30.1251C30.1406 56.0072 29.8929 56.4874 29.4408 56.7988C28.7915 57.2458 27.9673 57.1753 27.5993 56.6411C27.2317 56.1071 27.46 55.3118 28.1088 54.8646C28.4858 54.605 28.9218 54.5205 29.2935 54.5992V52.6892C29.2935 52.5688 29.3792 52.4656 29.4976 52.4437L31.679 52.0404C31.8644 52.0061 32.0355 52.1485 32.0355 52.337Z" fill="url(#paint13_linear)"/>
<path d="M25.618 55.2633C25.9518 57.2315 27.6678 58.7353 29.7296 58.7353C31.7913 58.7353 33.5074 57.2314 33.8411 55.2633H25.618Z" fill="url(#paint14_linear)"/>
<defs>
<linearGradient id="paint0_linear" x1="43.0003" y1="1.49812" x2="43.0003" y2="85.8304" gradientUnits="userSpaceOnUse">
<stop stop-color="#BEA5F4"/>
<stop offset="1" stop-color="#C565E9"/>
</linearGradient>
<linearGradient id="paint1_linear" x1="40.3704" y1="36.1083" x2="52.4504" y2="56.9736" gradientUnits="userSpaceOnUse">
<stop stop-color="#5A5A5A"/>
<stop offset="1" stop-color="#464646"/>
</linearGradient>
<linearGradient id="paint2_linear" x1="42.9999" y1="48.5732" x2="42.9999" y2="56.6967" gradientUnits="userSpaceOnUse">
<stop stop-color="#464646" stop-opacity="0"/>
<stop offset="1" stop-color="#202020"/>
</linearGradient>
<linearGradient id="paint3_linear" x1="39.5046" y1="42.4948" x2="31.787" y2="41.7419" gradientUnits="userSpaceOnUse">
<stop stop-color="#464646" stop-opacity="0"/>
<stop offset="1" stop-color="#202020"/>
</linearGradient>
<linearGradient id="paint4_linear" x1="42.9999" y1="56.9339" x2="42.9999" y2="37.0951" gradientUnits="userSpaceOnUse">
<stop stop-color="#464646" stop-opacity="0"/>
<stop offset="0.0267" stop-color="#454545" stop-opacity="0.027"/>
<stop offset="0.6388" stop-color="#2A2A2A" stop-opacity="0.639"/>
<stop offset="1" stop-color="#202020"/>
</linearGradient>
<linearGradient id="paint5_linear" x1="40.89" y1="30.5739" x2="49.6943" y2="45.7814" gradientUnits="userSpaceOnUse">
<stop stop-color="#5A5A5A"/>
<stop offset="1" stop-color="#464646"/>
</linearGradient>
<linearGradient id="paint6_linear" x1="34.6402" y1="38.4807" x2="32.2185" y2="44.218" gradientUnits="userSpaceOnUse">
<stop stop-color="#464646" stop-opacity="0"/>
<stop offset="1" stop-color="#202020"/>
</linearGradient>
<linearGradient id="paint7_linear" x1="51.3599" y1="38.4807" x2="53.7816" y2="44.218" gradientUnits="userSpaceOnUse">
<stop stop-color="#464646" stop-opacity="0"/>
<stop offset="1" stop-color="#202020"/>
</linearGradient>
<linearGradient id="paint8_linear" x1="43.4541" y1="44.6628" x2="38.4188" y2="37.4157" gradientUnits="userSpaceOnUse">
<stop stop-color="#464646" stop-opacity="0"/>
<stop offset="0.0267" stop-color="#454545" stop-opacity="0.027"/>
<stop offset="0.6388" stop-color="#2A2A2A" stop-opacity="0.639"/>
<stop offset="1" stop-color="#202020"/>
</linearGradient>
<linearGradient id="paint9_linear" x1="26.6236" y1="42.6514" x2="42.9476" y2="42.6514" gradientUnits="userSpaceOnUse">
<stop stop-color="#F7E07D"/>
<stop offset="1" stop-color="#E69642"/>
</linearGradient>
<linearGradient id="paint10_linear" x1="27.5961" y1="59.7104" x2="32.1042" y2="59.7104" gradientUnits="userSpaceOnUse">
<stop stop-color="#F7E07D"/>
<stop offset="1" stop-color="#E69642"/>
</linearGradient>
<linearGradient id="paint11_linear" x1="29.7295" y1="61.8045" x2="29.7295" y2="56.8788" gradientUnits="userSpaceOnUse">
<stop stop-color="#D52C1C" stop-opacity="0"/>
<stop offset="0.28" stop-color="#D12C1E" stop-opacity="0.28"/>
<stop offset="0.5735" stop-color="#C42C23" stop-opacity="0.574"/>
<stop offset="0.8721" stop-color="#AF2B2C" stop-opacity="0.872"/>
<stop offset="1" stop-color="#A42B31"/>
</linearGradient>
<linearGradient id="paint12_linear" x1="27.738" y1="52.5725" x2="31.6069" y2="56.4414" gradientUnits="userSpaceOnUse">
<stop stop-color="#F7E07D"/>
<stop offset="1" stop-color="#E69642"/>
</linearGradient>
<linearGradient id="paint13_linear" x1="31.6332" y1="56.2539" x2="27.7771" y2="52.3978" gradientUnits="userSpaceOnUse">
<stop stop-color="#F7E07D"/>
<stop offset="1" stop-color="#E69642"/>
</linearGradient>
<linearGradient id="paint14_linear" x1="29.7296" y1="55.5221" x2="29.7296" y2="59.1606" gradientUnits="userSpaceOnUse">
<stop stop-color="#D52C1C" stop-opacity="0"/>
<stop offset="0.28" stop-color="#D12C1E" stop-opacity="0.28"/>
<stop offset="0.5735" stop-color="#C42C23" stop-opacity="0.574"/>
<stop offset="0.8721" stop-color="#AF2B2C" stop-opacity="0.872"/>
<stop offset="1" stop-color="#A42B31"/>
</linearGradient>
</defs>
</svg>
