<svg width="16" height="17" viewBox="0 0 16 17" fill="none" xmlns="http://www.w3.org/2000/svg">
<g clip-path="url(#clip0_478_5136)">
<path d="M15.9333 2.30021C15.9019 2.25919 15.8616 2.22586 15.8154 2.20275C15.7692 2.17965 15.7183 2.16738 15.6667 2.16688H14.5C14.4558 2.16688 14.4134 2.14932 14.3822 2.11806C14.3509 2.0868 14.3333 2.04441 14.3333 2.00021V0.833542C14.3328 0.781884 14.3206 0.731021 14.2975 0.684814C14.2744 0.638608 14.241 0.598274 14.2 0.566875C14.1593 0.532006 14.1107 0.507686 14.0583 0.49606C14.006 0.484434 13.9516 0.485859 13.9 0.500208C13.4783 0.644729 13.0664 0.816193 12.6667 1.01354V3.06021C12.6654 3.10241 12.6488 3.14271 12.62 3.17354L12.2867 3.50688C12.2629 3.53108 12.2325 3.54778 12.1993 3.55489C12.1662 3.562 12.1316 3.55921 12.1 3.54688C12.0702 3.53386 12.0448 3.51241 12.0271 3.48517C12.0093 3.45792 11.9999 3.42607 12 3.39354V1.39354C11.1645 1.80306 10.5196 2.51964 10.2 3.39354C10.1361 3.68367 10.1377 3.98438 10.2046 4.27383C10.2715 4.56327 10.402 4.83418 10.5867 5.06688C10.6105 5.09734 10.6234 5.13489 10.6234 5.17354C10.6234 5.2122 10.6105 5.24974 10.5867 5.28021L10 5.83354C9.96852 5.86075 9.92829 5.87573 9.88667 5.87573C9.84506 5.87573 9.80483 5.86075 9.77334 5.83354C8.62688 4.90844 7.18015 4.43744 5.7088 4.51029C4.23745 4.58314 2.84433 5.19474 1.79485 6.22856C0.745381 7.26238 0.11292 8.64616 0.0179753 10.1162C-0.0769698 11.5863 0.372237 13.04 1.28001 14.2002C1.3022 14.2301 1.31418 14.2663 1.31418 14.3035C1.31418 14.3408 1.3022 14.377 1.28001 14.4069L0.480008 15.4202C0.41664 15.4873 0.367905 15.5669 0.33689 15.6539C0.305876 15.7408 0.293258 15.8332 0.299836 15.9253C0.306414 16.0174 0.332044 16.1071 0.375103 16.1888C0.418162 16.2704 0.477712 16.3423 0.549979 16.3997C0.622246 16.4572 0.705655 16.499 0.794924 16.5225C0.884192 16.546 0.977373 16.5507 1.06856 16.5364C1.15976 16.522 1.24697 16.4889 1.32468 16.439C1.40239 16.3892 1.4689 16.3238 1.52001 16.2469L2.22667 15.3602C2.2392 15.3429 2.25505 15.3283 2.27331 15.3172C2.29157 15.3062 2.31186 15.2989 2.33298 15.2958C2.3541 15.2927 2.37564 15.2938 2.39631 15.2992C2.41698 15.3045 2.43637 15.3139 2.45334 15.3269C3.50634 16.101 4.78331 16.5101 6.09013 16.4921C7.39694 16.474 8.66212 16.0298 9.69334 15.2269C9.72416 15.1983 9.76464 15.1824 9.80667 15.1824C9.84871 15.1824 9.88919 15.1983 9.92001 15.2269C10.18 15.5202 10.8333 16.2535 10.8333 16.2602C10.8917 16.3263 10.9626 16.3802 11.042 16.4187C11.1213 16.4572 11.2075 16.4796 11.2955 16.4845C11.3836 16.4895 11.4717 16.4769 11.5549 16.4476C11.6381 16.4182 11.7146 16.3727 11.78 16.3135C11.9115 16.1958 11.991 16.0308 12.001 15.8546C12.011 15.6784 11.9507 15.5054 11.8333 15.3735L10.8333 14.2469C10.8089 14.218 10.7955 14.1814 10.7955 14.1435C10.7955 14.1057 10.8089 14.0691 10.8333 14.0402C11.5419 13.0854 11.9491 11.9406 12.0025 10.7527C12.056 9.5649 11.7533 8.38817 11.1333 7.37354C11.1178 7.35284 11.0977 7.33604 11.0745 7.32447C11.0514 7.3129 11.0259 7.30688 11 7.30688C10.9741 7.30688 10.9486 7.3129 10.9255 7.32447C10.9023 7.33604 10.8822 7.35284 10.8667 7.37354L10 8.20688C9.9808 8.23546 9.97055 8.26911 9.97055 8.30354C9.97055 8.33798 9.9808 8.37163 10 8.40021C10.5157 9.3734 10.6555 10.5023 10.3927 11.5719C10.1298 12.6414 9.48272 13.577 8.57465 14.2002C7.66658 14.8235 6.56097 15.091 5.46841 14.9518C4.37585 14.8125 3.37267 14.2763 2.64996 13.4452C1.92725 12.6141 1.53549 11.5461 1.54931 10.4448C1.56313 9.34351 1.98156 8.28576 2.7249 7.47304C3.46824 6.66031 4.48456 6.1494 5.58027 6.03762C6.67598 5.92584 7.77453 6.221 8.66667 6.86688C8.68586 6.88231 8.70167 6.90151 8.71314 6.9233C8.72461 6.94508 8.73148 6.96899 8.73334 6.99354C8.73443 7.0167 8.73086 7.03985 8.72284 7.0616C8.71483 7.08336 8.70253 7.10329 8.68667 7.12021L8.20001 7.60688C8.17067 7.63311 8.1327 7.64762 8.09334 7.64762C8.05398 7.64762 8.01601 7.63311 7.98667 7.60688C7.58948 7.32734 7.13749 7.13526 6.66057 7.04332C6.18365 6.95139 5.69265 6.96169 5.22001 7.07354C4.62954 7.20936 4.08444 7.49614 3.63805 7.90582C3.19166 8.3155 2.85926 8.83404 2.67338 9.41071C2.4875 9.98738 2.45451 10.6024 2.57763 11.1957C2.70074 11.7889 2.97576 12.34 3.37576 12.7951C3.77576 13.2502 4.28704 13.5937 4.85959 13.7919C5.43214 13.9901 6.04634 14.0363 6.64209 13.9259C7.23784 13.8156 7.79474 13.5524 8.25831 13.1623C8.72187 12.7722 9.07622 12.2684 9.28667 11.7002C9.59394 10.9113 9.59394 10.0358 9.28667 9.24688C9.2762 9.22133 9.25954 9.19878 9.23819 9.18127C9.21685 9.16375 9.19149 9.15181 9.16438 9.14652C9.13728 9.14123 9.10929 9.14276 9.08293 9.15097C9.05656 9.15918 9.03265 9.17381 9.01334 9.19354L8.20667 10.0002C8.18813 10.0194 8.17426 10.0426 8.16617 10.0681C8.15807 10.0935 8.15596 10.1205 8.16001 10.1469C8.21558 10.5278 8.16002 10.9167 8.00001 11.2669C7.85704 11.6291 7.62187 11.9476 7.31782 12.1908C7.01376 12.434 6.6514 12.5936 6.26667 12.6535C5.71283 12.7241 5.15314 12.5781 4.70431 12.2461C4.25547 11.914 3.95214 11.4215 3.85757 10.8713C3.763 10.321 3.88448 9.75549 4.19669 9.29263C4.5089 8.82978 4.98773 8.5053 5.53334 8.38688C6.00533 8.28054 6.49951 8.33937 6.93334 8.55354C6.95674 8.5646 6.97696 8.58141 6.99211 8.60239C7.00727 8.62337 7.01686 8.64785 7.02001 8.67354C7.02585 8.69993 7.0246 8.7274 7.01641 8.75315C7.00821 8.77891 6.99336 8.80204 6.97334 8.82021L6.38667 9.40688C6.26354 9.35836 6.13236 9.33348 6.00001 9.33354C5.76926 9.33354 5.5437 9.40197 5.35184 9.53016C5.15998 9.65836 5.01045 9.84056 4.92215 10.0537C4.83385 10.2669 4.81074 10.5015 4.85576 10.7278C4.90077 10.9541 5.01189 11.162 5.17505 11.3252C5.33821 11.4883 5.54609 11.5994 5.7724 11.6445C5.99871 11.6895 6.23329 11.6664 6.44647 11.5781C6.65965 11.4898 6.84186 11.3402 6.97005 11.1484C7.09825 10.9565 7.16667 10.731 7.16667 10.5002C7.16612 10.3679 7.14126 10.2369 7.09334 10.1135L11.28 5.92688C11.3105 5.90309 11.348 5.89017 11.3867 5.89017C11.4253 5.89017 11.4629 5.90309 11.4933 5.92688C11.85 6.20053 12.284 6.35452 12.7333 6.36688C12.8795 6.3689 13.0253 6.35095 13.1667 6.31354C14.9533 5.83354 15.9467 2.73354 16 2.60021C16.0127 2.54844 16.0133 2.49445 16.0017 2.44242C15.9902 2.39039 15.9668 2.34172 15.9333 2.30021Z" fill="#BA0186"/>
</g>
<defs>
<clipPath id="clip0_478_5136">
<rect width="16" height="16" fill="white" transform="translate(0 0.5)"/>
</clipPath>
</defs>
</svg>
