<svg width="86" height="86" viewBox="0 0 86 86" fill="none" xmlns="http://www.w3.org/2000/svg">
<path d="M19.8589 85.3281C9.2791 85.3281 0.671875 76.7209 0.671875 66.1411V19.8589C0.671875 9.2791 9.2791 0.671875 19.8589 0.671875H66.1411C76.7209 0.671875 85.3281 9.2791 85.3281 19.8589V66.1411C85.3281 76.7209 76.7209 85.3281 66.1411 85.3281H19.8589Z" fill="url(#paint0_linear)"/>
<path opacity="0.3" d="M59.5144 67H26.971C26.2656 67 25.6937 66.4281 25.6937 65.7227V21.7073C25.6937 21.002 26.2656 20.4301 26.971 20.4301H59.5144C60.2198 20.4301 60.7917 21.002 60.7917 21.7073V65.7227C60.7917 66.4281 60.2198 67 59.5144 67Z" fill="#1A1A1A"/>
<path d="M58.8207 66.3062H26.2773C25.5719 66.3062 25 65.7343 25 65.029V21.0136C25 20.3082 25.5719 19.7363 26.2773 19.7363H58.8207C59.526 19.7363 60.0979 20.3082 60.0979 21.0136V65.029C60.0979 65.7343 59.526 66.3062 58.8207 66.3062Z" fill="#C1845B"/>
<path d="M58.8207 65.5699H26.2773C25.5719 65.5699 25 64.998 25 64.2926V20.2773C25 19.5719 25.5719 19 26.2773 19H58.8207C59.526 19 60.0979 19.5719 60.0979 20.2773V64.2926C60.0979 64.998 59.526 65.5699 58.8207 65.5699Z" fill="url(#paint1_linear)"/>
<path d="M26.2773 65.2924C25.7259 65.2924 25.2775 64.844 25.2775 64.2926V20.2773C25.2775 19.7259 25.7259 19.2775 26.2773 19.2775H58.8206C59.372 19.2775 59.8204 19.7259 59.8204 20.2773V64.2926C59.8204 64.844 59.372 65.2924 58.8206 65.2924H26.2773Z" fill="url(#paint2_linear)"/>
<path d="M56.0134 63.4857H29.7883C28.7519 63.4857 27.9115 62.6455 27.9115 61.6089V29.3099C27.9115 28.2735 28.7517 27.4331 29.7883 27.4331H56.0134C57.0498 27.4331 57.8902 28.2733 57.8902 29.3099V61.6089C57.8901 62.6455 57.0498 63.4857 56.0134 63.4857Z" fill="url(#paint3_linear)"/>
<path d="M55.6613 63.1338H29.4364C28.3999 63.1338 27.5596 62.2935 27.5596 61.257V28.9581C27.5596 27.9217 28.3998 27.0813 29.4364 27.0813H55.6615C56.6979 27.0813 57.5383 27.9215 57.5383 28.9581V61.2571C57.5381 62.2935 56.6979 63.1338 55.6613 63.1338Z" fill="url(#paint4_linear)"/>
<path d="M55.6613 62.5201H29.4364C28.3999 62.5201 27.5596 61.6799 27.5596 60.6434V28.3443C27.5596 27.3079 28.3998 26.4675 29.4364 26.4675H55.6615C56.6979 26.4675 57.5383 27.3078 57.5383 28.3443V60.6434C57.5381 61.6799 56.6979 62.5201 55.6613 62.5201Z" fill="white"/>
<path d="M57.4001 28.3444V60.6439C57.4001 61.6012 56.6203 62.3809 55.6616 62.3809H29.4363C28.4776 62.3809 27.6979 61.6012 27.6979 60.6439V28.3444C27.6979 27.3857 28.4776 26.606 29.4363 26.606H55.6616C56.6203 26.606 57.4001 27.3857 57.4001 28.3444Z" fill="url(#paint5_linear)"/>
<path d="M48.2739 53.5752C47.2374 53.5752 46.3972 54.4154 46.3972 55.452L47.5806 62.5203L56.3551 53.5753H48.2739V53.5752Z" fill="#DAD1D1"/>
<path d="M57.4 52.701V60.6441C57.4 61.6014 56.6203 62.3812 55.6616 62.3812H47.7185L57.4 52.701Z" fill="url(#paint6_linear)"/>
<path d="M49.4571 52.5626C48.4207 52.5626 47.5804 53.4029 47.5804 54.4394V62.5205L57.5382 52.5628H49.4571V52.5626Z" fill="url(#paint7_linear)"/>
<path d="M53.1682 32.9312H36.3552V34.8944H53.1682V32.9312Z" fill="#9F9898"/>
<path d="M53.1684 37.2267H32.5511V39.1899H53.1684V37.2267Z" fill="#9F9898"/>
<path d="M53.1684 41.5223H32.5511V43.4856H53.1684V41.5223Z" fill="#9F9898"/>
<path d="M53.1684 45.8177H32.5511V47.781H53.1684V45.8177Z" fill="#9F9898"/>
<path d="M53.1684 50.1119H32.5511V52.0752H53.1684V50.1119Z" fill="#9F9898"/>
<path d="M45.5597 54.4073H32.5511V56.3706H45.5597V54.4073Z" fill="#9F9898"/>
<path opacity="0.35" d="M51.8313 29.7992H33.9437C33.1574 29.7992 32.5177 29.1595 32.5177 28.3732V24.5075C32.5177 23.7213 33.1574 23.0815 33.9437 23.0815H34.788V24.1861H33.9437C33.7664 24.1861 33.6221 24.3304 33.6221 24.5077V28.3734C33.6221 28.5507 33.7664 28.695 33.9437 28.695H51.8313C52.0087 28.695 52.1529 28.5507 52.1529 28.3734V24.5077C52.1529 24.3304 52.0087 24.1861 51.8313 24.1861H50.4644V23.0815H51.8313C52.6176 23.0815 53.2573 23.7213 53.2573 24.5075V28.3732C53.2573 29.1595 52.6176 29.7992 51.8313 29.7992Z" fill="#9F9898"/>
<path d="M51.4927 29.4606H33.6051C32.8188 29.4606 32.1791 28.8208 32.1791 28.0346V24.1689C32.1791 23.3827 32.8188 22.7429 33.6051 22.7429H34.4493V23.8475H33.6051C33.4278 23.8475 33.2835 23.9917 33.2835 24.1691V28.0347C33.2835 28.212 33.4278 28.3563 33.6051 28.3563H51.4927C51.67 28.3563 51.8143 28.212 51.8143 28.0347V24.1691C51.8143 23.9917 51.67 23.8475 51.4927 23.8475H50.6485V22.7429H51.4927C52.279 22.7429 52.9187 23.3827 52.9187 24.1689V28.0346C52.9187 28.8208 52.279 29.4606 51.4927 29.4606Z" fill="#9F9898"/>
<path d="M49.7745 24.8587H35.323C34.8405 24.8587 34.4492 24.4674 34.4492 23.9849V22.6055C34.4492 22.1229 34.8405 21.7317 35.323 21.7317H49.7745C50.2571 21.7317 50.6484 22.1229 50.6484 22.6055V23.9849C50.6484 24.4674 50.2571 24.8587 49.7745 24.8587Z" fill="url(#paint8_linear)"/>
<defs>
<linearGradient id="paint0_linear" x1="43" y1="1.49862" x2="43" y2="85.8304" gradientUnits="userSpaceOnUse">
<stop stop-color="#3BCFFF"/>
<stop offset="1" stop-color="#3464AE"/>
</linearGradient>
<linearGradient id="paint1_linear" x1="42.549" y1="19.4178" x2="42.549" y2="65.0741" gradientUnits="userSpaceOnUse">
<stop stop-color="#FFE5C2"/>
<stop offset="1" stop-color="#E6AE7B"/>
</linearGradient>
<linearGradient id="paint2_linear" x1="42.5489" y1="19.6911" x2="42.5489" y2="64.8021" gradientUnits="userSpaceOnUse">
<stop stop-color="#FFD193"/>
<stop offset="1" stop-color="#D89A6D"/>
</linearGradient>
<linearGradient id="paint3_linear" x1="38.7418" y1="41.3004" x2="55.6588" y2="58.2173" gradientUnits="userSpaceOnUse">
<stop stop-color="#BCA083"/>
<stop offset="1" stop-color="#B09B87"/>
</linearGradient>
<linearGradient id="paint4_linear" x1="38.3907" y1="40.9494" x2="55.3063" y2="57.865" gradientUnits="userSpaceOnUse">
<stop stop-color="#DCD2D2"/>
<stop offset="0.995" stop-color="#D3CACA"/>
</linearGradient>
<linearGradient id="paint5_linear" x1="38.4159" y1="40.3608" x2="55.2289" y2="57.1724" gradientUnits="userSpaceOnUse">
<stop stop-color="#F6EBEB"/>
<stop offset="0.995" stop-color="#EDE3E3"/>
</linearGradient>
<linearGradient id="paint6_linear" x1="52.4569" y1="57.4388" x2="56.7191" y2="61.701" gradientUnits="userSpaceOnUse">
<stop stop-color="white"/>
<stop offset="1" stop-color="#DAD1D1"/>
</linearGradient>
<linearGradient id="paint7_linear" x1="48.0253" y1="53.0076" x2="52.3846" y2="57.3669" gradientUnits="userSpaceOnUse">
<stop stop-color="white"/>
<stop offset="0.421" stop-color="#FDFDFD"/>
<stop offset="0.618" stop-color="#F7F5F5"/>
<stop offset="0.767" stop-color="#EBE9E9"/>
<stop offset="0.893" stop-color="#DCD6D6"/>
<stop offset="0.999" stop-color="#C8C0C0"/>
</linearGradient>
<linearGradient id="paint8_linear" x1="42.5488" y1="21.7597" x2="42.5488" y2="24.826" gradientUnits="userSpaceOnUse">
<stop stop-color="#524E4E"/>
<stop offset="0.451" stop-color="#6C6767"/>
<stop offset="1" stop-color="#524E4E"/>
</linearGradient>
</defs>
</svg>
