<svg width="12" height="15" viewBox="0 0 12 15" fill="none" xmlns="http://www.w3.org/2000/svg">
<path d="M8.45461 2.12504C8.33334 2.48999 8.14117 2.8274 7.88914 3.11788C7.65696 3.41546 7.35942 3.65563 7.01954 3.81978C6.67966 3.98394 6.30657 4.06769 5.92914 4.06454C5.89682 3.69404 5.93917 3.32082 6.05368 2.96697C6.16819 2.61313 6.35254 2.28586 6.59581 2.00454C7.10381 1.41758 7.82206 1.05367 8.59581 0.991211C8.62387 1.37476 8.57588 1.76008 8.45461 2.12504Z" fill="#E67E22"/>
<path d="M6.21552 13.7779C6.72837 13.7815 7.06144 13.9239 7.37926 14.0598C7.60607 14.1568 7.8251 14.2504 8.09616 14.2879C8.19563 14.3071 8.30252 14.3201 8.41998 14.3246C9.29998 14.3579 9.96664 13.4446 10.5 12.6379C11.6733 10.9912 12.5466 7.95789 11.3733 5.91789C11.0982 5.42221 10.6994 5.00629 10.2157 4.71068C9.99827 4.57782 9.76705 4.4713 9.52691 4.39259C9.22045 4.28017 8.89727 4.21641 8.56914 4.20454C7.93872 4.13989 7.3377 4.37653 6.83883 4.57296C6.60601 4.66463 6.39545 4.74753 6.21453 4.78697C6.03363 4.74753 5.82308 4.66463 5.59029 4.57297C5.09142 4.37655 4.4904 4.1399 3.85998 4.20456C3.53208 4.21641 3.20912 4.28009 2.90286 4.39237C2.66249 4.4711 2.43105 4.57769 2.21344 4.71067C1.72972 5.00627 1.33088 5.4222 1.05581 5.91788C-0.117526 7.95788 0.755807 10.9912 1.92914 12.6379C2.46247 13.4445 3.12914 14.3579 4.00914 14.3245C4.12641 14.3201 4.23315 14.3071 4.33249 14.288C4.60377 14.2505 4.82292 14.1568 5.04986 14.0598C5.36807 13.9238 5.70158 13.7812 6.21552 13.7779Z" fill="#E67E22"/>
</svg>
