<svg width="30" height="30" viewBox="0 0 30 30" fill="none" xmlns="http://www.w3.org/2000/svg">
<path d="M15 0.375C6.93586 0.375 0.375 6.93586 0.375 15C0.375 23.0641 6.93586 29.625 15 29.625C23.0641 29.625 29.625 23.0641 29.625 15C29.625 6.93586 23.0641 0.375 15 0.375ZM11.4689 8.58891C12.3598 7.64461 13.6134 7.125 15 7.125C16.3866 7.125 17.629 7.64813 18.5234 8.59734C19.4297 9.55922 19.8705 10.8516 19.7665 12.2409C19.5584 15 17.4209 17.25 15 17.25C12.5791 17.25 10.4374 15 10.2335 12.2402C10.1302 10.8396 10.5703 9.54305 11.4689 8.58891ZM15 27.375C13.348 27.3761 11.7126 27.0454 10.1907 26.4026C8.6689 25.7598 7.29164 24.818 6.14062 23.633C6.79985 22.6929 7.6398 21.8936 8.61141 21.2817C10.4037 20.1328 12.672 19.5 15 19.5C17.328 19.5 19.5963 20.1328 21.3865 21.2817C22.3589 21.8933 23.1996 22.6926 23.8594 23.633C22.7085 24.8181 21.3312 25.7601 19.8094 26.4029C18.2875 27.0457 16.652 27.3763 15 27.375Z" fill="#3498DB"/>
</svg>
