<svg width="10" height="15" viewBox="0 0 10 15" fill="none" xmlns="http://www.w3.org/2000/svg">
<path d="M9.31969 6.08146C8.93254 5.05363 8.36805 4.10169 7.65187 3.26896C6.4125 1.83428 4.78281 0.907715 3.5 0.907715C3.42372 0.907772 3.34847 0.92528 3.28 0.958899C3.21153 0.992517 3.15166 1.04136 3.10497 1.10168C3.05829 1.162 3.02602 1.2322 3.01064 1.30691C2.99526 1.38162 2.99718 1.45886 3.01625 1.53271C3.44969 3.18896 2.55125 4.56615 1.60031 6.02396C0.8125 7.23146 0 8.47865 0 9.90771C0 12.6646 2.24312 14.9077 5 14.9077C7.75688 14.9077 10 12.6646 10 9.90771C10 8.55459 9.77125 7.2674 9.31969 6.08146ZM6.01031 12.9918C5.6875 13.3355 5.28281 13.4077 5 13.4077C4.71719 13.4077 4.3125 13.3355 3.98969 12.9918C3.66687 12.648 3.5 12.1027 3.5 11.4077C3.5 10.6221 3.77562 10.024 4.04187 9.44584C4.19656 9.11022 4.35437 8.76865 4.44812 8.40303C4.45808 8.36326 4.47766 8.32654 4.50515 8.29612C4.53263 8.2657 4.56718 8.24251 4.60574 8.22859C4.6443 8.21466 4.68569 8.21044 4.72627 8.21628C4.76685 8.22212 4.80537 8.23785 4.83844 8.26209C5.12425 8.48323 5.37839 8.74252 5.59375 9.03271C6.16156 9.78271 6.5 10.6708 6.5 11.4077C6.5 12.1027 6.33062 12.6505 6.01031 12.9918Z" fill="#E74C3C"/>
</svg>
