<svg width="40" height="36" viewBox="0 0 40 36" fill="none" xmlns="http://www.w3.org/2000/svg">
<path d="M20.0001 36C19.3979 35.9992 18.8099 35.8173 18.3126 35.4778C10.9448 30.4762 7.75444 27.0469 5.99475 24.9028C2.24475 20.3325 0.449439 15.6403 0.500064 10.5591C0.559127 4.73625 5.23069 0 10.9138 0C15.0463 0 17.9085 2.32781 19.5754 4.26656C19.6282 4.32736 19.6934 4.37611 19.7667 4.40952C19.84 4.44293 19.9195 4.46022 20.0001 4.46022C20.0806 4.46022 20.1602 4.44293 20.2334 4.40952C20.3067 4.37611 20.372 4.32736 20.4248 4.26656C22.0916 2.32594 24.9538 0 29.0863 0C34.7694 0 39.441 4.73625 39.5001 10.56C39.5507 15.6422 37.7535 20.3344 34.0054 24.9038C32.2457 27.0478 29.0554 30.4772 21.6876 35.4788C21.1901 35.8179 20.6021 35.9995 20.0001 36Z" fill="url(#paint0_linear)"/>
<defs>
<linearGradient id="paint0_linear" x1="20.0001" y1="0" x2="20.0001" y2="36" gradientUnits="userSpaceOnUse">
<stop stop-color="#EC669C"/>
<stop offset="0.994792" stop-color="#EB463C"/>
</linearGradient>
</defs>
</svg>
