<svg width="100" height="101" viewBox="0 0 100 101" fill="none" xmlns="http://www.w3.org/2000/svg">
<g clip-path="url(#clip0)">
<rect opacity="0.5" y="0.157715" width="100" height="100" rx="20" fill="#3498DB"/>
<rect x="16" y="16.1577" width="68" height="68" rx="34" fill="#3498DB"/>
<path d="M36.5625 61.4077H50.9375C52.346 61.4063 53.6964 60.8461 54.6924 59.8501C55.6884 58.8541 56.2486 57.5037 56.25 56.0952V44.1827C56.2483 42.7842 55.6921 41.4434 54.7032 40.4546C53.7143 39.4657 52.3735 38.9094 50.975 38.9077H36.5625C35.154 38.9092 33.8036 39.4693 32.8076 40.4653C31.8116 41.4613 31.2514 42.8117 31.25 44.2202V56.0952C31.2514 57.5037 31.8116 58.8541 32.8076 59.8501C33.8036 60.8461 35.154 61.4063 36.5625 61.4077Z" fill="white"/>
<path d="M65.2344 59.9706C65.554 60.113 65.9 60.1868 66.25 60.187C66.913 60.187 67.5489 59.9228 68.0178 59.454C68.4866 58.9852 68.75 58.3493 68.75 57.6862V42.6269C68.75 42.2103 68.6459 41.8004 68.4472 41.4343C68.2485 41.0682 67.9614 40.7575 67.6121 40.5306C67.2629 40.3036 66.8624 40.1675 66.4471 40.1347C66.0319 40.1018 65.615 40.1733 65.2344 40.3425C65.16 40.3755 65.0891 40.4158 65.0227 40.4628L58.5609 45.0112C58.2332 45.2419 57.9658 45.548 57.7812 45.9037C57.5965 46.2594 57.5001 46.6542 57.5 47.055V53.2581C57.5001 53.6589 57.5965 54.0537 57.7812 54.4094C57.9658 54.7651 58.2332 55.0712 58.5609 55.3019L65.0227 59.8503C65.0891 59.8973 65.16 59.9376 65.2344 59.9706Z" fill="white"/>
</g>
<defs>
<clipPath id="clip0">
<rect width="100" height="100" fill="white" transform="translate(0 0.157715)"/>
</clipPath>
</defs>
</svg>
