<svg width="16" height="17" viewBox="0 0 16 17" fill="none" xmlns="http://www.w3.org/2000/svg">
<path d="M8.03129 1.2666C7.25396 1.2666 6.6238 1.89676 6.6238 2.6741C6.6238 3.45144 7.25396 4.0816 8.03129 4.0816C8.80863 4.0816 9.43879 3.45144 9.43879 2.6741C9.43879 1.89676 8.80863 1.2666 8.03129 1.2666Z" fill="#BA0186"/>
<path d="M4.61138 7.19324C4.556 7.28824 4.51183 7.36821 4.48065 7.42613V9.61779C4.48065 9.89393 4.25679 10.1178 3.98065 10.1178C3.70451 10.1178 3.48065 9.89393 3.48065 9.61779V7.30311C3.48065 7.22555 3.49869 7.14905 3.53335 7.07967L3.98065 7.30311C3.53335 7.07967 3.5333 7.07977 3.53335 7.07967L3.53392 7.07854L3.53491 7.07657L3.53815 7.07015L3.54962 7.04776C3.55945 7.02873 3.57359 7.00166 3.59178 6.96769C3.62812 6.8998 3.68076 6.80403 3.74745 6.68963C3.88023 6.46186 4.07158 6.1552 4.30353 5.84583C4.53332 5.53934 4.81538 5.21339 5.13264 4.95963C5.443 4.71139 5.84181 4.48842 6.29534 4.48842H6.78129C7.24542 4.48842 7.69054 4.6728 8.01873 5.00099C8.34692 5.32917 8.53129 5.77429 8.53129 6.23842V11.872L10.2154 15.2748C10.3378 15.5223 10.2365 15.8222 9.98902 15.9447C9.74152 16.0672 9.4416 15.9658 9.31911 15.7183L7.57875 12.2018L6.21601 10.461C6.20259 10.4439 6.1903 10.4259 6.17923 10.4071C5.92738 9.98077 5.79479 9.49456 5.79535 8.99939V5.71079C5.78281 5.72035 5.77012 5.73027 5.75726 5.74055C5.53191 5.9208 5.3077 6.17351 5.10362 6.4457C4.90172 6.715 4.7316 6.98701 4.61138 7.19324Z" fill="#BA0186"/>
<path d="M11.5028 9.61876C11.3887 9.61874 11.2771 9.58492 11.1822 9.52157L9.30314 8.31313C9.21019 8.25317 9.13374 8.17088 9.08079 8.07376C9.02783 7.97664 9.00007 7.8678 9.00002 7.75719V7.01656C8.99998 6.98488 9.00846 6.95377 9.02458 6.9265C9.04069 6.89923 9.06385 6.87679 9.09162 6.86155C9.11939 6.8463 9.15076 6.83881 9.18242 6.83986C9.21408 6.84091 9.24488 6.85045 9.27158 6.8675L11.8231 8.55844C11.9265 8.62737 12.005 8.72774 12.0469 8.84471C12.0889 8.96169 12.092 9.08906 12.056 9.20797C12.0199 9.32689 11.9465 9.43104 11.8467 9.50502C11.7472 9.57875 11.6266 9.61861 11.5028 9.61876Z" fill="#BA0186"/>
<path d="M5.11313 15.8596C5.19358 15.8998 5.2823 15.9207 5.37224 15.9206C5.49286 15.9206 5.63692 15.8981 5.7188 15.8049C5.7188 15.8049 7.0938 14.0099 7.3438 13.6974C7.5838 13.3977 7.56005 13.2052 7.3963 12.8943C7.33974 12.7868 7.28286 12.6896 7.23411 12.6102C7.21728 12.5828 7.19489 12.5591 7.16839 12.5408C7.14189 12.5224 7.11185 12.5098 7.08021 12.5038C7.04856 12.4977 7.01599 12.4983 6.98459 12.5056C6.9532 12.5128 6.92366 12.5265 6.89786 12.5459L5.02442 14.879C4.7838 15.1521 4.71693 15.4334 4.9088 15.689C4.96271 15.761 5.03268 15.8194 5.11313 15.8596Z" fill="#BA0186"/>
</svg>
