<svg width="12" height="15" viewBox="0 0 12 15" fill="none" xmlns="http://www.w3.org/2000/svg">
<path d="M7.95461 1.96708C7.83334 2.33203 7.64117 2.66944 7.38914 2.95992C7.15696 3.2575 6.85942 3.49767 6.51954 3.66182C6.17966 3.82598 5.80657 3.90973 5.42914 3.90659C5.39682 3.53608 5.43917 3.16286 5.55368 2.80901C5.66819 2.45517 5.85254 2.1279 6.09581 1.84659C6.60381 1.25962 7.32206 0.89571 8.09581 0.833252C8.12387 1.2168 8.07588 1.60212 7.95461 1.96708Z" fill="#E67E22"/>
<path d="M5.71552 13.62C6.22837 13.6236 6.56144 13.766 6.87926 13.9018C7.10607 13.9988 7.3251 14.0925 7.59616 14.13C7.69563 14.1491 7.80252 14.1621 7.91998 14.1666C8.79998 14.1999 9.46664 13.2866 9.99998 12.4799C11.1733 10.8333 12.0466 7.79993 10.8733 5.75993C10.5982 5.26425 10.1994 4.84833 9.71568 4.55272C9.49827 4.41986 9.26705 4.31334 9.02691 4.23464C8.72045 4.12221 8.39727 4.05845 8.06914 4.04659C7.43872 3.98193 6.8377 4.21857 6.33883 4.415C6.10601 4.50667 5.89545 4.58957 5.71453 4.62901C5.53363 4.58957 5.32308 4.50667 5.09029 4.41501C4.59142 4.21859 3.9904 3.98194 3.35998 4.0466C3.03208 4.05845 2.70912 4.12213 2.40286 4.23441C2.16249 4.31314 1.93105 4.41973 1.71344 4.55271C1.22972 4.84831 0.830878 5.26424 0.555807 5.75992C-0.617526 7.79992 0.255807 10.8333 1.42914 12.4799C1.96247 13.2866 2.62914 14.1999 3.50914 14.1666C3.62641 14.1621 3.73315 14.1492 3.83249 14.13C4.10377 14.0926 4.32292 13.9989 4.54986 13.9019C4.86807 13.7658 5.20158 13.6232 5.71552 13.62Z" fill="#E67E22"/>
</svg>
