<svg width="86" height="86" viewBox="0 0 86 86" fill="none" xmlns="http://www.w3.org/2000/svg">
<path d="M19.8589 85.3281C9.2791 85.3281 0.671875 76.7209 0.671875 66.1411V19.8589C0.671875 9.2791 9.2791 0.671875 19.8589 0.671875H66.1411C76.7209 0.671875 85.3281 9.2791 85.3281 19.8589V66.1411C85.3281 76.7209 76.7209 85.3281 66.1411 85.3281H19.8589Z" fill="url(#paint0_linear)"/>
<path opacity="0.3" d="M58.0016 19.7432H28.5735C25.9058 19.7432 23.7432 21.9058 23.7432 24.5735V56.499C23.7432 59.1667 25.9058 61.3293 28.5735 61.3293H39.7578L43.2876 67L46.8173 61.3293H58.0016C60.6693 61.3293 62.832 59.1667 62.832 56.499V24.5735C62.832 21.9058 60.6693 19.7432 58.0016 19.7432Z" fill="#1A1A1A"/>
<path d="M57.2584 21.4974H27.8304C25.1627 21.4974 23 23.6601 23 26.3278V55.7559C23 58.4236 25.1627 60.5862 27.8304 60.5862H39.0147L42.5444 66.2569L46.0741 60.5862H57.2584C59.9261 60.5862 62.0888 58.4236 62.0888 55.7559V26.3278C62.0888 23.6601 59.9261 21.4974 57.2584 21.4974Z" fill="url(#paint1_linear)"/>
<path d="M57.2584 19H27.8304C25.1627 19 23 21.1627 23 23.8304V53.2584C23 55.9261 25.1627 58.0888 27.8304 58.0888H39.0147L42.5444 63.7595L46.0741 58.0888H57.2584C59.9261 58.0888 62.0888 55.9261 62.0888 53.2584V23.8304C62.0888 21.1627 59.9261 19 57.2584 19Z" fill="white"/>
<path d="M39.0975 57.9402H27.8304C25.2489 57.9402 23.1487 55.84 23.1487 53.2585V23.8304C23.1487 21.2489 25.2489 19.1487 27.8304 19.1487H57.2585C59.84 19.1487 61.9402 21.2489 61.9402 23.8304V53.2585C61.9402 55.84 59.84 57.9402 57.2585 57.9402H45.9914L42.5445 63.4782L39.0975 57.9402Z" fill="url(#paint2_linear)"/>
<path d="M56.9923 28.6429H34.0399V32.5191H56.9923V28.6429Z" fill="url(#paint3_linear)"/>
<path d="M56.9923 36.0266H28.0948V39.9028H56.9923V36.0266Z" fill="url(#paint4_linear)"/>
<path d="M56.9923 43.4091H28.0948V47.2852H56.9923V43.4091Z" fill="url(#paint5_linear)"/>
<defs>
<linearGradient id="paint0_linear" x1="43" y1="1.49862" x2="43" y2="85.8304" gradientUnits="userSpaceOnUse">
<stop stop-color="#F6EB88"/>
<stop offset="1" stop-color="#FBC356"/>
</linearGradient>
<linearGradient id="paint1_linear" x1="23" y1="43.8772" x2="62.0888" y2="43.8772" gradientUnits="userSpaceOnUse">
<stop stop-color="#E6E6E6"/>
<stop offset="0.055" stop-color="#CCCCCC"/>
<stop offset="0.344" stop-color="#CCCCCC"/>
<stop offset="0.409" stop-color="#B3B3B3"/>
<stop offset="0.458" stop-color="#E6E6E6"/>
<stop offset="0.498" stop-color="#E6E6E6"/>
<stop offset="0.542" stop-color="#E6E6E6"/>
<stop offset="0.589" stop-color="#B3B3B3"/>
<stop offset="0.622" stop-color="#CCCCCC"/>
<stop offset="0.884" stop-color="#CCCCCC"/>
<stop offset="1" stop-color="#CCCCCC"/>
</linearGradient>
<linearGradient id="paint2_linear" x1="42.5445" y1="61.2843" x2="42.5445" y2="19.0209" gradientUnits="userSpaceOnUse">
<stop offset="0.001" stop-color="#F2F2F2"/>
<stop offset="0.998" stop-color="white"/>
</linearGradient>
<linearGradient id="paint3_linear" x1="45.5161" y1="26.5057" x2="45.5161" y2="52.7725" gradientUnits="userSpaceOnUse">
<stop offset="0.006" stop-color="#5FCEE2"/>
<stop offset="1" stop-color="#29ABE2"/>
</linearGradient>
<linearGradient id="paint4_linear" x1="42.5436" y1="26.5056" x2="42.5436" y2="52.7724" gradientUnits="userSpaceOnUse">
<stop offset="0.006" stop-color="#5FCEE2"/>
<stop offset="1" stop-color="#29ABE2"/>
</linearGradient>
<linearGradient id="paint5_linear" x1="42.5436" y1="26.5058" x2="42.5436" y2="52.7725" gradientUnits="userSpaceOnUse">
<stop offset="0.006" stop-color="#5FCEE2"/>
<stop offset="1" stop-color="#29ABE2"/>
</linearGradient>
</defs>
</svg>
