<svg width="10" height="15" viewBox="0 0 10 15" fill="none" xmlns="http://www.w3.org/2000/svg">
<path d="M9.31969 5.67375C8.93254 4.64591 8.36805 3.69398 7.65187 2.86125C6.4125 1.42656 4.78281 0.5 3.5 0.5C3.42372 0.500057 3.34847 0.517565 3.28 0.551184C3.21153 0.584803 3.15166 0.633641 3.10497 0.693961C3.05829 0.754281 3.02602 0.824483 3.01064 0.899194C2.99526 0.973906 2.99718 1.05114 3.01625 1.125C3.44969 2.78125 2.55125 4.15844 1.60031 5.61625C0.8125 6.82375 0 8.07094 0 9.5C0 12.2569 2.24312 14.5 5 14.5C7.75688 14.5 10 12.2569 10 9.5C10 8.14687 9.77125 6.85969 9.31969 5.67375ZM6.01031 12.5841C5.6875 12.9278 5.28281 13 5 13C4.71719 13 4.3125 12.9278 3.98969 12.5841C3.66687 12.2403 3.5 11.695 3.5 11C3.5 10.2144 3.77562 9.61625 4.04187 9.03813C4.19656 8.7025 4.35437 8.36094 4.44812 7.99531C4.45808 7.95554 4.47766 7.91883 4.50515 7.88841C4.53263 7.85799 4.56718 7.8348 4.60574 7.82087C4.6443 7.80695 4.68569 7.80272 4.72627 7.80856C4.76685 7.81441 4.80537 7.83014 4.83844 7.85437C5.12425 8.07551 5.37839 8.3348 5.59375 8.625C6.16156 9.375 6.5 10.2631 6.5 11C6.5 11.695 6.33062 12.2428 6.01031 12.5841Z" fill="#E74C3C"/>
</svg>
