<svg width="86" height="86" viewBox="0 0 86 86" fill="none" xmlns="http://www.w3.org/2000/svg">
<path d="M19.8583 85.3281C9.27893 85.3281 0.671875 76.7211 0.671875 66.1416V19.8584C0.671875 9.27893 9.27893 0.671875 19.8583 0.671875H66.1416C76.7211 0.671875 85.3281 9.27893 85.3281 19.8584V66.1417C85.3281 76.7211 76.7211 85.3281 66.1416 85.3281H19.8583Z" fill="url(#paint0_linear)"/>
<path d="M41.823 20.1769V33.023C41.823 33.673 42.35 34.1999 42.9999 34.1999C43.65 34.1999 44.177 33.6729 44.177 33.023V20.1769C44.1771 19.527 43.6501 19 43 19C42.35 19 41.823 19.527 41.823 20.1769Z" fill="url(#paint1_linear)"/>
<path d="M41.823 20.1769V33.023C41.823 33.673 42.35 34.1999 42.9999 34.1999C43.65 34.1999 44.177 33.6729 44.177 33.023V20.1769C44.1771 19.527 43.6501 19 43 19C42.35 19 41.823 19.527 41.823 20.1769Z" fill="url(#paint2_linear)"/>
<path d="M49.1489 30.722H36.851V28.3029C36.851 27.1134 37.8152 26.1493 39.0046 26.1493H46.9953C48.1848 26.1493 49.1489 27.1135 49.1489 28.3029V30.722Z" fill="url(#paint3_linear)"/>
<path d="M49.1489 30.722H36.851V28.3029C36.851 27.1134 37.8152 26.1493 39.0046 26.1493H46.9953C48.1848 26.1493 49.1489 27.1135 49.1489 28.3029V30.722Z" fill="url(#paint4_linear)"/>
<path d="M66.7911 56.2362L64.0635 43.7863C62.2078 35.316 54.706 29.2797 46.0347 29.2797H39.9653C31.2941 29.2797 23.7922 35.316 21.9365 43.7863L19.2089 56.2362C17.9974 61.7663 22.2086 67 27.8699 67C31.4662 67 34.7062 64.8278 36.072 61.501C38.6146 55.308 47.3853 55.308 49.928 61.501C51.2938 64.8278 54.5338 67 58.1301 67C63.7914 67 68.0026 61.7663 66.7911 56.2362Z" fill="url(#paint5_linear)"/>
<path d="M47.0605 41.1817L66.6113 60.7337C67.0432 59.3319 67.1329 57.7958 66.7912 56.2362L66.2907 53.9516L50.2795 37.9629C49.8595 37.4228 46.5205 40.7619 47.0605 41.1817Z" fill="url(#paint6_linear)"/>
<path d="M66.791 56.2362L66.2918 53.9575L53.571 41.2545C53.1511 40.7145 49.8121 44.0535 50.352 44.4734L66.6111 60.7335C67.043 59.3318 67.1328 57.7958 66.791 56.2362Z" fill="url(#paint7_linear)"/>
<path d="M64.249 44.633L53.9278 34.3262C53.5079 33.7863 50.1689 37.1253 50.7088 37.5452L66.0594 52.8968L64.249 44.633Z" fill="url(#paint8_linear)"/>
<path d="M64.2503 44.639L57.2194 37.618C56.7996 37.078 53.4606 40.417 54.0004 40.8369L66.0593 52.8966L64.2503 44.639Z" fill="url(#paint9_linear)"/>
<path d="M52.1024 38.0292C53.3697 38.0292 54.397 37.0019 54.397 35.7347C54.397 34.4674 53.3697 33.4401 52.1024 33.4401C50.8352 33.4401 49.8079 34.4674 49.8079 35.7347C49.8079 37.0019 50.8352 38.0292 52.1024 38.0292Z" fill="url(#paint10_linear)"/>
<path d="M52.1024 45.2993C53.3697 45.2993 54.397 44.2719 54.397 43.0047C54.397 41.7374 53.3697 40.7101 52.1024 40.7101C50.8352 40.7101 49.8079 41.7374 49.8079 43.0047C49.8079 44.2719 50.8352 45.2993 52.1024 45.2993Z" fill="url(#paint11_linear)"/>
<path d="M55.7376 41.6642C57.0048 41.6642 58.0322 40.6369 58.0322 39.3697C58.0322 38.1024 57.0048 37.0751 55.7376 37.0751C54.4703 37.0751 53.443 38.1024 53.443 39.3697C53.443 40.6369 54.4703 41.6642 55.7376 41.6642Z" fill="url(#paint12_linear)"/>
<path d="M48.4673 41.6642C49.7346 41.6642 50.7619 40.6369 50.7619 39.3697C50.7619 38.1024 49.7346 37.0751 48.4673 37.0751C47.2001 37.0751 46.1727 38.1024 46.1727 39.3697C46.1727 40.6369 47.2001 41.6642 48.4673 41.6642Z" fill="url(#paint13_linear)"/>
<path d="M41.2525 47.7281C40.1833 46.4952 31.8065 54.872 33.0396 55.941L36.9753 59.8768C40.2557 55.3667 47.6317 55.9076 49.9281 61.501C51.2939 64.8278 54.5339 67.0001 58.1301 67.0001C58.8701 67.0001 59.5849 66.9099 60.2664 66.7421L41.2525 47.7281Z" fill="url(#paint14_linear)"/>
<path d="M66.5978 60.7754L53.5504 47.7281C52.4813 46.4952 44.1045 54.872 45.3375 55.941L48.2878 59.0127C48.3518 59.0769 48.4149 59.1426 48.4769 59.2097L48.493 59.2264V59.2267C49.0741 59.8586 49.5647 60.6163 49.9279 61.501C51.2939 64.8278 54.5339 67.0001 58.1301 67.0001C62.1789 67.0001 65.4854 64.3231 66.5978 60.7754Z" fill="url(#paint15_linear)"/>
<path d="M36.8509 57.3662C33.638 57.3662 31.0243 54.7523 31.0243 51.5395C31.0243 48.3267 33.638 45.7129 36.8509 45.7129C40.0637 45.7129 42.6775 48.3266 42.6775 51.5395C42.6775 54.7524 40.0637 57.3662 36.8509 57.3662Z" fill="url(#paint16_linear)"/>
<path d="M49.149 57.3662C45.9361 57.3662 43.3224 54.7523 43.3224 51.5395C43.3224 48.3267 45.9361 45.7129 49.149 45.7129C52.3618 45.7129 54.9756 48.3266 54.9756 51.5395C54.9756 54.7524 52.3618 57.3662 49.149 57.3662Z" fill="url(#paint17_linear)"/>
<path d="M64.7359 64.0477L35.1241 34.5385C35.0074 34.1404 34.64 33.9436 34.2042 33.9436H32.3558C31.8261 33.9436 31.4908 34.2789 31.4908 34.8086V36.5273C31.4908 37.057 31.0614 37.5805 30.5316 37.5805H28.7189C28.1892 37.5805 27.8539 37.9157 27.8539 38.4454V40.2938C27.8539 40.7297 28.0507 41.0969 28.4488 41.2137L44.0725 56.9311C46.5204 57.274 48.8177 58.7971 49.9279 61.501C51.2939 64.8277 54.5339 67 58.1301 67C60.7892 67 63.1282 65.8453 64.7359 64.0477Z" fill="url(#paint18_linear)"/>
<path d="M57.7008 66.9884C57.4781 66.1489 57.015 65.4073 56.3887 64.8427L40.1308 48.5848C39.3228 47.6885 32.9999 54.0114 33.8963 54.8195L37.9041 58.8273C41.4838 55.4968 47.8286 56.3876 49.928 61.501C51.2392 64.6948 54.278 66.8233 57.7008 66.9884Z" fill="url(#paint19_linear)"/>
<path d="M66.0215 62.1775L52.4289 48.5848C51.6209 47.6885 45.298 54.0114 46.1943 54.8195L58.3714 66.9965C61.7601 66.9071 64.6002 64.9398 66.0215 62.1775Z" fill="url(#paint20_linear)"/>
<path d="M36.851 55.9545C39.2893 55.9545 41.2659 53.9779 41.2659 51.5396C41.2659 49.1014 39.2893 47.1248 36.851 47.1248C34.4128 47.1248 32.4362 49.1014 32.4362 51.5396C32.4362 53.9779 34.4128 55.9545 36.851 55.9545Z" fill="url(#paint21_linear)"/>
<path d="M36.851 55.9545C39.2893 55.9545 41.2659 53.9779 41.2659 51.5396C41.2659 49.1014 39.2893 47.1248 36.851 47.1248C34.4128 47.1248 32.4362 49.1014 32.4362 51.5396C32.4362 53.9779 34.4128 55.9545 36.851 55.9545Z" fill="url(#paint22_linear)"/>
<path d="M49.149 55.9545C51.5873 55.9545 53.5639 53.9779 53.5639 51.5396C53.5639 49.1014 51.5873 47.1248 49.149 47.1248C46.7107 47.1248 44.7341 49.1014 44.7341 51.5396C44.7341 53.9779 46.7107 55.9545 49.149 55.9545Z" fill="url(#paint23_linear)"/>
<path d="M49.149 55.9545C51.5873 55.9545 53.5639 53.9779 53.5639 51.5396C53.5639 49.1014 51.5873 47.1248 49.149 47.1248C46.7107 47.1248 44.7341 49.1014 44.7341 51.5396C44.7341 53.9779 46.7107 55.9545 49.149 55.9545Z" fill="url(#paint24_linear)"/>
<path d="M27.8699 67C31.4661 67 34.7061 64.8278 36.072 61.501C36.9224 59.4295 38.4701 58.052 40.2481 57.3662H19.0359C18.5817 62.4584 22.5961 67 27.8699 67Z" fill="url(#paint25_linear)"/>
<path d="M66.9641 57.3662H45.752C47.5299 58.052 49.0776 59.4295 49.928 61.501C51.2939 64.8278 54.5339 67 58.1301 67C63.4039 67 67.4183 62.4584 66.9641 57.3662Z" fill="url(#paint26_linear)"/>
<path d="M45.5099 36.1778H40.4903C39.1562 36.1778 38.0746 35.0962 38.0746 33.762C38.0746 32.4279 39.1561 31.3463 40.4903 31.3463H45.5099C46.844 31.3463 47.9256 32.4278 47.9256 33.762C47.9255 35.0962 46.844 36.1778 45.5099 36.1778Z" fill="url(#paint27_linear)"/>
<path d="M37.841 37.4864H36.1224C35.5927 37.4864 35.1632 37.057 35.1632 36.5272V34.8085C35.1632 34.2788 34.7339 33.8494 34.2041 33.8494H32.3557C31.826 33.8494 31.3965 34.2787 31.3965 34.8085V36.5272C31.3965 37.0569 30.9672 37.4864 30.4374 37.4864H28.7188C28.1891 37.4864 27.7596 37.9157 27.7596 38.4455V40.2939C27.7596 40.8236 28.189 41.253 28.7188 41.253H30.4374C30.9671 41.253 31.3965 41.6824 31.3965 42.2122V43.9308C31.3965 44.4605 31.8259 44.8899 32.3557 44.8899H34.2041C34.7338 44.8899 35.1632 44.4606 35.1632 43.9308V42.2122C35.1632 41.6825 35.5926 41.253 36.1224 41.253H37.841C38.3707 41.253 38.8001 40.8237 38.8001 40.2939V38.4455C38.8001 37.9157 38.3707 37.4864 37.841 37.4864Z" fill="url(#paint28_linear)"/>
<path d="M37.841 37.4864H36.1224C35.5927 37.4864 35.1632 37.057 35.1632 36.5272V34.8085C35.1632 34.2788 34.7339 33.8494 34.2041 33.8494H32.3557C31.826 33.8494 31.3965 34.2787 31.3965 34.8085V36.5272C31.3965 37.0569 30.9672 37.4864 30.4374 37.4864H28.7188C28.1891 37.4864 27.7596 37.9157 27.7596 38.4455V40.2939C27.7596 40.8236 28.189 41.253 28.7188 41.253H30.4374C30.9671 41.253 31.3965 41.6824 31.3965 42.2122V43.9308C31.3965 44.4605 31.8259 44.8899 32.3557 44.8899H34.2041C34.7338 44.8899 35.1632 44.4606 35.1632 43.9308V42.2122C35.1632 41.6825 35.5926 41.253 36.1224 41.253H37.841C38.3707 41.253 38.8001 40.8237 38.8001 40.2939V38.4455C38.8001 37.9157 38.3707 37.4864 37.841 37.4864Z" fill="url(#paint29_linear)"/>
<path d="M36.1224 38.8981C34.8131 38.8981 33.7516 37.8367 33.7516 36.5273V35.7328C33.7516 35.4723 33.5405 35.2612 33.2801 35.2612C33.0197 35.2612 32.8086 35.4723 32.8086 35.7328V36.5273C32.8086 37.8367 31.7471 38.8981 30.4377 38.8981H29.6433C29.3829 38.8981 29.1718 39.1092 29.1718 39.3697C29.1718 39.6301 29.3829 39.8412 29.6433 39.8412H30.4377C31.7471 39.8412 32.8086 40.9026 32.8086 42.212V43.0065C32.8086 43.2669 33.0197 43.478 33.2801 43.478C33.5405 43.478 33.7516 43.2669 33.7516 43.0065V42.212C33.7516 40.9026 34.8131 39.8412 36.1224 39.8412H36.9169C37.1773 39.8412 37.3884 39.6301 37.3884 39.3697C37.3884 39.1092 37.1773 38.8981 36.9169 38.8981H36.1224Z" fill="url(#paint30_linear)"/>
<defs>
<linearGradient id="paint0_linear" x1="43" y1="1.49862" x2="43" y2="85.8304" gradientUnits="userSpaceOnUse">
<stop stop-color="#FFD67B"/>
<stop offset="1" stop-color="#FFAD63"/>
</linearGradient>
<linearGradient id="paint1_linear" x1="41.3059" y1="26.6" x2="43.6757" y2="26.6" gradientUnits="userSpaceOnUse">
<stop stop-color="#5A5A5A"/>
<stop offset="1" stop-color="#464646"/>
</linearGradient>
<linearGradient id="paint2_linear" x1="41.3059" y1="26.6" x2="43.6757" y2="26.6" gradientUnits="userSpaceOnUse">
<stop stop-color="#464646" stop-opacity="0"/>
<stop offset="1" stop-color="#202020"/>
</linearGradient>
<linearGradient id="paint3_linear" x1="36.8823" y1="28.4356" x2="46.1999" y2="28.4356" gradientUnits="userSpaceOnUse">
<stop stop-color="#5A5A5A"/>
<stop offset="1" stop-color="#464646"/>
</linearGradient>
<linearGradient id="paint4_linear" x1="42.9999" y1="27.4236" x2="42.9999" y2="29.5883" gradientUnits="userSpaceOnUse">
<stop stop-color="#464646" stop-opacity="0"/>
<stop offset="1" stop-color="#202020"/>
</linearGradient>
<linearGradient id="paint5_linear" x1="26.1163" y1="35.3178" x2="70.3856" y2="79.5871" gradientUnits="userSpaceOnUse">
<stop stop-color="#76CCF8"/>
<stop offset="0.833" stop-color="#518EF8"/>
<stop offset="1" stop-color="#4981F8"/>
</linearGradient>
<linearGradient id="paint6_linear" x1="52.2803" y1="43.1722" x2="47.9727" y2="38.8645" gradientUnits="userSpaceOnUse">
<stop stop-color="#4071F7" stop-opacity="0"/>
<stop offset="1" stop-color="#30569F"/>
</linearGradient>
<linearGradient id="paint7_linear" x1="59.679" y1="50.5733" x2="48.8165" y2="39.7108" gradientUnits="userSpaceOnUse">
<stop stop-color="#4071F7" stop-opacity="0"/>
<stop offset="1" stop-color="#30569F"/>
</linearGradient>
<linearGradient id="paint8_linear" x1="55.0902" y1="38.7012" x2="51.6913" y2="35.3022" gradientUnits="userSpaceOnUse">
<stop stop-color="#4071F7" stop-opacity="0"/>
<stop offset="1" stop-color="#30569F"/>
</linearGradient>
<linearGradient id="paint9_linear" x1="61.285" y1="44.8984" x2="53.1678" y2="36.7812" gradientUnits="userSpaceOnUse">
<stop stop-color="#4071F7" stop-opacity="0"/>
<stop offset="1" stop-color="#30569F"/>
</linearGradient>
<linearGradient id="paint10_linear" x1="50.3909" y1="34.0231" x2="53.2558" y2="36.888" gradientUnits="userSpaceOnUse">
<stop stop-color="#E38523"/>
<stop offset="0.7304" stop-color="#DB4735"/>
<stop offset="1" stop-color="#D82F3C"/>
</linearGradient>
<linearGradient id="paint11_linear" x1="50.3909" y1="41.2932" x2="53.2558" y2="44.1581" gradientUnits="userSpaceOnUse">
<stop stop-color="#9D66D6"/>
<stop offset="1" stop-color="#453D81"/>
</linearGradient>
<linearGradient id="paint12_linear" x1="54.0261" y1="37.6581" x2="56.8909" y2="40.523" gradientUnits="userSpaceOnUse">
<stop stop-color="#F7E07D"/>
<stop offset="1" stop-color="#E69642"/>
</linearGradient>
<linearGradient id="paint13_linear" x1="46.7559" y1="37.6581" x2="49.6207" y2="40.523" gradientUnits="userSpaceOnUse">
<stop stop-color="#7DC03A"/>
<stop offset="1" stop-color="#3E6E66"/>
</linearGradient>
<linearGradient id="paint14_linear" x1="44.1505" y1="58.8392" x2="36.4637" y2="51.1523" gradientUnits="userSpaceOnUse">
<stop stop-color="#4071F7" stop-opacity="0"/>
<stop offset="1" stop-color="#30569F"/>
</linearGradient>
<linearGradient id="paint15_linear" x1="60.1993" y1="63.559" x2="47.6728" y2="51.0325" gradientUnits="userSpaceOnUse">
<stop stop-color="#4071F7" stop-opacity="0"/>
<stop offset="1" stop-color="#30569F"/>
</linearGradient>
<linearGradient id="paint16_linear" x1="32.507" y1="47.1957" x2="39.7782" y2="54.4668" gradientUnits="userSpaceOnUse">
<stop stop-color="#76CCF8"/>
<stop offset="0.833" stop-color="#518EF8"/>
<stop offset="1" stop-color="#4981F8"/>
</linearGradient>
<linearGradient id="paint17_linear" x1="44.8051" y1="47.1957" x2="52.0763" y2="54.4668" gradientUnits="userSpaceOnUse">
<stop stop-color="#76CCF8"/>
<stop offset="0.833" stop-color="#518EF8"/>
<stop offset="1" stop-color="#4981F8"/>
</linearGradient>
<linearGradient id="paint18_linear" x1="41.7363" y1="47.8259" x2="21.9529" y2="28.0424" gradientUnits="userSpaceOnUse">
<stop stop-color="#4071F7" stop-opacity="0"/>
<stop offset="1" stop-color="#30569F"/>
</linearGradient>
<linearGradient id="paint19_linear" x1="42.4427" y1="57.1273" x2="36.4864" y2="51.1711" gradientUnits="userSpaceOnUse">
<stop stop-color="#4071F7" stop-opacity="0"/>
<stop offset="1" stop-color="#30569F"/>
</linearGradient>
<linearGradient id="paint20_linear" x1="53.178" y1="55.5686" x2="48.4823" y2="50.8729" gradientUnits="userSpaceOnUse">
<stop stop-color="#4071F7" stop-opacity="0"/>
<stop offset="1" stop-color="#30569F"/>
</linearGradient>
<linearGradient id="paint21_linear" x1="33.5581" y1="48.2467" x2="39.07" y2="53.7586" gradientUnits="userSpaceOnUse">
<stop stop-color="#5A5A5A"/>
<stop offset="1" stop-color="#464646"/>
</linearGradient>
<linearGradient id="paint22_linear" x1="36.851" y1="50.5608" x2="36.851" y2="54.8349" gradientUnits="userSpaceOnUse">
<stop stop-color="#464646" stop-opacity="0"/>
<stop offset="1" stop-color="#202020"/>
</linearGradient>
<linearGradient id="paint23_linear" x1="45.8561" y1="48.2467" x2="51.3681" y2="53.7586" gradientUnits="userSpaceOnUse">
<stop stop-color="#5A5A5A"/>
<stop offset="1" stop-color="#464646"/>
</linearGradient>
<linearGradient id="paint24_linear" x1="49.149" y1="49.8079" x2="49.149" y2="55.5208" gradientUnits="userSpaceOnUse">
<stop stop-color="#464646" stop-opacity="0"/>
<stop offset="1" stop-color="#202020"/>
</linearGradient>
<linearGradient id="paint25_linear" x1="29.6244" y1="59.4647" x2="29.6244" y2="68.504" gradientUnits="userSpaceOnUse">
<stop stop-color="#4071F7" stop-opacity="0"/>
<stop offset="1" stop-color="#30569F"/>
</linearGradient>
<linearGradient id="paint26_linear" x1="56.3756" y1="59.4647" x2="56.3756" y2="68.504" gradientUnits="userSpaceOnUse">
<stop stop-color="#4071F7" stop-opacity="0"/>
<stop offset="1" stop-color="#30569F"/>
</linearGradient>
<linearGradient id="paint27_linear" x1="43" y1="36.4758" x2="43" y2="30.2553" gradientUnits="userSpaceOnUse">
<stop stop-color="#76CCF8"/>
<stop offset="0.833" stop-color="#518EF8"/>
<stop offset="1" stop-color="#4981F8"/>
</linearGradient>
<linearGradient id="paint28_linear" x1="28.6695" y1="34.7592" x2="37.3117" y2="43.4015" gradientUnits="userSpaceOnUse">
<stop stop-color="#5A5A5A"/>
<stop offset="1" stop-color="#464646"/>
</linearGradient>
<linearGradient id="paint29_linear" x1="33.2799" y1="42.5294" x2="33.2799" y2="44.8828" gradientUnits="userSpaceOnUse">
<stop stop-color="#464646" stop-opacity="0"/>
<stop offset="1" stop-color="#202020"/>
</linearGradient>
<linearGradient id="paint30_linear" x1="35.9552" y1="42.0448" x2="33.551" y2="39.6406" gradientUnits="userSpaceOnUse">
<stop stop-color="#5A5A5A"/>
<stop offset="1" stop-color="#464646"/>
</linearGradient>
</defs>
</svg>
