<svg width="13" height="13" viewBox="0 0 13 13" fill="none" xmlns="http://www.w3.org/2000/svg">
<path d="M12.0001 1.49997C11.36 0.860006 10.4919 0.500488 9.58679 0.500488C8.68164 0.500488 7.81356 0.860006 7.17345 1.49997L2.00012 6.67331C1.67555 6.98852 1.41689 7.36512 1.23918 7.7812C1.06146 8.19728 0.968241 8.64454 0.964935 9.09697C0.961628 9.5494 1.0483 9.99798 1.21992 10.4166C1.39153 10.8352 1.64466 11.2156 1.96459 11.5355C2.28451 11.8554 2.66485 12.1086 3.08348 12.2802C3.50212 12.4518 3.95069 12.5385 4.40312 12.5352C4.85555 12.5319 5.30281 12.4386 5.71889 12.2609C6.13497 12.0832 6.51157 11.8245 6.82679 11.5L12.0001 6.32664C12.6401 5.68654 12.9996 4.81845 12.9996 3.91331C12.9996 3.00816 12.6401 2.14008 12.0001 1.49997ZM11.0601 5.37997L8.94012 7.49997L6.00012 4.55997L8.12012 2.43997C8.51414 2.07085 9.03624 1.8694 9.57608 1.87821C10.1159 1.88701 10.6312 2.10538 11.0129 2.48715C11.3947 2.86892 11.6131 3.38418 11.6219 3.92401C11.6307 4.46385 11.4292 4.98596 11.0601 5.37997Z" fill="#2ECC71"/>
</svg>
