<svg width="86" height="86" viewBox="0 0 86 86" fill="none" xmlns="http://www.w3.org/2000/svg">
<path d="M19.8583 85.3281C9.27893 85.3281 0.671875 76.7211 0.671875 66.1416V19.8584C0.671875 9.27893 9.27893 0.671875 19.8583 0.671875H66.1416C76.7211 0.671875 85.3281 9.27893 85.3281 19.8584V66.1417C85.3281 76.7211 76.7211 85.3281 66.1416 85.3281H19.8583Z" fill="url(#paint0_linear)"/>
<path d="M29.07 63.2739C23.5085 63.2739 19 58.7654 19 53.2038V32.7995C19 27.2381 23.5085 22.7295 29.07 22.7295C34.6316 22.7295 39.1401 27.238 39.1401 32.7995V53.2038C39.1401 58.7654 34.6316 63.2739 29.07 63.2739Z" fill="#DFDFEF"/>
<path d="M39.1398 32.7988V53.2023C39.1398 58.7638 34.6309 63.2726 29.0695 63.2726C28.534 63.2726 28.0072 63.2311 27.494 63.1499C32.3064 62.3931 35.987 58.2273 35.987 53.2023V32.7988C35.987 30.0171 34.86 27.5002 33.0381 25.6774C31.567 24.2073 29.6437 23.1885 27.4941 22.8512C28.0074 22.77 28.5341 22.7285 29.0696 22.7285C31.8502 22.7285 34.3681 23.8555 36.1901 25.6774C38.0128 27.5003 39.1398 30.0171 39.1398 32.7988Z" fill="#CDD3E8"/>
<path d="M39.1401 43.0017H19V32.7995C19 27.2381 23.5085 22.7295 29.07 22.7295C34.6316 22.7295 39.1401 27.238 39.1401 32.7995V43.0017Z" fill="#FF4343"/>
<path d="M39.1403 32.7988V43.0006H35.9875V32.7988C35.9875 30.0171 34.8605 27.5003 33.0386 25.6774C31.5282 24.1662 29.6045 23.2274 27.5117 22.8517C28.9921 22.5996 30.6485 22.7352 32.0895 23.1906C33.0427 23.4919 33.9538 23.9328 34.7787 24.4978C35.2857 24.8452 35.756 25.2428 36.1905 25.6773C37.0957 26.5825 37.8533 27.7075 38.3488 28.8784C38.633 29.5502 38.8567 30.2964 38.9828 31.0154C39.0862 31.5945 39.1403 32.1899 39.1403 32.7988Z" fill="#D31E4E"/>
<path d="M38.1544 62.4991C33.2976 60.4809 30.9965 54.9075 33.0147 50.0507L40.4194 32.2318C42.4376 27.375 48.011 25.0739 52.8678 27.0921C57.7247 29.1104 60.0257 34.6837 58.0075 39.5406L50.6029 57.3594C48.5845 62.2163 43.0112 64.5174 38.1544 62.4991Z" fill="#FFCC5A"/>
<path d="M58.0064 39.541L50.6021 57.3592C48.5838 62.2159 43.01 64.5172 38.1533 62.4989C37.6857 62.3046 37.2408 62.0772 36.822 61.82C41.2993 62.9055 46.0252 60.6033 47.8488 56.215L55.2531 38.3968C56.2626 35.9676 56.1917 33.3607 55.2622 31.1075C54.511 29.2898 53.2011 27.7022 51.4463 26.6276C51.9239 26.7429 52.399 26.8977 52.8667 27.0921C55.295 28.1012 57.0849 29.9991 58.0147 32.2513C58.9451 34.5048 59.0159 37.1118 58.0064 39.541Z" fill="#FFB509"/>
<path d="M54.305 48.4501L36.7169 41.1414L40.4192 32.2319C42.4375 27.3751 48.0108 25.074 52.8677 27.0923C57.7245 29.1105 60.0256 34.6839 58.0074 39.5407L54.305 48.4501Z" fill="#DFDFEF"/>
<path d="M58.0068 39.5411L54.3046 48.4501L51.5513 47.306L55.2535 38.397C56.263 35.9678 56.1921 33.3609 55.2626 31.1078C54.4919 29.24 53.1527 27.722 51.4614 26.6345C52.8457 26.9516 54.243 27.6711 55.3362 28.5917C56.0592 29.2007 56.6949 29.9164 57.2102 30.7092C57.527 31.1966 57.7934 31.7145 58.0151 32.2516C58.4771 33.3707 58.7305 34.628 58.7382 35.8303C58.7426 36.5201 58.6671 37.2529 58.5164 37.9267C58.3966 38.4697 58.2278 39.0093 58.0068 39.5411Z" fill="#CDD3E8"/>
<path d="M55.457 63.2637C61.8317 63.2637 66.9994 58.096 66.9994 51.7213C66.9994 45.3466 61.8317 40.1788 55.457 40.1788C49.0823 40.1788 43.9146 45.3466 43.9146 51.7213C43.9146 58.096 49.0823 63.2637 55.457 63.2637Z" fill="#BCF7E7"/>
<path d="M67 51.7216C67 58.0959 61.8319 63.264 55.4567 63.264C53.6164 63.264 51.8766 62.8329 50.3331 62.0664C51.1914 62.2703 52.0884 62.3786 53.0095 62.3786C59.3837 62.3786 64.5518 57.2106 64.5518 50.8363C64.5518 46.3023 61.9374 42.3781 58.133 40.4915C63.218 41.6977 67 46.2675 67 51.7216Z" fill="#ABEFD9"/>
<path d="M66.4312 48.1426L46.6057 59.1311C45.6692 58.0147 44.9404 56.7176 44.4803 55.3007L64.3049 44.3112C65.2424 45.4275 65.9712 46.7246 66.4312 48.1426Z" fill="#5EE2C5"/>
<path d="M66.4324 48.1426L64.4423 49.2454C64.2335 47.7298 63.7309 46.3081 62.9924 45.0391L64.3059 44.3113C64.3089 44.3142 64.3118 44.318 64.3147 44.3219C64.3389 44.3508 64.363 44.3799 64.3871 44.4098C64.3929 44.4166 64.3977 44.4233 64.4035 44.4301C65.0197 45.1488 65.5253 45.9933 65.924 46.8503C65.9626 46.9344 66.0004 47.0185 66.038 47.1026C66.185 47.4418 66.3173 47.7879 66.4324 48.1426Z" fill="#00D3B4"/>
<defs>
<linearGradient id="paint0_linear" x1="43" y1="1.49862" x2="43" y2="85.8304" gradientUnits="userSpaceOnUse">
<stop stop-color="#6AE9CA"/>
<stop offset="1" stop-color="#55D6FF"/>
</linearGradient>
</defs>
</svg>
