<svg width="86" height="86" viewBox="0 0 86 86" fill="none" xmlns="http://www.w3.org/2000/svg">
<path d="M19.8583 85.3281C9.27893 85.3281 0.671875 76.7211 0.671875 66.1416V19.8584C0.671875 9.27893 9.27893 0.671875 19.8583 0.671875H66.1416C76.7211 0.671875 85.3281 9.27893 85.3281 19.8584V66.1417C85.3281 76.7211 76.7211 85.3281 66.1416 85.3281H19.8583Z" fill="url(#paint0_linear)"/>
<path d="M27.4331 56.9798V62.2546C27.4331 63.5931 26.348 64.6782 25.0095 64.6782H60.4638C64.0736 64.6782 67 61.7518 67 58.142V56.9798C67 56.1078 66.2931 55.4009 65.4211 55.4009H29.0121C28.14 55.4009 27.4331 56.1078 27.4331 56.9798Z" fill="url(#paint1_linear)"/>
<path d="M27.4331 56.9798V62.2546C27.4331 63.5931 26.348 64.6782 25.0095 64.6782H60.4638C64.0736 64.6782 67 61.7518 67 58.142V56.9798C67 56.1078 66.2931 55.4009 65.4211 55.4009H29.0121C28.14 55.4009 27.4331 56.1078 27.4331 56.9798Z" fill="url(#paint2_linear)"/>
<path d="M58.567 62.2785C58.5671 62.2706 58.5671 62.2626 58.5671 62.2546V22.9009C58.5671 22.0288 57.8602 21.3219 56.9882 21.3219H20.5792C19.7072 21.3219 19.0002 22.0288 19.0002 22.9009V56.9525C19.0001 56.9616 19 56.9708 19 56.9799V58.1421C19 61.7519 21.9264 64.6783 25.5362 64.6783H60.9905C59.6599 64.6783 58.5798 63.6061 58.567 62.2785Z" fill="url(#paint3_linear)"/>
<path d="M58.5671 22.9219C58.5671 22.0382 57.8508 21.3219 56.9671 21.3219H20.6002C19.7166 21.3219 19.0002 22.0382 19.0002 22.9219V30.9551C19.0002 31.8387 19.7166 32.5551 20.6002 32.5551H56.9671C57.8508 32.5551 58.5671 31.8387 58.5671 30.9551V22.9219Z" fill="url(#paint4_linear)"/>
<path d="M58.5671 62.2547V53.4174H19.0002V56.9525C19.0001 56.9617 19 56.9708 19 56.98V58.1421C19 61.7519 21.9264 64.6783 25.5362 64.6783H60.9905C59.6599 64.6783 58.5798 63.6061 58.567 62.2786C58.5671 62.2706 58.5671 62.2627 58.5671 62.2547Z" fill="url(#paint5_linear)"/>
<path d="M35.0522 38.6466H23.7159C23.3855 38.6466 23.1177 38.3631 23.1177 38.0134V28.8357C23.1177 28.486 23.3855 28.2025 23.7159 28.2025H35.0523C35.3827 28.2025 35.6505 28.486 35.6505 28.8357V38.0134C35.6505 38.3631 35.3826 38.6466 35.0522 38.6466Z" fill="url(#paint6_linear)"/>
<path d="M54.0992 30.2913H38.09C37.8963 30.2913 37.7394 30.0133 37.7394 29.6703V28.8235C37.7394 28.4805 37.8963 28.2025 38.09 28.2025H54.0993C54.2929 28.2025 54.4499 28.4805 54.4499 28.8235V29.6703C54.4499 30.0133 54.2929 30.2913 54.0992 30.2913Z" fill="url(#paint7_linear)"/>
<path d="M54.0992 34.4689H38.09C37.8963 34.4689 37.7394 34.1909 37.7394 33.8479V33.0011C37.7394 32.6581 37.8963 32.3801 38.09 32.3801H54.0993C54.2929 32.3801 54.4499 32.6581 54.4499 33.0011V33.8479C54.4499 34.1909 54.2929 34.4689 54.0992 34.4689Z" fill="url(#paint8_linear)"/>
<path d="M54.0992 38.6466H38.09C37.8963 38.6466 37.7394 38.3685 37.7394 38.0255V37.1787C37.7394 36.8358 37.8963 36.5577 38.09 36.5577H54.0993C54.2929 36.5577 54.4499 36.8358 54.4499 37.1787V38.0255C54.4499 38.3685 54.2929 38.6466 54.0992 38.6466Z" fill="url(#paint9_linear)"/>
<path d="M53.7924 42.8242H23.7751C23.412 42.8242 23.1177 42.5461 23.1177 42.2032V41.3564C23.1177 41.0134 23.412 40.7354 23.7751 40.7354H53.7925C54.1555 40.7354 54.4499 41.0134 54.4499 41.3564V42.2032C54.4499 42.5461 54.1554 42.8242 53.7924 42.8242Z" fill="url(#paint10_linear)"/>
<path d="M53.7924 47.0018H23.7751C23.412 47.0018 23.1177 46.7238 23.1177 46.3808V45.534C23.1177 45.191 23.412 44.913 23.7751 44.913H53.7925C54.1555 44.913 54.4499 45.191 54.4499 45.534V46.3808C54.4499 46.7238 54.1554 47.0018 53.7924 47.0018Z" fill="url(#paint11_linear)"/>
<path d="M53.7924 51.1794H23.7751C23.412 51.1794 23.1177 50.9014 23.1177 50.5584V49.7116C23.1177 49.3686 23.412 49.0906 23.7751 49.0906H53.7925C54.1555 49.0906 54.4499 49.3686 54.4499 49.7116V50.5584C54.4499 50.9014 54.1554 51.1794 53.7924 51.1794Z" fill="url(#paint12_linear)"/>
<path d="M53.7924 55.0023H23.7751C23.412 55.0023 23.1177 54.7242 23.1177 54.3813V53.5345C23.1177 53.1915 23.412 52.9135 23.7751 52.9135H53.7925C54.1555 52.9135 54.4499 53.1915 54.4499 53.5345V54.3813C54.4499 54.7242 54.1554 55.0023 53.7924 55.0023Z" fill="url(#paint13_linear)"/>
<path d="M38.1825 59.0478H23.7189C23.3868 59.0478 23.1177 58.7698 23.1177 58.4268V57.58C23.1177 57.237 23.3868 56.959 23.7189 56.959H38.1825C38.5146 56.959 38.7838 57.237 38.7838 57.58V58.4268C38.7838 58.7697 38.5146 59.0478 38.1825 59.0478Z" fill="url(#paint14_linear)"/>
<defs>
<linearGradient id="paint0_linear" x1="43" y1="1.49862" x2="43" y2="85.8304" gradientUnits="userSpaceOnUse">
<stop stop-color="#FF9676"/>
<stop offset="1" stop-color="#D93D3D"/>
</linearGradient>
<linearGradient id="paint1_linear" x1="46.0049" y1="55.4009" x2="46.0049" y2="64.4294" gradientUnits="userSpaceOnUse">
<stop stop-color="#93B9FF"/>
<stop offset="1" stop-color="#CFE7FD"/>
</linearGradient>
<linearGradient id="paint2_linear" x1="47.2163" y1="55.79" x2="47.2163" y2="65.4291" gradientUnits="userSpaceOnUse">
<stop stop-color="#8AAADC" stop-opacity="0"/>
<stop offset="1" stop-color="#8AAADC"/>
</linearGradient>
<linearGradient id="paint3_linear" x1="60.4689" y1="21.0675" x2="15.6091" y2="65.9272" gradientUnits="userSpaceOnUse">
<stop stop-color="#EEF4FF"/>
<stop offset="1" stop-color="#CFE7FD"/>
</linearGradient>
<linearGradient id="paint4_linear" x1="38.7837" y1="31.7195" x2="38.7837" y2="25.8643" gradientUnits="userSpaceOnUse">
<stop stop-color="#BFCEE4" stop-opacity="0"/>
<stop offset="1" stop-color="#B9D3FB"/>
</linearGradient>
<linearGradient id="paint5_linear" x1="38.7837" y1="53.8897" x2="38.7837" y2="65.5898" gradientUnits="userSpaceOnUse">
<stop stop-color="#F0F0F0" stop-opacity="0"/>
<stop offset="1" stop-color="#8AAADC"/>
</linearGradient>
<linearGradient id="paint6_linear" x1="23.1177" y1="29.2674" x2="51.6318" y2="29.2674" gradientUnits="userSpaceOnUse">
<stop stop-color="#B8B8B8"/>
<stop offset="1" stop-color="#464646"/>
</linearGradient>
<linearGradient id="paint7_linear" x1="37.7394" y1="29.247" x2="54.4499" y2="29.247" gradientUnits="userSpaceOnUse">
<stop stop-color="#5A5A5A"/>
<stop offset="1" stop-color="#464646"/>
</linearGradient>
<linearGradient id="paint8_linear" x1="37.7394" y1="33.4245" x2="54.4499" y2="33.4245" gradientUnits="userSpaceOnUse">
<stop stop-color="#5A5A5A"/>
<stop offset="1" stop-color="#464646"/>
</linearGradient>
<linearGradient id="paint9_linear" x1="37.7394" y1="37.6021" x2="54.4499" y2="37.6021" gradientUnits="userSpaceOnUse">
<stop stop-color="#5A5A5A"/>
<stop offset="1" stop-color="#464646"/>
</linearGradient>
<linearGradient id="paint10_linear" x1="23.1177" y1="41.7797" x2="54.4499" y2="41.7797" gradientUnits="userSpaceOnUse">
<stop stop-color="#5A5A5A"/>
<stop offset="1" stop-color="#464646"/>
</linearGradient>
<linearGradient id="paint11_linear" x1="23.1177" y1="45.9573" x2="54.4499" y2="45.9573" gradientUnits="userSpaceOnUse">
<stop stop-color="#5A5A5A"/>
<stop offset="1" stop-color="#464646"/>
</linearGradient>
<linearGradient id="paint12_linear" x1="23.1177" y1="50.1349" x2="54.4499" y2="50.1349" gradientUnits="userSpaceOnUse">
<stop stop-color="#5A5A5A"/>
<stop offset="1" stop-color="#464646"/>
</linearGradient>
<linearGradient id="paint13_linear" x1="23.1177" y1="53.9578" x2="54.4499" y2="53.9578" gradientUnits="userSpaceOnUse">
<stop stop-color="#5A5A5A"/>
<stop offset="1" stop-color="#464646"/>
</linearGradient>
<linearGradient id="paint14_linear" x1="23.1177" y1="58.0033" x2="38.7838" y2="58.0033" gradientUnits="userSpaceOnUse">
<stop stop-color="#5A5A5A"/>
<stop offset="1" stop-color="#464646"/>
</linearGradient>
</defs>
</svg>
