<svg width="21" height="20" viewBox="0 0 21 20" fill="none" xmlns="http://www.w3.org/2000/svg">
<path d="M18.042 15.3096L11.3845 3.56449C10.9127 2.73176 9.65564 2.73176 9.18337 3.56449L2.52634 15.3096C2.42388 15.4904 2.37252 15.6933 2.37725 15.8986C2.38199 16.1039 2.44267 16.3044 2.55336 16.4808C2.66406 16.6571 2.82099 16.8032 3.00884 16.9047C3.19669 17.0062 3.40905 17.0598 3.62517 17.0601H16.9412C17.1575 17.0601 17.3701 17.0068 17.5582 16.9054C17.7463 16.804 17.9035 16.658 18.0144 16.4816C18.1254 16.3052 18.1862 16.1045 18.191 15.899C18.1959 15.6936 18.1445 15.4905 18.042 15.3096ZM10.2842 15.2417C10.1296 15.2417 9.97859 15.1982 9.85011 15.1166C9.72164 15.0351 9.6215 14.9192 9.56237 14.7835C9.50324 14.6479 9.48777 14.4987 9.51791 14.3547C9.54806 14.2107 9.62247 14.0785 9.73173 13.9747C9.84098 13.8709 9.98019 13.8002 10.1317 13.7716C10.2833 13.7429 10.4404 13.7576 10.5831 13.8138C10.7259 13.87 10.8479 13.9651 10.9337 14.0872C11.0196 14.2092 11.0654 14.3527 11.0654 14.4995C11.0654 14.597 11.0452 14.6935 11.0059 14.7835C10.9667 14.8736 10.9091 14.9554 10.8366 15.0243C10.764 15.0932 10.6779 15.1479 10.5831 15.1852C10.4883 15.2225 10.3867 15.2417 10.2842 15.2417ZM11.1326 7.77715L10.9084 12.3045C10.9084 12.462 10.8425 12.613 10.7253 12.7243C10.6081 12.8357 10.4491 12.8982 10.2834 12.8982C10.1176 12.8982 9.95864 12.8357 9.84143 12.7243C9.72422 12.613 9.65837 12.462 9.65837 12.3045L9.43415 7.779C9.42911 7.67086 9.44704 7.56287 9.48688 7.46145C9.52671 7.36003 9.58763 7.26727 9.666 7.1887C9.74437 7.11012 9.83859 7.04734 9.94305 7.0041C10.0475 6.96085 10.1601 6.93803 10.274 6.93699H10.2822C10.3969 6.93694 10.5105 6.95896 10.616 7.00174C10.7215 7.04451 10.8168 7.10715 10.8961 7.18587C10.9754 7.2646 11.0371 7.35777 11.0775 7.45978C11.1179 7.56178 11.1361 7.6705 11.131 7.77938L11.1326 7.77715Z" fill="#F44336"/>
</svg>
