<svg width="12" height="12" viewBox="0 0 12 12" fill="none" xmlns="http://www.w3.org/2000/svg">
<circle cx="5.99995" cy="6.00007" r="4.28571" fill="#FF8412"/>
<path d="M6 6.60938C6.33655 6.60938 6.60938 6.33655 6.60938 6C6.60938 5.66345 6.33655 5.39062 6 5.39062C5.66345 5.39062 5.39062 5.66345 5.39062 6C5.39062 6.33655 5.66345 6.60938 6 6.60938Z" fill="white"/>
<path d="M8.10938 6.60938C8.44592 6.60938 8.71875 6.33655 8.71875 6C8.71875 5.66345 8.44592 5.39062 8.10938 5.39062C7.77283 5.39062 7.5 5.66345 7.5 6C7.5 6.33655 7.77283 6.60938 8.10938 6.60938Z" fill="white"/>
<path d="M3.89062 6.60938C4.22717 6.60938 4.5 6.33655 4.5 6C4.5 5.66345 4.22717 5.39062 3.89062 5.39062C3.55408 5.39062 3.28125 5.66345 3.28125 6C3.28125 6.33655 3.55408 6.60938 3.89062 6.60938Z" fill="white"/>
<path fill-rule="evenodd" clip-rule="evenodd" d="M1.125 6C1.125 3.30852 3.30852 1.125 6 1.125C8.69148 1.125 10.875 3.30852 10.875 6C10.875 8.69148 8.69148 10.875 6 10.875C3.30852 10.875 1.125 8.69148 1.125 6ZM6 1.875C3.72273 1.875 1.875 3.72273 1.875 6C1.875 8.27727 3.72273 10.125 6 10.125C8.27727 10.125 10.125 8.27727 10.125 6C10.125 3.72273 8.27727 1.875 6 1.875Z" fill="#FF8412"/>
</svg>
