<svg width="12" height="12" viewBox="0 0 12 12" fill="none" xmlns="http://www.w3.org/2000/svg">
<path d="M6 1.125C3.31195 1.125 1.125 3.31195 1.125 6C1.125 8.68805 3.31195 10.875 6 10.875C8.68805 10.875 10.875 8.68805 10.875 6C10.875 3.31195 8.68805 1.125 6 1.125ZM7.76508 7.23492C7.80137 7.2694 7.83038 7.31079 7.85042 7.35666C7.87046 7.40252 7.88112 7.45194 7.88176 7.50199C7.8824 7.55204 7.87301 7.60171 7.85416 7.64807C7.8353 7.69444 7.80735 7.73656 7.77195 7.77195C7.73656 7.80735 7.69444 7.8353 7.64807 7.85416C7.60171 7.87301 7.55204 7.8824 7.50199 7.88176C7.45194 7.88112 7.40252 7.87046 7.35666 7.85042C7.31079 7.83038 7.2694 7.80137 7.23492 7.76508L6 6.53039L4.76508 7.76508C4.69418 7.83244 4.59977 7.86943 4.50199 7.86818C4.4042 7.86693 4.31077 7.82753 4.24162 7.75838C4.17247 7.68923 4.13307 7.5958 4.13182 7.49801C4.13057 7.40023 4.16756 7.30582 4.23492 7.23492L5.46961 6L4.23492 4.76508C4.16756 4.69418 4.13057 4.59977 4.13182 4.50199C4.13307 4.4042 4.17247 4.31077 4.24162 4.24162C4.31077 4.17247 4.4042 4.13307 4.50199 4.13182C4.59977 4.13057 4.69418 4.16756 4.76508 4.23492L6 5.46961L7.23492 4.23492C7.30582 4.16756 7.40023 4.13057 7.49801 4.13182C7.5958 4.13307 7.68923 4.17247 7.75838 4.24162C7.82753 4.31077 7.86693 4.4042 7.86818 4.50199C7.86943 4.59977 7.83244 4.69418 7.76508 4.76508L6.53039 6L7.76508 7.23492Z" fill="#E81111"/>
</svg>
