<svg width="16" height="17" viewBox="0 0 16 17" fill="none" xmlns="http://www.w3.org/2000/svg">
<g clip-path="url(#clip0_487_4721)">
<path d="M5.33331 5.44042C5.22798 5.35993 5.0956 5.32331 4.96388 5.33822C4.83216 5.35313 4.71132 5.41842 4.62665 5.52042L3.62665 6.75375L3.01998 6.14709C2.97421 6.09796 2.91901 6.05856 2.85767 6.03123C2.79634 6.00391 2.73013 5.98921 2.663 5.98803C2.59586 5.98684 2.52917 5.99919 2.46692 6.02434C2.40466 6.04949 2.3481 6.08692 2.30062 6.1344C2.25314 6.18187 2.21571 6.23843 2.19057 6.30069C2.16542 6.36295 2.15307 6.42963 2.15425 6.49677C2.15544 6.5639 2.17013 6.63011 2.19746 6.69145C2.22479 6.75278 2.26419 6.80798 2.31331 6.85375L3.33331 7.83375C3.38099 7.88153 3.43763 7.91943 3.49997 7.94529C3.56232 7.97115 3.62915 7.98446 3.69665 7.98446C3.76414 7.98446 3.83098 7.97115 3.89332 7.94529C3.95567 7.91943 4.0123 7.88153 4.05998 7.83375L5.39331 6.16709C5.43737 6.11556 5.47078 6.05582 5.49162 5.99131C5.51246 5.92681 5.52032 5.85881 5.51475 5.79125C5.50917 5.72369 5.49026 5.6579 5.45912 5.59769C5.42798 5.53747 5.38522 5.48402 5.33331 5.44042Z" fill="#BA0186"/>
<path d="M4.60665 9.16626L3.62665 10.4196L3.01998 9.83293C2.98255 9.76708 2.93064 9.7106 2.86818 9.66775C2.80572 9.6249 2.73434 9.59681 2.65944 9.58558C2.58453 9.57435 2.50805 9.58029 2.43577 9.60295C2.3635 9.6256 2.29731 9.66438 2.24222 9.71636C2.18712 9.76834 2.14455 9.83215 2.11773 9.90299C2.09091 9.97382 2.08053 10.0498 2.08737 10.1253C2.09422 10.2007 2.11812 10.2736 2.15726 10.3384C2.1964 10.4033 2.24976 10.4584 2.31332 10.4996L3.33332 11.5196C3.38398 11.568 3.444 11.6055 3.50969 11.6298C3.57538 11.6541 3.64535 11.6647 3.71529 11.6609C3.78524 11.6572 3.85368 11.6392 3.91639 11.608C3.97911 11.5768 4.03478 11.5331 4.07998 11.4796L5.41332 9.81293C5.49907 9.70596 5.53882 9.5693 5.52382 9.43303C5.50881 9.29675 5.44029 9.17201 5.33332 9.08626C5.22635 9.00051 5.08969 8.96076 4.95342 8.97576C4.81714 8.99077 4.6924 9.05929 4.60665 9.16626Z" fill="#BA0186"/>
<path d="M13.6667 5.83301H11.3333C11.2449 5.83301 11.1601 5.86813 11.0976 5.93064C11.0351 5.99315 11 6.07794 11 6.16634V12.4997C11 12.7649 11.1054 13.0192 11.2929 13.2068C11.4804 13.3943 11.7348 13.4997 12 13.4997H13C13.2652 13.4997 13.5196 13.3943 13.7071 13.2068C13.8946 13.0192 14 12.7649 14 12.4997V6.16634C14 6.07794 13.9649 5.99315 13.9024 5.93064C13.8399 5.86813 13.7551 5.83301 13.6667 5.83301Z" fill="#BA0186"/>
<path d="M16 2.5C16 1.96957 15.7893 1.46086 15.4142 1.08579C15.0391 0.710714 14.5304 0.5 14 0.5L11.3333 0.5C11.2449 0.5 11.1601 0.535119 11.0976 0.597631C11.0351 0.660143 11 0.744928 11 0.833333V4.83333C11 4.92174 11.0351 5.00652 11.0976 5.06904C11.1601 5.13155 11.2449 5.16667 11.3333 5.16667H13.6667C13.7551 5.16667 13.8399 5.13155 13.9024 5.06904C13.9649 5.00652 14 4.92174 14 4.83333V1.83333C14.1768 1.83333 14.3464 1.90357 14.4714 2.0286C14.5964 2.15362 14.6667 2.32319 14.6667 2.5V7.83333C14.6667 8.01014 14.7369 8.17971 14.8619 8.30474C14.987 8.42976 15.1565 8.5 15.3333 8.5C15.5101 8.5 15.6797 8.42976 15.8047 8.30474C15.9298 8.17971 16 8.01014 16 7.83333V2.5Z" fill="#BA0186"/>
<path d="M10 2.49967C10 2.32286 9.92976 2.15329 9.80474 2.02827C9.67971 1.90325 9.51014 1.83301 9.33333 1.83301H0.666667C0.489856 1.83301 0.320286 1.90325 0.195262 2.02827C0.0702379 2.15329 0 2.32286 0 2.49967L0 14.4997C0 14.6765 0.0702379 14.8461 0.195262 14.9711C0.320286 15.0961 0.489856 15.1663 0.666667 15.1663H9.33333C9.51014 15.1663 9.67971 15.0961 9.80474 14.9711C9.92976 14.8461 10 14.6765 10 14.4997C10 14.3229 9.92976 14.1533 9.80474 14.0283C9.67971 13.9032 9.51014 13.833 9.33333 13.833H1.33333V3.16634H9.33333C9.51014 3.16634 9.67971 3.0961 9.80474 2.97108C9.92976 2.84605 10 2.67649 10 2.49967Z" fill="#BA0186"/>
<path d="M8.33335 6.66699H6.66669C6.53408 6.66699 6.4069 6.71967 6.31313 6.81344C6.21937 6.90721 6.16669 7.03438 6.16669 7.16699C6.16669 7.2996 6.21937 7.42678 6.31313 7.52055C6.4069 7.61431 6.53408 7.66699 6.66669 7.66699H8.33335C8.46596 7.66699 8.59314 7.61431 8.68691 7.52055C8.78067 7.42678 8.83335 7.2996 8.83335 7.16699C8.83335 7.03438 8.78067 6.90721 8.68691 6.81344C8.59314 6.71967 8.46596 6.66699 8.33335 6.66699Z" fill="#BA0186"/>
<path d="M8.33335 10.333H6.66669C6.53408 10.333 6.4069 10.3857 6.31313 10.4795C6.21937 10.5732 6.16669 10.7004 6.16669 10.833C6.16669 10.9656 6.21937 11.0928 6.31313 11.1866C6.4069 11.2803 6.53408 11.333 6.66669 11.333H8.33335C8.46596 11.333 8.59314 11.2803 8.68691 11.1866C8.78067 11.0928 8.83335 10.9656 8.83335 10.833C8.83335 10.7004 8.78067 10.5732 8.68691 10.4795C8.59314 10.3857 8.46596 10.333 8.33335 10.333Z" fill="#BA0186"/>
<path d="M12.5 14.167C12.3232 14.167 12.1536 14.2372 12.0286 14.3623C11.9036 14.4873 11.8333 14.6568 11.8333 14.8337V15.8337C11.8333 16.0105 11.9036 16.18 12.0286 16.3051C12.1536 16.4301 12.3232 16.5003 12.5 16.5003C12.6768 16.5003 12.8464 16.4301 12.9714 16.3051C13.0964 16.18 13.1666 16.0105 13.1666 15.8337V14.8337C13.1666 14.6568 13.0964 14.4873 12.9714 14.3623C12.8464 14.2372 12.6768 14.167 12.5 14.167Z" fill="#BA0186"/>
</g>
<defs>
<clipPath id="clip0_487_4721">
<rect width="16" height="16" fill="white" transform="translate(0 0.5)"/>
</clipPath>
</defs>
</svg>
