<svg width="16" height="17" viewBox="0 0 16 17" fill="none" xmlns="http://www.w3.org/2000/svg">
<g clip-path="url(#clip0_487_4786)">
<path d="M14.3334 3.83333C14.3334 3.47971 14.1929 3.14057 13.9428 2.89052C13.6928 2.64048 13.3536 2.5 13 2.5H11.1667C11.1225 2.5 11.0801 2.51756 11.0488 2.54882C11.0176 2.58007 11 2.62246 11 2.66667V3.66667C11 3.71087 11.0176 3.75326 11.0488 3.78452C11.0801 3.81577 11.1225 3.83333 11.1667 3.83333H12.6667C12.7551 3.83333 12.8399 3.86845 12.9024 3.93096C12.9649 3.99348 13 4.07826 13 4.16667V9.57333C13 9.61754 12.9825 9.65993 12.9512 9.69118C12.9199 9.72244 12.8776 9.74 12.8334 9.74H11.6334C11.4129 9.74948 11.201 9.82794 11.0276 9.9643C10.8542 10.1007 10.7279 10.288 10.6667 10.5V10.5467C10.6548 10.5823 10.6312 10.6129 10.5998 10.6335C10.5683 10.6541 10.5308 10.6634 10.4934 10.66C10.4571 10.6587 10.4224 10.6446 10.3956 10.6202C10.3687 10.5958 10.3514 10.5627 10.3467 10.5267L9.68002 7.10667C9.64926 6.8751 9.54643 6.65908 9.38611 6.48918C9.22578 6.31929 9.01608 6.20413 8.78669 6.16C8.54236 6.1375 8.29794 6.20211 8.09664 6.3424C7.89535 6.4827 7.75014 6.68965 7.68669 6.92667L6.91335 9.26667C6.90462 9.29897 6.88556 9.32754 6.85908 9.348C6.8326 9.36847 6.80015 9.3797 6.76669 9.38C6.73194 9.38286 6.69717 9.37475 6.66727 9.35681C6.63737 9.33887 6.61385 9.31201 6.60002 9.28L6.26002 8.5C6.19231 8.31517 6.07257 8.15388 5.91524 8.03559C5.75791 7.9173 5.56971 7.84705 5.37335 7.83333C5.17667 7.82946 4.98321 7.88369 4.8172 7.98923C4.65118 8.09477 4.51998 8.24693 4.44002 8.42667L3.85335 9.60667C3.83929 9.63376 3.81832 9.65666 3.79257 9.67305C3.76681 9.68944 3.73719 9.69874 3.70669 9.7H3.16669C3.12248 9.7 3.08009 9.68244 3.04884 9.65119C3.01758 9.61993 3.00002 9.57754 3.00002 9.53333V4.16667C3.00002 4.07826 3.03514 3.99348 3.09765 3.93096C3.16016 3.86845 3.24495 3.83333 3.33335 3.83333H4.83335C4.87756 3.83333 4.91995 3.81577 4.9512 3.78452C4.98246 3.75326 5.00002 3.71087 5.00002 3.66667V2.66667C5.00002 2.62246 4.98246 2.58007 4.9512 2.54882C4.91995 2.51756 4.87756 2.5 4.83335 2.5H3.00002C2.6464 2.5 2.30726 2.64048 2.05721 2.89052C1.80716 3.14057 1.66669 3.47971 1.66669 3.83333V15.1667C1.66669 15.5203 1.80716 15.8594 2.05721 16.1095C2.30726 16.3595 2.6464 16.5 3.00002 16.5H13C13.3536 16.5 13.6928 16.3595 13.9428 16.1095C14.1929 15.8594 14.3334 15.5203 14.3334 15.1667V3.83333ZM12.6667 15.1667H3.33335C3.24495 15.1667 3.16016 15.1315 3.09765 15.069C3.03514 15.0065 3.00002 14.9217 3.00002 14.8333V11.24C3.00002 11.1958 3.01758 11.1534 3.04884 11.1221C3.08009 11.0909 3.12248 11.0733 3.16669 11.0733H4.03335C4.22185 11.0709 4.40594 11.016 4.56494 10.9147C4.72393 10.8134 4.85151 10.6698 4.93335 10.5L5.33335 9.69333L5.90669 11.0267C5.98289 11.231 6.12218 11.4058 6.30437 11.5256C6.48657 11.6455 6.7022 11.7042 6.92002 11.6933C7.12706 11.6648 7.32124 11.5764 7.47875 11.439C7.63626 11.3016 7.75023 11.1212 7.80669 10.92L8.39335 9.15333C8.40472 9.11818 8.42702 9.08758 8.457 9.06599C8.48698 9.0444 8.52308 9.03296 8.56002 9.03333C8.59691 9.03798 8.63145 9.05393 8.65891 9.079C8.68636 9.10406 8.70538 9.13702 8.71335 9.17333L9.38002 12.5867C9.4081 12.8189 9.50903 13.0362 9.66833 13.2075C9.82763 13.3788 10.0371 13.4952 10.2667 13.54H10.3934C10.6164 13.5227 10.828 13.4344 10.9972 13.288C11.1663 13.1416 11.2842 12.9449 11.3334 12.7267L11.8467 11.1667C11.8557 11.1332 11.8758 11.1038 11.9036 11.0833C11.9314 11.0627 11.9654 11.0521 12 11.0533H12.8334C12.8776 11.0533 12.9199 11.0709 12.9512 11.1021C12.9825 11.1334 13 11.1758 13 11.22V14.8333C13 14.9217 12.9649 15.0065 12.9024 15.069C12.8399 15.1315 12.7551 15.1667 12.6667 15.1667Z" fill="#BA0186"/>
<path d="M6.66667 4.8333H9.33334C9.51015 4.8333 9.67972 4.76306 9.80474 4.63804C9.92977 4.51302 10 4.34345 10 4.16664V2.49997C10.0002 2.19116 9.92878 1.8865 9.7915 1.60989C9.65421 1.33327 9.45473 1.0922 9.20869 0.905572C8.96265 0.718943 8.67673 0.591825 8.37335 0.534179C8.06996 0.476532 7.75735 0.489923 7.46001 0.573303C7.02969 0.693749 6.6521 0.954835 6.38748 1.31491C6.12286 1.67499 5.98645 2.11332 6.00001 2.55997V4.16664C6.00001 4.34345 6.07024 4.51302 6.19527 4.63804C6.32029 4.76306 6.48986 4.8333 6.66667 4.8333ZM8.00001 1.8333C8.0989 1.8333 8.19557 1.86263 8.27779 1.91757C8.36002 1.97251 8.4241 2.0506 8.46195 2.14196C8.49979 2.23332 8.50969 2.33386 8.4904 2.43085C8.47111 2.52784 8.42349 2.61693 8.35356 2.68686C8.28363 2.75678 8.19454 2.8044 8.09755 2.8237C8.00056 2.84299 7.90003 2.83309 7.80866 2.79524C7.7173 2.7574 7.63921 2.69331 7.58427 2.61109C7.52933 2.52886 7.50001 2.43219 7.50001 2.3333C7.50173 2.20123 7.55497 2.07506 7.64836 1.98166C7.74176 1.88826 7.86793 1.83503 8.00001 1.8333Z" fill="#BA0186"/>
</g>
<defs>
<clipPath id="clip0_487_4786">
<rect width="16" height="16" fill="white" transform="translate(0 0.5)"/>
</clipPath>
</defs>
</svg>
