<svg width="16" height="17" viewBox="0 0 16 17" fill="none" xmlns="http://www.w3.org/2000/svg">
<g clip-path="url(#clip0_487_4916)">
<path d="M2.34003 1.22625V8.89292C2.34003 9.06973 2.41026 9.2393 2.53529 9.36432C2.66031 9.48934 2.82988 9.55958 3.00669 9.55958C3.1835 9.55958 3.35307 9.48934 3.4781 9.36432C3.60312 9.2393 3.67336 9.06973 3.67336 8.89292V2.22625C3.67336 2.13784 3.70848 2.05306 3.77099 1.99055C3.8335 1.92803 3.91829 1.89292 4.00669 1.89292H10.26C10.3478 1.89487 10.4314 1.93071 10.4934 1.99292L12.24 3.73958C12.2714 3.76983 12.2964 3.80606 12.3136 3.84614C12.3308 3.88621 12.3398 3.92932 12.34 3.97292V8.89292C12.34 9.06973 12.4103 9.2393 12.5353 9.36432C12.6603 9.48934 12.8299 9.55958 13.0067 9.55958C13.1835 9.55958 13.3531 9.48934 13.4781 9.36432C13.6031 9.2393 13.6734 9.06973 13.6734 8.89292V3.55958C13.6726 3.38469 13.6032 3.21709 13.48 3.09292L11.1467 0.759582C11.0842 0.695787 11.0095 0.645209 10.927 0.610852C10.8445 0.576495 10.756 0.55906 10.6667 0.559582H3.00669C2.82988 0.559582 2.66031 0.62982 2.53529 0.754844C2.41026 0.879868 2.34003 1.04944 2.34003 1.22625Z" fill="#BA0186"/>
<path d="M11.1133 14.6665C11.1321 14.6785 11.1482 14.6941 11.1608 14.7124C11.1734 14.7307 11.1822 14.7514 11.1867 14.7731C11.2352 15.0415 11.3768 15.2841 11.5865 15.4585C11.7962 15.6328 12.0606 15.7277 12.3333 15.7265H14C14.1326 15.7265 14.2598 15.6738 14.3536 15.58C14.4473 15.4863 14.5 15.3591 14.5 15.2265V10.5598C14.4983 10.4277 14.445 10.3016 14.3516 10.2082C14.2582 10.1148 14.1321 10.0615 14 10.0598H12.3333C12.134 10.0583 11.938 10.1113 11.7667 10.2131C11.7446 10.2229 11.7208 10.2279 11.6967 10.2279C11.6726 10.2279 11.6487 10.2229 11.6267 10.2131L9.72 9.48648C9.3077 9.34126 8.85467 9.36523 8.46 9.55315L7.46667 10.0398C7.44269 10.0511 7.41651 10.057 7.39 10.057C7.36349 10.057 7.33732 10.0511 7.31333 10.0398C7.11964 9.93133 6.90402 9.86781 6.68245 9.85396C6.46088 9.84012 6.23903 9.87629 6.03333 9.95981L4.74 10.4998C4.71111 10.5182 4.67758 10.528 4.64333 10.528C4.60909 10.528 4.57555 10.5182 4.54667 10.4998C4.438 10.3726 4.30308 10.2703 4.15119 10.2001C3.99929 10.1299 3.834 10.0934 3.66667 10.0931H2C1.86793 10.0949 1.74175 10.1481 1.64836 10.2415C1.55496 10.3349 1.50173 10.4611 1.5 10.5931V15.2598C1.5 15.3924 1.55268 15.5196 1.64645 15.6134C1.74021 15.7071 1.86739 15.7598 2 15.7598H3.66667C3.87054 15.7563 4.06998 15.6998 4.24533 15.5957C4.42069 15.4917 4.56591 15.3437 4.66667 15.1665C4.67934 15.1402 4.69925 15.1181 4.72405 15.1028C4.74884 15.0874 4.7775 15.0795 4.80667 15.0798H5.02C5.05915 15.0802 5.09691 15.0944 5.12667 15.1198L6.46 16.1731C6.62646 16.3446 6.8516 16.4468 7.09024 16.4591C7.32889 16.4715 7.56338 16.3931 7.74667 16.2398L9.21333 15.0331C9.23495 15.0166 9.26002 15.0052 9.28667 14.9998L10.9667 14.6598C10.99 14.6497 11.0154 14.645 11.0408 14.6461C11.0662 14.6473 11.091 14.6542 11.1133 14.6665ZM9.29333 13.6798C9.04 13.8865 7.44667 15.2398 7.19333 15.4531C7.19333 15.4531 7.12667 15.3931 5.57333 14.1665C5.48558 14.0982 5.37782 14.0608 5.26667 14.0598H5C4.9558 14.0598 4.9134 14.0423 4.88215 14.011C4.85089 13.9797 4.83333 13.9373 4.83333 13.8931V11.6665C4.83273 11.6347 4.84203 11.6035 4.85995 11.5772C4.87787 11.5509 4.90351 11.5309 4.93333 11.5198L6.41333 10.8531C6.42974 10.8459 6.44788 10.8436 6.46559 10.8464C6.48329 10.8492 6.49981 10.8571 6.51317 10.869C6.52653 10.881 6.53617 10.8965 6.54092 10.9138C6.54568 10.9311 6.54536 10.9494 6.54 10.9665C6.46572 11.269 6.49973 11.588 6.63612 11.8681C6.77251 12.1482 7.00268 12.3717 7.28667 12.4998C7.45037 12.5726 7.62752 12.6102 7.80667 12.6102C7.98582 12.6102 8.16297 12.5726 8.32667 12.4998C8.35813 12.4866 8.39291 12.4833 8.42629 12.4904C8.45968 12.4976 8.49006 12.5148 8.51333 12.5398L9.33333 13.4398C9.349 13.4555 9.36124 13.4743 9.36927 13.4949C9.3773 13.5156 9.38096 13.5377 9.38 13.5598C9.36692 13.6091 9.33605 13.6519 9.29333 13.6798ZM10.5067 13.6798C10.4872 13.6647 10.4711 13.6455 10.4596 13.6237C10.4482 13.6018 10.4415 13.5778 10.44 13.5531C10.43 13.3414 10.353 13.1383 10.22 12.9731L8.94 11.5598C8.87043 11.4845 8.77966 11.4321 8.67967 11.4095C8.57969 11.3869 8.4752 11.3951 8.38 11.4331L7.91333 11.6265C7.83897 11.6553 7.75631 11.654 7.68287 11.6229C7.60944 11.5918 7.55102 11.5333 7.52 11.4598C7.44667 11.2665 7.52 11.1865 7.66667 11.0798L8.9 10.4798C9.05247 10.4219 9.22087 10.4219 9.37333 10.4798L11.06 11.1465C11.0911 11.1585 11.1178 11.1795 11.1368 11.2068C11.1558 11.2341 11.1662 11.2665 11.1667 11.2998V13.5265C11.1672 13.5647 11.1541 13.6018 11.1296 13.6311C11.1051 13.6605 11.071 13.6801 11.0333 13.6865L10.64 13.7665C10.61 13.7631 10.5815 13.7513 10.5579 13.7324C10.5343 13.7135 10.5166 13.6884 10.5067 13.6598V13.6798Z" fill="#BA0186"/>
<path d="M7.66669 4.72656C7.7993 4.72656 7.92647 4.67388 8.02024 4.58012C8.11401 4.48635 8.16669 4.35917 8.16669 4.22656C8.16669 4.09395 8.11401 3.96678 8.02024 3.87301C7.92647 3.77924 7.7993 3.72656 7.66669 3.72656H5.66669C5.53408 3.72656 5.4069 3.77924 5.31313 3.87301C5.21937 3.96678 5.16669 4.09395 5.16669 4.22656C5.16669 4.35917 5.21937 4.48635 5.31313 4.58012C5.4069 4.67388 5.53408 4.72656 5.66669 4.72656H7.66669Z" fill="#BA0186"/>
<path d="M5.67334 7.39258H10.6667C10.7993 7.39258 10.9265 7.3399 11.0202 7.24613C11.114 7.15236 11.1667 7.02519 11.1667 6.89258C11.1667 6.75997 11.114 6.63279 11.0202 6.53902C10.9265 6.44526 10.7993 6.39258 10.6667 6.39258H5.67334C5.54073 6.39258 5.41355 6.44526 5.31979 6.53902C5.22602 6.63279 5.17334 6.75997 5.17334 6.89258C5.17334 7.02519 5.22602 7.15236 5.31979 7.24613C5.41355 7.3399 5.54073 7.39258 5.67334 7.39258Z" fill="#BA0186"/>
</g>
<defs>
<clipPath id="clip0_487_4916">
<rect width="16" height="16" fill="white" transform="translate(0 0.5)"/>
</clipPath>
</defs>
</svg>
