<svg width="16" height="17" viewBox="0 0 16 17" fill="none" xmlns="http://www.w3.org/2000/svg">
<g clip-path="url(#clip0_487_4851)">
<path fill-rule="evenodd" clip-rule="evenodd" d="M2.76465 0.591797C2.335 0.591797 1.92295 0.762475 1.61914 1.06628C1.31533 1.37009 1.14465 1.78215 1.14465 2.2118V8.85313L0.0486523 12.1371C0.0192119 12.2253 0.0149086 12.3198 0.0362254 12.4103C0.0575421 12.5007 0.103636 12.5834 0.169335 12.6491C0.235034 12.7148 0.31774 12.7609 0.408174 12.7822C0.498609 12.8035 0.593194 12.7992 0.681319 12.7698L3.68465 11.7685H9.06398C9.28948 11.6466 9.52341 11.541 9.76398 11.4525C9.13604 10.972 8.7221 10.2639 8.61144 9.48104C8.50078 8.69814 8.70228 7.90311 9.17246 7.26742C9.64265 6.63172 10.3439 6.20631 11.1249 6.08291C11.9058 5.95951 12.7041 6.14803 13.3473 6.6078V2.2118C13.3473 1.999 13.3054 1.78829 13.2239 1.5917C13.1425 1.3951 13.0231 1.21649 12.8726 1.06605C12.7221 0.915609 12.5434 0.796294 12.3468 0.714921C12.1502 0.633547 11.9394 0.591709 11.7267 0.591797H2.76465ZM6.41598 2.42113H4.93199C4.84358 2.42113 4.7588 2.45625 4.69628 2.51876C4.63377 2.58127 4.59865 2.66606 4.59865 2.75446V4.2478H3.10532C3.01691 4.2478 2.93213 4.28292 2.86962 4.34543C2.8071 4.40794 2.77199 4.49272 2.77199 4.58113V6.06513C2.77199 6.15354 2.8071 6.23832 2.86962 6.30083C2.93213 6.36335 3.01691 6.39846 3.10532 6.39846H4.59865V7.8918C4.59865 7.9802 4.63377 8.06499 4.69628 8.1275C4.7588 8.19001 4.84358 8.22513 4.93199 8.22513H6.41598C6.50439 8.22513 6.58918 8.19001 6.65169 8.1275C6.7142 8.06499 6.74932 7.9802 6.74932 7.8918V6.39846H8.24265C8.33106 6.39846 8.41584 6.36335 8.47835 6.30083C8.54087 6.23832 8.57598 6.15354 8.57598 6.06513V4.58113C8.57598 4.49272 8.54087 4.40794 8.47835 4.34543C8.41584 4.28292 8.33106 4.2478 8.24265 4.2478H6.74932V2.75446C6.74932 2.66606 6.7142 2.58127 6.65169 2.51876C6.58918 2.45625 6.50439 2.42113 6.41598 2.42113ZM11.6213 11.0925C12.1555 11.0925 12.6677 10.8803 13.0454 10.5026C13.4231 10.1249 13.6353 9.61261 13.6353 9.07846C13.6353 8.54432 13.4231 8.03205 13.0454 7.65435C12.6677 7.27665 12.1555 7.06446 11.6213 7.06446C11.0872 7.06446 10.5749 7.27665 10.1972 7.65435C9.81951 8.03205 9.60732 8.54432 9.60732 9.07846C9.60732 9.61261 9.81951 10.1249 10.1972 10.5026C10.5749 10.8803 11.0872 11.0925 11.6213 11.0925ZM7.90998 16.4998C7.54198 16.4998 7.23799 16.1998 7.29398 15.8358C7.4522 14.8014 7.97567 13.8579 8.76956 13.1762C9.56345 12.4945 10.5752 12.1198 11.6217 12.1198C12.6681 12.1198 13.6799 12.4945 14.4737 13.1762C15.2676 13.8579 15.7911 14.8014 15.9493 15.8358C16.0053 16.1998 15.7013 16.4998 15.3333 16.4998H7.90998Z" fill="#BA0186"/>
</g>
<defs>
<clipPath id="clip0_487_4851">
<rect width="16" height="16" fill="white" transform="translate(0 0.5)"/>
</clipPath>
</defs>
</svg>
