<svg width="16" height="17" viewBox="0 0 16 17" fill="none" xmlns="http://www.w3.org/2000/svg">
<path d="M13 3.50046C12.3599 2.86049 11.4918 2.50098 10.5867 2.50098C9.68152 2.50098 8.81343 2.86049 8.17333 3.50046L3 8.67379C2.67543 8.98901 2.41677 9.36561 2.23905 9.78169C2.06134 10.1978 1.96812 10.645 1.96481 11.0975C1.96151 11.5499 2.04818 11.9985 2.21979 12.4171C2.39141 12.8357 2.64454 13.2161 2.96446 13.536C3.28439 13.8559 3.66473 14.1091 4.08336 14.2807C4.50199 14.4523 4.95057 14.539 5.403 14.5356C5.85543 14.5323 6.30269 14.4391 6.71877 14.2614C7.13485 14.0837 7.51145 13.825 7.82666 13.5005L13 8.32713C13.64 7.68702 13.9995 6.81894 13.9995 5.91379C13.9995 5.00865 13.64 4.14056 13 3.50046ZM12.06 7.38046L9.94 9.50046L7 6.56046L9.12 4.44046C9.51402 4.07134 10.0361 3.86989 10.576 3.8787C11.1158 3.8875 11.6311 4.10587 12.0128 4.48764C12.3946 4.86941 12.613 5.38467 12.6218 5.9245C12.6306 6.46434 12.4291 6.98644 12.06 7.38046Z" fill="#BA0186"/>
</svg>
